<?xml version="1.0" standalone="no"?>
<!DOCTYPE svg PUBLIC "-//W3C//DTD SVG 1.1//EN" "http://www.w3.org/Graphics/SVG/1.1/DTD/svg11.dtd" >
<svg xmlns="http://www.w3.org/2000/svg" xmlns:xlink="http://www.w3.org/1999/xlink" version="1.1">
<metadata>
Created by FontForge 20170731 at Thu Jan  5 06:54:12 2006
 By Aleksey,,,
COPYRIGHT ESSELTE LETRASET LTD., 1990 
</metadata>
<defs>
<font id="HelveticaMediumCondensedPlain" horiz-adv-x="400" >
  <font-face 
    font-family="Helvetica Medium Condensed Plai"
    font-weight="500"
    font-stretch="normal"
    units-per-em="1000"
    panose-1="0 0 0 0 0 0 0 0 0 0"
    ascent="800"
    descent="-200"
    x-height="480"
    cap-height="667"
    bbox="-20 -247 1047 896"
    underline-thickness="0"
    underline-position="0"
    unicode-range="U+0020-FB02"
  />
<missing-glyph horiz-adv-x="500" 
 />
    <glyph glyph-name=".notdef" horiz-adv-x="500" 
 />
    <glyph glyph-name=".null" horiz-adv-x="0" 
 />
    <glyph glyph-name="nonmarkingreturn" horiz-adv-x="333" 
 />
    <glyph glyph-name="space" unicode=" " horiz-adv-x="213" 
 />
    <glyph glyph-name="exclam" unicode="!" horiz-adv-x="258" 
d="M191 667v-157l-31 -345h-62l-31 345v157h124zM191 110v-110h-124v110h124z" />
    <glyph glyph-name="quotedbl" unicode="&#x22;" horiz-adv-x="349" 
d="M309 653l-25 -211h-69l-26 211h120zM160 653l-26 -211h-68l-26 211h120z" />
    <glyph glyph-name="numbersign" unicode="#" 
d="M33 0v667h334v-667h-334zM40 7h320v653h-320v-653z" />
    <glyph glyph-name="dollar" unicode="$" horiz-adv-x="538" 
d="M304 682q85 -9 130.5 -62t45.5 -143v-6h-120v6q0 67 -56 88v-170l14 -6q82 -30 115 -59q59 -53 59 -138q0 -83 -51.5 -139.5t-136.5 -66.5v-63h-70v62q-92 9 -143 64.5t-51 148.5v18h130q1 -54 17 -78q17 -25 47 -36v185l-13 5l-13 5q-81 32 -117 75t-36 110
q0 55 26 101.5t70 71.5q36 19 83 26v56h70v-55zM304 259v-157q26 9 42 30t16 47q0 50 -58 80zM234 423v141q-49 -19 -49 -69q0 -47 49 -72z" />
    <glyph glyph-name="percent" unicode="%" horiz-adv-x="685" 
d="M541 653l-303 -653h-94l304 653h93zM290 489q0 -83 -32 -127t-93 -44t-93 45t-32 129q0 80 32 124t91 44q60 0 93.5 -45t33.5 -126zM645 164q0 -83 -32 -127t-93 -44t-93 45t-32 129q0 80 32 124t91 44q60 0 93.5 -45t33.5 -126zM123 489q0 -97 42 -97t42 97t-42 97
t-42 -97zM478 164q0 -96 42 -96t42 96q0 97 -42 97t-42 -97z" />
    <glyph glyph-name="ampersand" unicode="&#x26;" horiz-adv-x="540" 
d="M491 351q-7 -108 -60 -201l93 -150h-127l-33 55q-63 -72 -153 -72q-77 0 -127.5 52t-50.5 132q0 81 53 143q15 20 65 62l8 7l-5 9q-48 78 -48 137q0 68 42 111.5t108 43.5q65 0 104 -41t39 -110q0 -100 -93 -178l58 -94q18 54 23 89l1 5h103zM248 448q44 41 44 85
q0 22 -10 35t-27 13t-29 -14.5t-12 -34.5q0 -36 34 -84zM223 280q-68 -60 -68 -112q0 -29 19 -49t46 -20q22 0 39.5 11.5t43.5 41.5z" />
    <glyph glyph-name="quotesingle" unicode="'" horiz-adv-x="200" 
d="M160 653l-26 -211h-68l-26 211h120z" />
    <glyph glyph-name="parenleft" unicode="(" horiz-adv-x="333" 
d="M305 -67h-102q-39 71 -67 156q-41 120 -41 244q0 129 47 263q27 75 61 138h102q-89 -184 -89 -401q0 -216 89 -400z" />
    <glyph glyph-name="parenright" unicode=")" horiz-adv-x="333" 
d="M28 -67q89 187 89 400q0 214 -89 401h101q35 -62 61 -138q48 -133 48 -263q0 -124 -41 -244q-33 -95 -68 -156h-101z" />
    <glyph glyph-name="asterisk" unicode="*" horiz-adv-x="386" 
d="M153 574v93h80v-93l88 29l25 -77l-88 -28l54 -75l-64 -47l-55 75l-55 -75l-64 47l54 75l-88 28l25 77z" />
    <glyph glyph-name="plus" unicode="+" 
d="M33 0v667h334v-667h-334zM40 7h320v653h-320v-653z" />
    <glyph glyph-name="comma" unicode="," horiz-adv-x="225" 
d="M172 119v-97q0 -82 -37 -128q-31 -39 -82 -59v62q33 21 45.5 43t14.5 60h-60v119h119z" />
    <glyph glyph-name="hyphen" unicode="-" horiz-adv-x="307" 
d="M260 302v-113h-213v113h213z" />
    <glyph glyph-name="period" unicode="." horiz-adv-x="225" 
d="M172 119v-119h-119v119h119z" />
    <glyph glyph-name="slash" unicode="/" horiz-adv-x="450" 
d="M450 707l-350 -747h-100l350 747h100z" />
    <glyph glyph-name="zero" unicode="0" horiz-adv-x="520" 
d="M259 667q104 0 165.5 -92t61.5 -247q0 -157 -61.5 -249t-165.5 -92q-106 0 -166 88.5t-60 245.5q0 163 60 254.5t166 91.5zM260 554q-47 0 -73.5 -61t-26.5 -170q0 -106 26.5 -164.5t73.5 -58.5t73 59t26 164q0 110 -26 170.5t-73 60.5z" />
    <glyph glyph-name="one" unicode="1" horiz-adv-x="331" 
d="M243 653v-653h-123v447h-108v91h8q58 3 84.5 27t36.5 83l1 5h101z" />
    <glyph glyph-name="two" unicode="2" horiz-adv-x="448" 
d="M403 117v-117h-395v12q0 127 127 243l57 52q49 44 69.5 81.5t20.5 81.5q0 41 -18 64t-49 23q-37 0 -53.5 -29t-18.5 -97h-117v11q0 109 49 167t141 58q89 0 141 -53t52 -144q0 -68 -29 -121.5t-102 -123.5l-44 -42q-45 -43 -58 -66h227z" />
    <glyph glyph-name="three" unicode="3" horiz-adv-x="466" 
d="M47 444q9 223 190 223q83 0 129 -45q52 -50 52 -134q0 -104 -81 -139q96 -40 96 -159q0 -91 -55.5 -147t-145.5 -56q-104 0 -155.5 59t-53.5 181h123v-5v-4q0 -121 83 -121q35 0 56 25t21 68q0 51 -26.5 72.5t-89.5 23.5v111q5 -1 14 -1q94 0 94 88q0 33 -18 53t-48 20
q-45 0 -59 -43q-9 -24 -11 -70h-115z" />
    <glyph glyph-name="four" unicode="4" horiz-adv-x="464" 
d="M373 653v-397h71v-107h-71v-149h-123v149h-233v135l233 369h123zM250 456l-127 -200h127v200z" />
    <glyph glyph-name="five" unicode="5" horiz-adv-x="477" 
d="M408 653v-113h-212l-21 -117q37 25 87 25q81 0 131.5 -62t50.5 -162q0 -109 -57.5 -173t-155.5 -64q-93 0 -149 55t-62 153h127q3 -28 9 -45q8 -25 28 -39t45 -14q40 0 64 32.5t24 85.5q0 57 -23.5 90t-64.5 33t-65 -43h-118l53 358h309z" />
    <glyph glyph-name="six" unicode="6" horiz-adv-x="493" 
d="M443 486h-116q-12 74 -73 74q-41 0 -64.5 -40t-27.5 -115q48 45 117 45q81 0 132.5 -63t51.5 -162q0 -107 -57.5 -172.5t-152.5 -65.5q-106 0 -163 85t-57 242q0 160 54 255q54 98 172 98q157 0 184 -181zM253 340q-37 0 -59.5 -32.5t-22.5 -87.5q0 -54 23 -88.5
t60 -34.5t59.5 33t22.5 88t-23 88.5t-60 33.5z" />
    <glyph glyph-name="seven" unicode="7" horiz-adv-x="404" 
d="M394 653v-112l-6 -9q-173 -253 -173 -524v-8h-138v10q15 287 191 527h-248v116h374z" />
    <glyph glyph-name="eight" unicode="8" horiz-adv-x="506" 
d="M368 362q105 -46 105 -170q0 -92 -61 -148.5t-159 -56.5t-159 56t-61 147q0 125 107 172q-82 36 -82 131q0 78 57 130q49 44 140 44q88 0 140.5 -46.5t52.5 -125.5q0 -97 -80 -133zM253 560q-34 0 -54.5 -21t-20.5 -55q0 -35 20.5 -56.5t54.5 -21.5t54.5 21.5t20.5 56.5
q0 34 -20.5 55t-54.5 21zM160 198q0 -45 26 -73t67 -28t67 28t26 73t-26 73t-67 28t-67 -28t-26 -73z" />
    <glyph glyph-name="nine" unicode="9" horiz-adv-x="493" 
d="M50 167h116q12 -73 73 -73q84 0 92 154q-47 -44 -117 -44q-81 0 -132.5 62.5t-51.5 161.5q0 107 58 173t152 66q105 0 162.5 -85.5t57.5 -242.5q0 -159 -54 -255q-55 -97 -172 -97q-157 0 -184 180zM240 314q38 0 60 32.5t22 87.5q0 54 -23.5 88.5t-59.5 34.5
q-37 0 -59.5 -33t-22.5 -88q0 -56 22.5 -89t60.5 -33z" />
    <glyph glyph-name="colon" unicode=":" horiz-adv-x="225" 
d="M172 119v-119h-119v119h119zM172 480v-119h-119v119h119z" />
    <glyph glyph-name="semicolon" unicode=";" horiz-adv-x="225" 
d="M172 480v-119h-119v119h119zM172 119v-97q0 -82 -37 -128q-31 -39 -82 -59v62q33 21 45.5 43t14.5 60h-60v119h119z" />
    <glyph glyph-name="less" unicode="&#x3c;" 
d="M33 0v667h334v-667h-334zM40 7h320v653h-320v-653z" />
    <glyph glyph-name="equal" unicode="=" 
d="M33 0v667h334v-667h-334zM40 7h320v653h-320v-653z" />
    <glyph glyph-name="greater" unicode="&#x3e;" 
d="M33 0v667h334v-667h-334zM40 7h320v653h-320v-653z" />
    <glyph glyph-name="question" unicode="?" horiz-adv-x="459" 
d="M47 454q0 2 -0.5 6.5t-0.5 5.5q0 101 50 157.5t140 56.5q83 0 134.5 -50.5t51.5 -132.5q0 -48 -19 -88t-65 -87q-38 -39 -44 -59q-8 -24 -8 -45v-53h-118v53q0 64 15 95q12 22 28 41q10 12 26 31q6 6 18 20q42 47 42 93q0 34 -17.5 54t-46.5 20q-72 0 -72 -112v-6h-114z
M289 110v-110h-124v110h124z" />
    <glyph glyph-name="at" unicode="@" 
d="M33 0v667h334v-667h-334zM40 7h320v653h-320v-653z" />
    <glyph glyph-name="A" unicode="A" horiz-adv-x="504" 
d="M324 667l177 -667h-133l-33 139h-166l-34 -139h-132l176 667h145zM309 251l-33 137q-16 69 -24 126q-7 -54 -25 -126l-32 -137h114z" />
    <glyph glyph-name="B" unicode="B" horiz-adv-x="518" 
d="M60 667h227q97 0 144 -50q45 -48 45 -124q0 -109 -93 -142q108 -41 108 -162q0 -90 -53 -140q-50 -49 -156 -49h-222v667zM187 554v-154h64q50 0 72.5 18.5t22.5 59.5q0 50 -34 66q-20 10 -64 10h-61zM187 290v-177h67q56 0 81.5 22t25.5 69q0 56 -41 75q-23 11 -70 11
h-63z" />
    <glyph glyph-name="C" unicode="C" horiz-adv-x="542" 
d="M518 226q-7 -112 -69 -177.5t-160 -65.5q-122 0 -190.5 92.5t-68.5 255.5q0 164 68.5 258t189.5 94t182 -91q45 -66 48 -153h-124q-17 131 -107 131q-59 0 -93 -64t-34 -175q0 -108 34.5 -171.5t94.5 -63.5q87 0 105 130h124z" />
    <glyph glyph-name="D" unicode="D" horiz-adv-x="546" 
d="M60 667h187q112 0 173 -55q45 -42 70.5 -115.5t25.5 -160.5q0 -89 -25 -162.5t-70 -116.5q-61 -57 -171 -57h-190v667zM187 554v-441h53q71 0 103 42q43 60 43 178q0 131 -50 187q-28 34 -96 34h-53z" />
    <glyph glyph-name="E" unicode="E" horiz-adv-x="486" 
d="M449 667v-113h-262v-144h231v-112h-231v-183h262v-115h-389v667h389z" />
    <glyph glyph-name="F" unicode="F" horiz-adv-x="445" 
d="M435 667v-113h-248v-156h212v-112h-212v-286h-127v667h375z" />
    <glyph glyph-name="G" unicode="G" horiz-adv-x="580" 
d="M533 357v-357h-96q-1 5 -5 52q-65 -69 -153 -69q-114 0 -181.5 94t-67.5 252q0 165 69.5 259.5t191.5 94.5q68 0 122 -29.5t85 -83.5q25 -44 34 -123l1 -7h-128l-1 6q-8 43 -16 61q-31 63 -97 63q-62 0 -96.5 -63t-34.5 -177q0 -109 34.5 -171t96.5 -62q51 0 86.5 42
t39.5 106h-114v112h230z" />
    <glyph glyph-name="H" unicode="H" horiz-adv-x="551" 
d="M491 667v-667h-127v297h-177v-297h-127v667h127v-258h177v258h127z" />
    <glyph glyph-name="I" unicode="I" horiz-adv-x="247" 
d="M187 667v-667h-127v667h127z" />
    <glyph glyph-name="J" unicode="J" horiz-adv-x="427" 
d="M373 667v-470q0 -106 -35 -153q-42 -61 -137 -61q-111 0 -150 72q-24 43 -24 123v76h116v-78q0 -43 11.5 -61.5t39.5 -18.5q30 0 41 20t11 74v477h127z" />
    <glyph glyph-name="K" unicode="K" horiz-adv-x="530" 
d="M509 667l-204 -262l225 -405h-152l-160 299l-31 -39v-260h-127v667h127v-222l172 222h150z" />
    <glyph glyph-name="L" unicode="L" horiz-adv-x="447" 
d="M187 667v-552h240v-115h-367v667h127z" />
    <glyph glyph-name="M" unicode="M" horiz-adv-x="665" 
d="M605 667v-667h-120v294q0 48 8 113q-7 -29 -27 -107l-81 -300h-103l-82 308l-15 54q-2 4 -8 36q0 2 -2 8t-3 10q8 -61 8 -118v-298h-120v667h156l101 -374l3 -13l5 -21q5 -18 9 -49q6 44 15 76l3 12l98 369h155z" />
    <glyph glyph-name="N" unicode="N" horiz-adv-x="557" 
d="M497 667v-667h-116l-157 316q-2 3 -21 44q-15 30 -20 48q4 -53 4 -105v-303h-127v667h115l158 -318q30 -61 42 -93q-5 47 -5 110v301h127z" />
    <glyph glyph-name="O" unicode="O" horiz-adv-x="579" 
d="M290 683q119 0 189 -93t70 -253q0 -163 -70.5 -258.5t-189.5 -95.5q-120 0 -189.5 93.5t-69.5 254.5q0 162 70.5 257t189.5 95zM289 570q-61 0 -95 -63.5t-34 -179.5q0 -110 33.5 -170.5t94.5 -60.5q62 0 96.5 64t34.5 178q0 110 -34 171t-96 61z" />
    <glyph glyph-name="P" unicode="P" horiz-adv-x="491" 
d="M60 667h192q80 0 128 -31q85 -57 85 -178q0 -68 -27.5 -119.5t-74.5 -74.5q-47 -22 -117 -22h-59v-242h-127v667zM187 554v-200h34q55 0 77 14q37 24 37 88q0 61 -37 84q-27 14 -77 14h-34z" />
    <glyph glyph-name="Q" unicode="Q" horiz-adv-x="579" 
d="M404 11q-52 -28 -116 -28q-119 0 -188.5 93.5t-69.5 254.5q0 162 70 257t189 95q120 0 190 -93t70 -253t-70 -258l51 -69l-81 -61zM333 107l-58 78l81 60l41 -56q22 63 22 149q0 109 -34 170.5t-95 61.5q-62 0 -96 -63.5t-34 -179.5q0 -110 33.5 -170.5t94.5 -60.5
q20 0 45 11z" />
    <glyph glyph-name="R" unicode="R" horiz-adv-x="517" 
d="M60 667h186q61 0 94 -7t61 -26q37 -25 58.5 -69t21.5 -94q0 -113 -94 -158q52 -17 70.5 -52t17.5 -115v-31q0 -74 12 -115h-132q-8 23 -8 61q0 33 1 59q0 6 0.5 15.5t0.5 13.5q0 64 -26.5 88.5t-95.5 24.5h-40v-262h-127v667zM187 554v-180h45q53 0 73 9q46 22 46 84
q0 50 -31 69q-17 11 -34 14.5t-57 3.5h-42z" />
    <glyph glyph-name="S" unicode="S" horiz-adv-x="498" 
d="M462 471h-121v6q0 42 -24.5 67.5t-64.5 25.5q-37 0 -61 -21t-24 -54q0 -55 70 -82l77 -29q85 -32 120 -74q39 -48 39 -118q0 -85 -54 -142q-61 -67 -171 -67q-113 0 -170.5 59.5t-55.5 173.5h130q0 -44 9 -63q26 -57 90 -57q39 0 65.5 24t26.5 59q0 59 -73 87l-80 31
q-81 32 -117 75t-36 110q0 91 60 146t158 55t152.5 -54.5t54.5 -151.5v-6z" />
    <glyph glyph-name="T" unicode="T" horiz-adv-x="456" 
d="M439 667v-113h-148v-554h-127v554h-147v113h422z" />
    <glyph glyph-name="U" unicode="U" horiz-adv-x="527" 
d="M474 667v-437q0 -98 -25 -149q-23 -46 -71 -72t-111 -26q-68 0 -117.5 25.5t-71.5 72.5q-25 56 -25 149v437h127v-438q0 -45 6 -72q6 -29 26.5 -45t51.5 -16q30 0 50.5 16t26.5 45q6 27 6 72v438h127z" />
    <glyph glyph-name="V" unicode="V" horiz-adv-x="477" 
d="M474 667l-180 -667h-112l-179 667h132l84 -335q8 -32 13 -57l7 -36q0 -2 2 -14q10 56 17 85l7 26l83 331h126z" />
    <glyph glyph-name="W" unicode="W" horiz-adv-x="684" 
d="M681 667l-159 -667h-101l-67 315q-9 41 -13 87q-3 -42 -13 -87l-70 -315h-101l-154 667h129l59 -285q1 -5 3 -14.5t4.5 -23t3.5 -20.5q6 -39 8 -60q5 45 9 65q2 13 6 32t5 24l65 282h94l62 -288l5 -22q6 -25 13 -77l3 -22q2 25 9 68q5 37 10 57l60 284h130z" />
    <glyph glyph-name="X" unicode="X" horiz-adv-x="496" 
d="M467 667l-151 -314l170 -353h-146l-61 142q-21 47 -29 84q-7 -22 -11 -34q-16 -40 -21 -51l-62 -141h-146l171 353l-150 314h136l49 -107l14 -30q12 -26 20 -51q10 37 34 88l45 100h138z" />
    <glyph glyph-name="Y" unicode="Y" horiz-adv-x="482" 
d="M479 667l-173 -395v-272h-127v272l-176 395h132l76 -183q22 -54 30 -95q8 40 32 98l74 180h132z" />
    <glyph glyph-name="Z" unicode="Z" horiz-adv-x="460" 
d="M440 667v-113l-267 -439h267v-115h-420v115l270 439h-252v113h402z" />
    <glyph glyph-name="bracketleft" unicode="[" horiz-adv-x="333" 
d="M305 634h-85v-601h85v-100h-202v801h202v-100z" />
    <glyph glyph-name="backslash" unicode="\" horiz-adv-x="450" 
d="M0 707h99l351 -747h-101z" />
    <glyph glyph-name="bracketright" unicode="]" horiz-adv-x="333" 
d="M27 634v100h203v-801h-203v100h86v601h-86z" />
    <glyph glyph-name="asciicircum" unicode="^" 
d="M33 0v667h334v-667h-334zM40 7h320v653h-320v-653z" />
    <glyph glyph-name="underscore" unicode="_" horiz-adv-x="500" 
d="M0 -134h500v-113h-500v113z" />
    <glyph glyph-name="grave" unicode="`" horiz-adv-x="274" 
d="M176 680l32 -130h-76l-65 130h109z" />
    <glyph glyph-name="a" unicode="a" horiz-adv-x="434" 
d="M394 0h-112q-7 15 -7 29q-43 -42 -103 -42q-66 0 -107.5 41t-41.5 106q0 77 58 121q20 15 40.5 23t67.5 19q47 10 65 23.5t18 36.5q0 19 -14.5 31t-36.5 12q-58 0 -59 -72h-112v12q0 72 46.5 114.5t126.5 42.5q86 0 130 -50q32 -36 32 -121v-244v-18q0 -32 9 -64z
M271 223l-11 -3q-5 -1 -11 -2.5t-9.5 -2.5t-5.5 -1q-46 -11 -63 -22q-29 -18 -29 -54q0 -23 14.5 -36.5t38.5 -13.5q26 0 45.5 16.5t24.5 42.5q6 24 6 76z" />
    <glyph glyph-name="b" unicode="b" horiz-adv-x="460" 
d="M53 667h116v-219q42 45 99 45q74 0 120 -69.5t46 -181.5q0 -118 -44.5 -186.5t-120.5 -68.5q-59 0 -104 48v-35h-112v667zM315 243q0 69 -20 108.5t-54 39.5q-35 0 -55.5 -40t-20.5 -110t20 -111.5t54 -41.5q36 0 56 41t20 114z" />
    <glyph glyph-name="c" unicode="c" horiz-adv-x="439" 
d="M419 176q-8 -89 -60 -141t-135 -52q-92 0 -145 68t-53 186q0 121 53 190.5t145 69.5q82 0 135 -53t60 -140h-120q-5 42 -25 66.5t-49 24.5q-38 0 -59 -40.5t-21 -113.5q0 -74 21.5 -115t59.5 -41q60 0 73 91h120z" />
    <glyph glyph-name="d" unicode="d" horiz-adv-x="460" 
d="M407 667v-667h-112v35q-45 -48 -104 -48q-76 0 -120.5 68.5t-44.5 186.5q0 113 46 182t120 69q57 0 99 -45v219h116zM145 243q0 -73 20 -114t56 -41q34 0 54 41.5t20 111.5t-20.5 110t-55.5 40q-34 0 -54 -40t-20 -108z" />
    <glyph glyph-name="e" unicode="e" horiz-adv-x="445" 
d="M415 153q-6 -76 -58 -123t-131 -47q-92 0 -146 68t-54 184q0 119 53.5 190.5t143.5 71.5q94 0 146 -71q51 -71 51 -203v-20h-275v-5q0 -50 22 -81.5t57 -31.5q55 0 71 68h120zM298 300q-12 100 -74 100q-32 0 -52.5 -26.5t-24.5 -73.5h151z" />
    <glyph glyph-name="f" unicode="f" horiz-adv-x="236" 
d="M239 667v-96q-5 0 -12 0.5t-11 0.5q-27 0 -37 -10t-10 -38v-44h70v-87h-70v-393h-116v393h-50v87h50v41q0 46 5 67t20 40q32 43 118 43q19 0 43 -4z" />
    <glyph glyph-name="g" unicode="g" horiz-adv-x="464" 
d="M411 480v-440q0 -89 -33 -134q-46 -66 -152 -66q-85 0 -133 41t-49 114h123q6 -29 20 -42t41 -13q35 0 51 20.5t16 65.5v40q-35 -42 -98 -42q-73 0 -118 53q-52 59 -52 171q0 114 46.5 179.5t128.5 65.5q63 0 102 -49v36h107zM146 257q0 -61 20 -96t54 -35q35 0 55 35
t20 96q0 63 -20 98.5t-55 35.5t-54.5 -35.5t-19.5 -98.5z" />
    <glyph glyph-name="h" unicode="h" horiz-adv-x="450" 
d="M169 667v-214q41 41 96 41q70 0 106 -48q29 -40 29 -124v-322h-116v315q0 77 -53 77q-62 0 -62 -93v-299h-116v667h116z" />
    <glyph glyph-name="i" unicode="i" horiz-adv-x="223" 
d="M169 480v-480h-116v480h116zM169 667v-108h-116v108h116z" />
    <glyph glyph-name="j" unicode="j" horiz-adv-x="223" 
d="M169 480v-489q0 -69 -22 -101q-32 -42 -105 -42q-19 0 -43 4v96q14 -2 17 -2q22 0 29.5 10t7.5 38v486h116zM169 667v-108h-116v108h116z" />
    <glyph glyph-name="k" unicode="k" horiz-adv-x="432" 
d="M169 667v-327l106 140h129l-135 -174l160 -306h-132l-109 217l-19 -25v-192h-116v667h116z" />
    <glyph glyph-name="l" unicode="l" horiz-adv-x="223" 
d="M169 667v-667h-116v667h116z" />
    <glyph glyph-name="m" unicode="m" horiz-adv-x="680" 
d="M53 480h110v-38q37 51 104 51q66 0 107 -54q41 54 115 54q69 0 105 -40t36 -117v-336h-116v288q0 57 -6 73q-10 31 -46 31q-34 0 -48 -25t-14 -82v-285h-116v289q0 49 -5 67q-11 36 -50 36q-60 0 -60 -106v-286h-116v480z" />
    <glyph glyph-name="n" unicode="n" horiz-adv-x="449" 
d="M53 480h110v-39q37 52 103 52q75 0 110 -57q23 -35 23 -108v-328h-116v280v33q0 79 -52 79q-21 0 -36.5 -13.5t-20.5 -36.5q-5 -28 -5 -77v-265h-116v480z" />
    <glyph glyph-name="o" unicode="o" horiz-adv-x="464" 
d="M27 241q0 119 54.5 187.5t150.5 68.5t150.5 -68.5t54.5 -188.5q0 -119 -55 -188t-150 -69t-150 69t-55 189zM146 244q0 -74 23 -116.5t63 -42.5t63 42.5t23 116.5q0 70 -23 110.5t-63 40.5t-63 -40.5t-23 -110.5z" />
    <glyph glyph-name="p" unicode="p" horiz-adv-x="460" 
d="M53 -147v627h112v-35q45 48 104 48q76 0 120.5 -68.5t44.5 -186.5q0 -113 -46 -182t-120 -69q-57 0 -99 45v-179h-116zM315 237q0 73 -20 114t-56 41q-34 0 -54 -41.5t-20 -111.5t20.5 -110t55.5 -40q34 0 54 40t20 108z" />
    <glyph glyph-name="q" unicode="q" horiz-adv-x="460" 
d="M407 -147h-116v179q-42 -45 -99 -45q-74 0 -119.5 69t-45.5 182q0 118 44 186.5t120 68.5q59 0 104 -48v35h112v-627zM146 237q0 -69 19.5 -108.5t53.5 -39.5q35 0 55.5 40t20.5 110t-20 111.5t-54 41.5q-35 0 -55 -41t-20 -114z" />
    <glyph glyph-name="r" unicode="r" horiz-adv-x="287" 
d="M53 480h109v-51q34 65 97 65q10 0 18 -2v-104l-11 1q-33 0 -52.5 -13t-31.5 -42q-13 -33 -13 -92v-242h-116v480z" />
    <glyph glyph-name="s" unicode="s" horiz-adv-x="399" 
d="M360 338h-112q-2 35 -15 50.5t-40 15.5q-21 0 -34 -11t-13 -29q0 -20 14.5 -31t59.5 -27q65 -22 101 -49q54 -41 54 -116q0 -72 -48 -115t-128 -43q-87 0 -133 43t-46 123v5h118q1 -78 64 -78q25 0 41 14.5t16 37.5q0 24 -15.5 38.5t-64.5 33.5q-73 29 -94 43
q-55 35 -55 105q0 68 46 108.5t122 40.5q79 0 120.5 -40.5t41.5 -118.5z" />
    <glyph glyph-name="t" unicode="t" horiz-adv-x="257" 
d="M175 630v-150h62v-87h-62v-235v-19q0 -52 43 -52h13l6 1v-90q-38 -5 -59 -5q-88 0 -109 54q-10 26 -10 79v267h-49v87h49v150h116z" />
    <glyph glyph-name="u" unicode="u" horiz-adv-x="449" 
d="M396 480v-480h-110v39q-36 -52 -104 -52q-64 0 -98 40.5t-34 116.5v336h116v-287q0 -53 5 -72q12 -33 47 -33q22 0 38 15t20 39t4 83v255h116z" />
    <glyph glyph-name="v" unicode="v" horiz-adv-x="370" 
d="M367 480l-125 -480h-116l-123 480h114l49 -198q6 -23 8 -39l8 -54l3 -14l1 12q9 55 19 101l48 192h114z" />
    <glyph glyph-name="w" unicode="w" horiz-adv-x="566" 
d="M563 480l-117 -480h-106l-47 231l-3 17q-5 20 -6 41l-2 -10l-2 -16q-1 -7 -6 -32l-47 -231h-106l-117 480h113l45 -218q4 -22 7 -43q4 -27 5 -31q0 3 0.5 6.5t0.5 4.5l3 22l4 23v2q1 3 2 7.5t2 9.5l44 217h106l43 -213q3 -11 5 -27q4 -16 4 -22l3 -21q0 -1 0.5 -2.5
t0.5 -3t0.5 -4t0.5 -4.5q3 36 9 63l6 26l42 208h113z" />
    <glyph glyph-name="x" unicode="x" horiz-adv-x="409" 
d="M383 480l-115 -230l135 -250h-126l-46 92q-19 37 -26 67q-2 -10 -7 -23q-2 -6 -6 -14q-4 -11 -5 -11l-7 -16l-47 -95h-126l133 250l-113 230h120l36 -77q11 -21 18 -51l4 -13q10 38 23 67l35 74h120z" />
    <glyph glyph-name="y" unicode="y" horiz-adv-x="391" 
d="M387 480l-147 -530q-30 -103 -134 -102l-45 1h-8v91h19q35 0 48 10.5t13 38.5q0 16 -4 32l-126 459h126l50 -211l7 -23q10 -43 11 -63q5 40 11 64l7 28l50 205h122z" />
    <glyph glyph-name="z" unicode="z" horiz-adv-x="366" 
d="M336 480v-98l-182 -282h182v-100h-313v98l179 282h-163v100h297z" />
    <glyph glyph-name="braceleft" unicode="{" 
d="M33 0v667h334v-667h-334zM40 7h320v653h-320v-653z" />
    <glyph glyph-name="bar" unicode="|" 
d="M33 0v667h334v-667h-334zM40 7h320v653h-320v-653z" />
    <glyph glyph-name="braceright" unicode="}" 
d="M33 0v667h334v-667h-334zM40 7h320v653h-320v-653z" />
    <glyph glyph-name="asciitilde" unicode="~" 
d="M33 0v667h334v-667h-334zM40 7h320v653h-320v-653z" />
    <glyph glyph-name="nbspace" unicode="&#xa0;" horiz-adv-x="213" 
 />
    <glyph glyph-name="exclamdown" unicode="&#xa1;" horiz-adv-x="258" 
d="M67 0v157l30 345h63l31 -345v-157h-124zM67 557v110h124v-110h-124z" />
    <glyph glyph-name="cent" unicode="&#xa2;" horiz-adv-x="479" 
d="M282 591q68 -14 109.5 -64t47.5 -126h-120q-7 53 -37 77v-284q29 23 37 79h120q-7 -78 -48.5 -128.5t-108.5 -61.5v-66h-72v66q-76 11 -120 78.5t-44 172.5q0 109 43.5 176.5t120.5 80.5v62h72v-62zM210 193v288q-45 -34 -45 -143t45 -145z" />
    <glyph glyph-name="sterling" unicode="&#xa3;" horiz-adv-x="514" 
d="M467 435h-122l-1 11q-1 60 -17 84q-21 33 -62 33q-35 0 -56 -23.5t-21 -62.5q0 -41 25 -83q20 -34 25 -49h107v-69h-97q0 -5 0.5 -10t0.5 -6q0 -86 -84 -149q36 10 60 10q14 0 57 -7q54 -9 74 -9q38 0 65 22l46 -116q-47 -31 -111 -31q-34 0 -81 11q-63 13 -80 13
q-31 0 -64 -17l-83 124l11 8q41 33 57.5 59t16.5 57q0 14 -6 41h-87v69h56q-41 77 -41 132q0 83 60 139.5t149 56.5q98 0 151 -60t52 -171v-7z" />
    <glyph glyph-name="currency" unicode="&#xa4;" 
d="M33 0v667h334v-667h-334zM40 7h320v653h-320v-653z" />
    <glyph glyph-name="yen" unicode="&#xa5;" horiz-adv-x="529" 
d="M400 433h82v-70h-113l-25 -58h131v-70h-146v-235h-127v235h-146v70h132l-26 58h-113v70h82l-104 234h132l76 -183q20 -51 27 -82l3 -12q9 42 32 97l74 180h131z" />
    <glyph glyph-name="section" unicode="&#xa7;" 
d="M33 0v667h334v-667h-334zM40 7h320v653h-320v-653z" />
    <glyph glyph-name="dieresis" unicode="&#xa8;" horiz-adv-x="349" 
d="M282 680v-131h-82v131h82zM148 680v-131h-81v131h81z" />
    <glyph glyph-name="copyright" unicode="&#xa9;" 
d="M33 0v667h334v-667h-334zM40 7h320v653h-320v-653z" />
    <glyph glyph-name="ordfeminine" unicode="&#xaa;" 
d="M33 0v667h334v-667h-334zM40 7h320v653h-320v-653z" />
    <glyph glyph-name="guillemotleft" unicode="&#xab;" horiz-adv-x="409" 
d="M359 447v-126l-85 -80l85 -78v-126l-143 132v145zM194 447v-126l-86 -80l86 -78v-127l-144 133v146z" />
    <glyph glyph-name="logicalnot" unicode="&#xac;" 
d="M33 0v667h334v-667h-334zM40 7h320v653h-320v-653z" />
    <glyph glyph-name="registered" unicode="&#xae;" 
d="M33 0v667h334v-667h-334zM40 7h320v653h-320v-653z" />
    <glyph glyph-name="macron" unicode="&#xaf;" 
d="M33 0v667h334v-667h-334zM40 7h320v653h-320v-653z" />
    <glyph glyph-name="degree" unicode="&#xb0;" 
d="M33 0v667h334v-667h-334zM40 7h320v653h-320v-653z" />
    <glyph glyph-name="plusminus" unicode="&#xb1;" 
d="M33 0v667h334v-667h-334zM40 7h320v653h-320v-653z" />
    <glyph glyph-name="acute" unicode="&#xb4;" horiz-adv-x="274" 
d="M99 680h109l-66 -130h-75z" />
    <glyph glyph-name="mu" unicode="&#xb5;" 
d="M33 0v667h334v-667h-334zM40 7h320v653h-320v-653z" />
    <glyph glyph-name="paragraph" unicode="&#xb6;" 
d="M33 0v667h334v-667h-334zM40 7h320v653h-320v-653z" />
    <glyph glyph-name="periodcentered" unicode="&#xb7;" horiz-adv-x="225" 
d="M172 397v-118h-119v118h119z" />
    <glyph glyph-name="cedilla" unicode="&#xb8;" 
d="M33 0v667h334v-667h-334zM40 7h320v653h-320v-653z" />
    <glyph glyph-name="ordmasculine" unicode="&#xba;" 
d="M33 0v667h334v-667h-334zM40 7h320v653h-320v-653z" />
    <glyph glyph-name="guillemotright" unicode="&#xbb;" horiz-adv-x="409" 
d="M50 37v126l85 79l-85 78v127l143 -133v-145zM215 36v126l85 80l-85 79v126l144 -133v-146z" />
    <glyph glyph-name="questiondown" unicode="&#xbf;" horiz-adv-x="459" 
d="M412 213v-13q0 -101 -50 -157t-139 -56q-90 0 -138 53q-49 57 -49 132q0 85 85 173q36 38 44 59q8 22 8 45v52h118v-52q0 -63 -15 -95q-10 -20 -28 -41q-10 -12 -26 -31q-2 -3 -9 -10.5t-9 -9.5q-43 -50 -43 -93q0 -32 18.5 -53t46.5 -21q71 0 71 111v7h115zM170 557v110
h124v-110h-124z" />
    <glyph glyph-name="Agrave" unicode="&#xc0;" horiz-adv-x="504" 
d="M324 667l177 -667h-133l-33 139h-166l-34 -139h-132l176 667h145zM309 251l-33 137q-16 69 -24 126q-7 -54 -25 -126l-32 -137h114zM254 864l32 -130h-76l-65 130h109z" />
    <glyph glyph-name="Aacute" unicode="&#xc1;" horiz-adv-x="504" 
d="M324 667l177 -667h-133l-33 139h-166l-34 -139h-132l176 667h145zM309 251l-33 137q-16 69 -24 126q-7 -54 -25 -126l-32 -137h114zM252 864h109l-66 -130h-75z" />
    <glyph glyph-name="Acircumflex" unicode="&#xc2;" horiz-adv-x="504" 
d="M324 667l177 -667h-133l-33 139h-166l-34 -139h-132l176 667h145zM309 251l-33 137q-16 69 -24 126q-7 -54 -25 -126l-32 -137h114zM127 733l66 131h119l67 -131h-92l-35 67l-34 -67h-91z" />
    <glyph glyph-name="Atilde" unicode="&#xc3;" horiz-adv-x="504" 
d="M324 667l177 -667h-133l-33 139h-166l-34 -139h-132l176 667h145zM309 251l-33 137q-16 69 -24 126q-7 -54 -25 -126l-32 -137h114zM386 842q0 -3 0.5 -8.5t0.5 -6.5q0 -43 -19 -68t-51 -25q-27 0 -82 24q-20 9 -36 9q-22 0 -25 -27h-57v12q0 42 22 69t57 27q20 0 58 -16
q37 -16 52 -16q19 0 25 26h55z" />
    <glyph glyph-name="Adieresis" unicode="&#xc4;" horiz-adv-x="504" 
d="M324 667l177 -667h-133l-33 139h-166l-34 -139h-132l176 667h145zM309 251l-33 137q-16 69 -24 126q-7 -54 -25 -126l-32 -137h114zM359 864v-131h-82v131h82zM225 864v-131h-81v131h81z" />
    <glyph glyph-name="Aring" unicode="&#xc5;" horiz-adv-x="504" 
d="M324 667l177 -667h-133l-33 139h-166l-34 -139h-132l176 667h145zM309 251l-33 137q-16 69 -24 126q-7 -54 -25 -126l-32 -137h114zM251 896q34 0 59 -25.5t25 -60.5q0 -34 -25.5 -59.5t-59.5 -25.5t-59 25t-25 60q0 36 24.5 61t60.5 25zM250 846q-14 0 -24 -10.5
t-10 -24.5q0 -15 10 -25t24 -10t24.5 10.5t10.5 25.5q0 14 -10.5 24t-24.5 10z" />
    <glyph glyph-name="AE" unicode="&#xc6;" horiz-adv-x="802" 
d="M765 667v-113h-261v-144h230v-112h-230v-183h261v-115h-388v140h-193l-48 -140h-136l247 667h518zM377 554h-53l-103 -302h156v302z" />
    <glyph glyph-name="Ccedilla" unicode="&#xc7;" horiz-adv-x="542" 
d="M317 -15l-11 -34q32 -4 50.5 -23t18.5 -47q0 -46 -36.5 -77t-89.5 -31q-29 0 -65 12l19 60q25 -7 39 -7q20 0 32 9t12 23q0 13 -11 22t-28 9q-12 0 -28 -8l30 93q-104 16 -161.5 106.5t-57.5 238.5q0 164 68.5 258t189.5 94t182 -91q45 -66 48 -153h-124
q-17 131 -107 131q-59 0 -93 -64t-34 -175q0 -108 34.5 -171t94.5 -63q87 0 105 129h124q-7 -103 -60.5 -167.5t-140.5 -73.5z" />
    <glyph glyph-name="Egrave" unicode="&#xc8;" horiz-adv-x="486" 
d="M449 667v-113h-262v-144h231v-112h-231v-183h262v-115h-389v667h389zM261 864l32 -130h-76l-65 130h109z" />
    <glyph glyph-name="Eacute" unicode="&#xc9;" horiz-adv-x="486" 
d="M449 667v-113h-262v-144h231v-112h-231v-183h262v-115h-389v667h389zM249 864h109l-66 -130h-75z" />
    <glyph glyph-name="Ecircumflex" unicode="&#xca;" horiz-adv-x="486" 
d="M449 667v-113h-262v-144h231v-112h-231v-183h262v-115h-389v667h389zM123 733l66 131h119l67 -131h-92l-35 67l-34 -67h-91z" />
    <glyph glyph-name="Edieresis" unicode="&#xcb;" horiz-adv-x="486" 
d="M449 667v-113h-262v-144h231v-112h-231v-183h262v-115h-389v667h389zM358 864v-131h-82v131h82zM224 864v-131h-81v131h81z" />
    <glyph glyph-name="Igrave" unicode="&#xcc;" horiz-adv-x="247" 
d="M187 667v-667h-127v667h127zM169 864l32 -130h-76l-65 130h109z" />
    <glyph glyph-name="Iacute" unicode="&#xcd;" horiz-adv-x="247" 
d="M187 667v-667h-127v667h127zM115 864h109l-66 -130h-75z" />
    <glyph glyph-name="Icircumflex" unicode="&#xce;" horiz-adv-x="247" 
d="M187 667v-667h-127v667h127zM-2 733l66 131h119l67 -131h-92l-35 67l-34 -67h-91z" />
    <glyph glyph-name="Idieresis" unicode="&#xcf;" horiz-adv-x="247" 
d="M187 667v-667h-127v667h127zM231 864v-131h-82v131h82zM97 864v-131h-81v131h81z" />
    <glyph glyph-name="Ntilde" unicode="&#xd1;" horiz-adv-x="557" 
d="M497 667v-667h-116l-157 316q-2 3 -21 44q-15 30 -20 48q4 -53 4 -105v-303h-127v667h115l158 -318q30 -61 42 -93q-5 47 -5 110v301h127zM405 842q0 -3 0.5 -8.5t0.5 -6.5q0 -43 -19 -68t-51 -25q-27 0 -82 24q-19 9 -36 9q-22 0 -25 -27h-57v12q0 42 22 69t57 27
q20 0 58 -16q37 -16 52 -16q19 0 25 26h55z" />
    <glyph glyph-name="Ograve" unicode="&#xd2;" horiz-adv-x="579" 
d="M290 683q119 0 189 -93t70 -253q0 -163 -70.5 -258.5t-189.5 -95.5q-120 0 -189.5 93.5t-69.5 254.5q0 162 70.5 257t189.5 95zM289 570q-61 0 -95 -63.5t-34 -179.5q0 -110 33.5 -170.5t94.5 -60.5q62 0 96.5 64t34.5 178q0 110 -34 171t-96 61zM290 864l32 -130h-76
l-65 130h109z" />
    <glyph glyph-name="Oacute" unicode="&#xd3;" horiz-adv-x="579" 
d="M290 683q119 0 189 -93t70 -253q0 -163 -70.5 -258.5t-189.5 -95.5q-120 0 -189.5 93.5t-69.5 254.5q0 162 70.5 257t189.5 95zM289 570q-61 0 -95 -63.5t-34 -179.5q0 -110 33.5 -170.5t94.5 -60.5q62 0 96.5 64t34.5 178q0 110 -34 171t-96 61zM279 864h109l-66 -130
h-75z" />
    <glyph glyph-name="Ocircumflex" unicode="&#xd4;" horiz-adv-x="579" 
d="M290 683q119 0 189 -93t70 -253q0 -163 -70.5 -258.5t-189.5 -95.5q-120 0 -189.5 93.5t-69.5 254.5q0 162 70.5 257t189.5 95zM289 570q-61 0 -95 -63.5t-34 -179.5q0 -110 33.5 -170.5t94.5 -60.5q62 0 96.5 64t34.5 178q0 110 -34 171t-96 61zM161 733l66 131h119
l67 -131h-92l-35 67l-34 -67h-91z" />
    <glyph glyph-name="Otilde" unicode="&#xd5;" horiz-adv-x="579" 
d="M290 683q119 0 189 -93t70 -253q0 -163 -70.5 -258.5t-189.5 -95.5q-120 0 -189.5 93.5t-69.5 254.5q0 162 70.5 257t189.5 95zM289 570q-61 0 -95 -63.5t-34 -179.5q0 -110 33.5 -170.5t94.5 -60.5q62 0 96.5 64t34.5 178q0 110 -34 171t-96 61zM418 842q0 -3 0.5 -8.5
t0.5 -6.5q0 -43 -19 -68t-51 -25q-27 0 -82 24q-19 9 -36 9q-22 0 -25 -27h-57v12q0 42 22 69t57 27q20 0 58 -16q37 -16 52 -16q19 0 25 26h55z" />
    <glyph glyph-name="Odieresis" unicode="&#xd6;" horiz-adv-x="579" 
d="M290 683q119 0 189 -93t70 -253q0 -163 -70.5 -258.5t-189.5 -95.5q-120 0 -189.5 93.5t-69.5 254.5q0 162 70.5 257t189.5 95zM289 570q-61 0 -95 -63.5t-34 -179.5q0 -110 33.5 -170.5t94.5 -60.5q62 0 96.5 64t34.5 178q0 110 -34 171t-96 61zM390 864v-131h-82v131
h82zM256 864v-131h-81v131h81z" />
    <glyph glyph-name="Oslash" unicode="&#xd8;" horiz-adv-x="579" 
d="M481 587q68 -98 68 -250q0 -163 -70.5 -258.5t-189.5 -95.5q-80 0 -141 44l-37 -61l-60 36l46 77q-67 95 -67 252q0 161 70 256.5t188 95.5q81 0 142 -44l37 62l60 -35zM405 459l-194 -326q33 -37 77 -37q61 0 96 63.5t35 176.5q0 66 -14 123zM173 207l195 327
q-34 36 -79 36q-61 0 -95 -63.5t-34 -177.5q0 -74 13 -122z" />
    <glyph glyph-name="Ugrave" unicode="&#xd9;" horiz-adv-x="527" 
d="M474 667v-437q0 -98 -25 -149q-23 -46 -71 -72t-111 -26q-68 0 -117.5 25.5t-71.5 72.5q-25 56 -25 149v437h127v-438q0 -45 6 -72q6 -29 26.5 -45t51.5 -16q30 0 50.5 16t26.5 45q6 27 6 72v438h127zM267 864l32 -130h-76l-65 130h109z" />
    <glyph glyph-name="Uacute" unicode="&#xda;" horiz-adv-x="527" 
d="M474 667v-437q0 -98 -25 -149q-23 -46 -71 -72t-111 -26q-68 0 -117.5 25.5t-71.5 72.5q-25 56 -25 149v437h127v-438q0 -45 6 -72q6 -29 26.5 -45t51.5 -16q30 0 50.5 16t26.5 45q6 27 6 72v438h127zM257 864h109l-66 -130h-75z" />
    <glyph glyph-name="Ucircumflex" unicode="&#xdb;" horiz-adv-x="527" 
d="M474 667v-437q0 -98 -25 -149q-23 -46 -71 -72t-111 -26q-68 0 -117.5 25.5t-71.5 72.5q-25 56 -25 149v437h127v-438q0 -45 6 -72q6 -29 26.5 -45t51.5 -16q30 0 50.5 16t26.5 45q6 27 6 72v438h127zM132 733l66 131h119l67 -131h-92l-35 67l-34 -67h-91z" />
    <glyph glyph-name="Udieresis" unicode="&#xdc;" horiz-adv-x="527" 
d="M474 667v-437q0 -98 -25 -149q-23 -46 -71 -72t-111 -26q-68 0 -117.5 25.5t-71.5 72.5q-25 56 -25 149v437h127v-438q0 -45 6 -72q6 -29 26.5 -45t51.5 -16q30 0 50.5 16t26.5 45q6 27 6 72v438h127zM366 864v-131h-82v131h82zM232 864v-131h-81v131h81z" />
    <glyph glyph-name="germandbls" unicode="&#xdf;" horiz-adv-x="466" 
d="M53 0v496q0 177 173 177q77 0 123 -41t46 -110q0 -84 -68 -111q55 -15 84 -65.5t29 -129.5q0 -109 -45 -169t-125 -60q-24 0 -52 7v94h13q35 0 52 13q41 30 41 112q0 67 -27 103t-79 37v85q65 8 65 73q0 30 -15.5 47.5t-41.5 17.5q-30 0 -43.5 -20t-13.5 -66v-490h-116z
" />
    <glyph glyph-name="agrave" unicode="&#xe0;" horiz-adv-x="434" 
d="M394 0h-112q-7 15 -7 29q-43 -42 -103 -42q-66 0 -107.5 41t-41.5 106q0 77 58 121q20 15 40.5 23t67.5 19q47 10 65 23.5t18 36.5q0 19 -14.5 31t-36.5 12q-58 0 -59 -72h-112v12q0 72 46.5 114.5t126.5 42.5q86 0 130 -50q32 -36 32 -121v-244v-18q0 -32 9 -64z
M271 223l-11 -3q-5 -1 -11 -2.5t-9.5 -2.5t-5.5 -1q-46 -11 -63 -22q-29 -18 -29 -54q0 -23 14.5 -36.5t38.5 -13.5q26 0 45.5 16.5t24.5 42.5q6 24 6 76zM229 680l32 -130h-76l-65 130h109z" />
    <glyph glyph-name="aacute" unicode="&#xe1;" horiz-adv-x="434" 
d="M394 0h-112q-7 15 -7 29q-43 -42 -103 -42q-66 0 -107.5 41t-41.5 106q0 77 58 121q20 15 40.5 23t67.5 19q47 10 65 23.5t18 36.5q0 19 -14.5 31t-36.5 12q-58 0 -59 -72h-112v12q0 72 46.5 114.5t126.5 42.5q86 0 130 -50q32 -36 32 -121v-244v-18q0 -32 9 -64z
M271 223l-11 -3q-5 -1 -11 -2.5t-9.5 -2.5t-5.5 -1q-46 -11 -63 -22q-29 -18 -29 -54q0 -23 14.5 -36.5t38.5 -13.5q26 0 45.5 16.5t24.5 42.5q6 24 6 76zM218 680h109l-66 -130h-75z" />
    <glyph glyph-name="acircumflex" unicode="&#xe2;" horiz-adv-x="434" 
d="M394 0h-112q-7 15 -7 29q-43 -42 -103 -42q-66 0 -107.5 41t-41.5 106q0 77 58 121q20 15 40.5 23t67.5 19q47 10 65 23.5t18 36.5q0 19 -14.5 31t-36.5 12q-58 0 -59 -72h-112v12q0 72 46.5 114.5t126.5 42.5q86 0 130 -50q32 -36 32 -121v-244v-18q0 -32 9 -64z
M271 223l-11 -3q-5 -1 -11 -2.5t-9.5 -2.5t-5.5 -1q-46 -11 -63 -22q-29 -18 -29 -54q0 -23 14.5 -36.5t38.5 -13.5q26 0 45.5 16.5t24.5 42.5q6 24 6 76zM96 549l66 131h119l67 -131h-92l-35 67l-34 -67h-91z" />
    <glyph glyph-name="atilde" unicode="&#xe3;" horiz-adv-x="434" 
d="M394 0h-112q-7 15 -7 29q-43 -42 -103 -42q-66 0 -107.5 41t-41.5 106q0 77 58 121q20 15 40.5 23t67.5 19q47 10 65 23.5t18 36.5q0 19 -14.5 31t-36.5 12q-58 0 -59 -72h-112v12q0 72 46.5 114.5t126.5 42.5q86 0 130 -50q32 -36 32 -121v-244v-18q0 -32 9 -64z
M271 223l-11 -3q-5 -1 -11 -2.5t-9.5 -2.5t-5.5 -1q-46 -11 -63 -22q-29 -18 -29 -54q0 -23 14.5 -36.5t38.5 -13.5q26 0 45.5 16.5t24.5 42.5q6 24 6 76zM351 666q0 -3 0.5 -8.5t0.5 -6.5q0 -43 -19 -68t-51 -25q-27 0 -82 24q-20 9 -36 9q-22 0 -25 -27h-57v12q0 42 22 69
t57 27q20 0 58 -16q37 -16 52 -16q19 0 25 26h55z" />
    <glyph glyph-name="adieresis" unicode="&#xe4;" horiz-adv-x="434" 
d="M394 0h-112q-7 15 -7 29q-43 -42 -103 -42q-66 0 -107.5 41t-41.5 106q0 77 58 121q20 15 40.5 23t67.5 19q47 10 65 23.5t18 36.5q0 19 -14.5 31t-36.5 12q-58 0 -59 -72h-112v12q0 72 46.5 114.5t126.5 42.5q86 0 130 -50q32 -36 32 -121v-244v-18q0 -32 9 -64z
M271 223l-11 -3q-5 -1 -11 -2.5t-9.5 -2.5t-5.5 -1q-46 -11 -63 -22q-29 -18 -29 -54q0 -23 14.5 -36.5t38.5 -13.5q26 0 45.5 16.5t24.5 42.5q6 24 6 76zM325 680v-131h-82v131h82zM191 680v-131h-81v131h81z" />
    <glyph glyph-name="aring" unicode="&#xe5;" horiz-adv-x="434" 
d="M394 0h-112q-7 15 -7 29q-43 -42 -103 -42q-66 0 -107.5 41t-41.5 106q0 77 58 121q20 15 40.5 23t67.5 19q47 10 65 23.5t18 36.5q0 19 -14.5 31t-36.5 12q-58 0 -59 -72h-112v12q0 72 46.5 114.5t126.5 42.5q86 0 130 -50q32 -36 32 -121v-244v-18q0 -32 9 -64z
M271 223l-11 -3q-5 -1 -11 -2.5t-9.5 -2.5t-5.5 -1q-46 -11 -63 -22q-29 -18 -29 -54q0 -23 14.5 -36.5t38.5 -13.5q26 0 45.5 16.5t24.5 42.5q6 24 6 76zM225 707q34 0 59 -25.5t25 -60.5t-25.5 -60t-59.5 -25t-59 25t-25 60q0 36 24.5 61t60.5 25zM224 657
q-14 0 -24 -10.5t-10 -24.5q0 -15 10 -25t24 -10t24.5 10.5t10.5 25.5q0 14 -10.5 24t-24.5 10z" />
    <glyph glyph-name="ae" unicode="&#xe6;" horiz-adv-x="682" 
d="M324 43q-60 -60 -148 -60q-69 0 -111 41t-42 109q0 78 58 122q33 25 108 42q47 10 65 23.5t18 36.5q0 19 -14.5 31t-36.5 12q-58 0 -59 -72h-112v12q0 72 46.5 114.5t126.5 42.5q76 0 121 -41q48 41 115 41q96 0 146 -71q52 -72 52 -203q0 -11 -1 -20h-274v-5
q0 -50 21.5 -81.5t56.5 -31.5q55 0 72 68h120q-7 -77 -58.5 -123.5t-130.5 -46.5q-83 0 -139 60zM271 223l-11 -3q-5 -1 -11 -2.5t-9.5 -2.5t-5.5 -1q-46 -11 -63 -22q-29 -18 -29 -54q0 -23 14.5 -36.5t38.5 -13.5q26 0 45.5 16.5t24.5 42.5q6 24 6 76zM534 300
q-12 100 -73 100q-32 0 -52.5 -26.5t-25.5 -73.5h151z" />
    <glyph glyph-name="ccedilla" unicode="&#xe7;" horiz-adv-x="439" 
d="M263 -13l-12 -36q32 -4 50.5 -23t18.5 -47q0 -46 -36.5 -77t-89.5 -31q-28 0 -65 12l19 60q25 -7 39 -7q20 0 32 9t12 23q0 13 -10.5 22t-27.5 9q-13 0 -29 -8l30 92q-78 11 -122.5 78.5t-44.5 173.5q0 122 52.5 191t144.5 69q82 0 135 -53t60 -140h-120q-5 42 -25 66.5
t-49 24.5q-37 0 -58 -40.5t-21 -113.5q0 -74 21 -115t59 -41q60 0 73 91h120q-7 -78 -48 -128t-108 -61z" />
    <glyph glyph-name="egrave" unicode="&#xe8;" horiz-adv-x="445" 
d="M415 153q-6 -76 -58 -123t-131 -47q-92 0 -146 68t-54 184q0 119 53.5 190.5t143.5 71.5q94 0 146 -71q51 -71 51 -203v-20h-275v-5q0 -50 22 -81.5t57 -31.5q55 0 71 68h120zM298 300q-12 100 -74 100q-32 0 -52.5 -26.5t-24.5 -73.5h151zM229 680l32 -130h-76l-65 130
h109z" />
    <glyph glyph-name="eacute" unicode="&#xe9;" horiz-adv-x="445" 
d="M415 153q-6 -76 -58 -123t-131 -47q-92 0 -146 68t-54 184q0 119 53.5 190.5t143.5 71.5q94 0 146 -71q51 -71 51 -203v-20h-275v-5q0 -50 22 -81.5t57 -31.5q55 0 71 68h120zM298 300q-12 100 -74 100q-32 0 -52.5 -26.5t-24.5 -73.5h151zM219 680h109l-66 -130h-75z
" />
    <glyph glyph-name="ecircumflex" unicode="&#xea;" horiz-adv-x="445" 
d="M415 153q-6 -76 -58 -123t-131 -47q-92 0 -146 68t-54 184q0 119 53.5 190.5t143.5 71.5q94 0 146 -71q51 -71 51 -203v-20h-275v-5q0 -50 22 -81.5t57 -31.5q55 0 71 68h120zM298 300q-12 100 -74 100q-32 0 -52.5 -26.5t-24.5 -73.5h151zM101 549l66 131h119l67 -131
h-92l-35 67l-34 -67h-91z" />
    <glyph glyph-name="edieresis" unicode="&#xeb;" horiz-adv-x="445" 
d="M415 153q-6 -76 -58 -123t-131 -47q-92 0 -146 68t-54 184q0 119 53.5 190.5t143.5 71.5q94 0 146 -71q51 -71 51 -203v-20h-275v-5q0 -50 22 -81.5t57 -31.5q55 0 71 68h120zM298 300q-12 100 -74 100q-32 0 -52.5 -26.5t-24.5 -73.5h151zM332 680v-131h-82v131h82z
M198 680v-131h-81v131h81z" />
    <glyph glyph-name="igrave" unicode="&#xec;" horiz-adv-x="223" 
d="M169 480v-480h-116v480h116zM162 680l32 -130h-76l-65 130h109z" />
    <glyph glyph-name="iacute" unicode="&#xed;" horiz-adv-x="223" 
d="M169 480v-480h-116v480h116zM108 680h109l-66 -130h-75z" />
    <glyph glyph-name="icircumflex" unicode="&#xee;" horiz-adv-x="223" 
d="M169 480v-480h-116v480h116zM53 549l66 131h119l67 -131h-92l-35 67l-34 -67h-91z" />
    <glyph glyph-name="idieresis" unicode="&#xef;" horiz-adv-x="223" 
d="M169 480v-480h-116v480h116zM268 680v-131h-82v131h82zM134 680v-131h-81v131h81z" />
    <glyph glyph-name="ntilde" unicode="&#xf1;" horiz-adv-x="449" 
d="M53 480h110v-39q37 52 103 52q75 0 110 -57q23 -35 23 -108v-328h-116v280v33q0 79 -52 79q-21 0 -36.5 -13.5t-20.5 -36.5q-5 -28 -5 -77v-265h-116v480zM356 666q0 -3 0.5 -8.5t0.5 -6.5q0 -43 -19 -68t-51 -25q-27 0 -82 24q-19 9 -36 9q-22 0 -25 -27h-57v12
q0 42 22 69t57 27q20 0 58 -16q37 -16 52 -16q19 0 25 26h55z" />
    <glyph glyph-name="ograve" unicode="&#xf2;" horiz-adv-x="464" 
d="M27 241q0 119 54.5 187.5t150.5 68.5t150.5 -68.5t54.5 -188.5q0 -119 -55 -188t-150 -69t-150 69t-55 189zM146 244q0 -74 23 -116.5t63 -42.5t63 42.5t23 116.5q0 70 -23 110.5t-63 40.5t-63 -40.5t-23 -110.5zM240 680l32 -130h-76l-65 130h109z" />
    <glyph glyph-name="oacute" unicode="&#xf3;" horiz-adv-x="464" 
d="M27 241q0 119 54.5 187.5t150.5 68.5t150.5 -68.5t54.5 -188.5q0 -119 -55 -188t-150 -69t-150 69t-55 189zM146 244q0 -74 23 -116.5t63 -42.5t63 42.5t23 116.5q0 70 -23 110.5t-63 40.5t-63 -40.5t-23 -110.5zM230 680h109l-66 -130h-75z" />
    <glyph glyph-name="ocircumflex" unicode="&#xf4;" horiz-adv-x="464" 
d="M27 241q0 119 54.5 187.5t150.5 68.5t150.5 -68.5t54.5 -188.5q0 -119 -55 -188t-150 -69t-150 69t-55 189zM146 244q0 -74 23 -116.5t63 -42.5t63 42.5t23 116.5q0 70 -23 110.5t-63 40.5t-63 -40.5t-23 -110.5zM108 549l66 131h119l67 -131h-92l-35 67l-34 -67h-91z
" />
    <glyph glyph-name="otilde" unicode="&#xf5;" horiz-adv-x="464" 
d="M27 241q0 119 54.5 187.5t150.5 68.5t150.5 -68.5t54.5 -188.5q0 -119 -55 -188t-150 -69t-150 69t-55 189zM146 244q0 -74 23 -116.5t63 -42.5t63 42.5t23 116.5q0 70 -23 110.5t-63 40.5t-63 -40.5t-23 -110.5zM366 666q0 -3 0.5 -8.5t0.5 -6.5q0 -43 -19 -68t-51 -25
q-27 0 -82 24q-19 9 -36 9q-22 0 -25 -27h-57v12q0 42 22 69t57 27q20 0 58 -16q37 -16 52 -16q19 0 25 26h55z" />
    <glyph glyph-name="odieresis" unicode="&#xf6;" horiz-adv-x="464" 
d="M27 241q0 119 54.5 187.5t150.5 68.5t150.5 -68.5t54.5 -188.5q0 -119 -55 -188t-150 -69t-150 69t-55 189zM146 244q0 -74 23 -116.5t63 -42.5t63 42.5t23 116.5q0 70 -23 110.5t-63 40.5t-63 -40.5t-23 -110.5zM340 680v-131h-82v131h82zM206 680v-131h-81v131h81z" />
    <glyph glyph-name="divide" unicode="&#xf7;" 
d="M33 0v667h334v-667h-334zM40 7h320v653h-320v-653z" />
    <glyph glyph-name="oslash" unicode="&#xf8;" horiz-adv-x="464" 
d="M371 442q66 -69 66 -201q0 -120 -54.5 -189t-150.5 -69q-57 0 -101 25l-27 -50l-46 25l32 59q-63 71 -63 198q0 119 54.5 188t149.5 69q57 0 98 -23l25 46l46 -25zM307 327l-122 -222q20 -20 47 -20q40 0 63 42t23 116q0 52 -11 84zM155 160l121 218q-20 17 -44 17
q-40 0 -63 -40.5t-23 -110.5q0 -46 9 -84z" />
    <glyph glyph-name="ugrave" unicode="&#xf9;" horiz-adv-x="449" 
d="M396 480v-480h-110v39q-36 -52 -104 -52q-64 0 -98 40.5t-34 116.5v336h116v-287q0 -53 5 -72q12 -33 47 -33q22 0 38 15t20 39t4 83v255h116zM225 680l32 -130h-76l-65 130h109z" />
    <glyph glyph-name="uacute" unicode="&#xfa;" horiz-adv-x="449" 
d="M396 480v-480h-110v39q-36 -52 -104 -52q-64 0 -98 40.5t-34 116.5v336h116v-287q0 -53 5 -72q12 -33 47 -33q22 0 38 15t20 39t4 83v255h116zM215 680h109l-66 -130h-75z" />
    <glyph glyph-name="ucircumflex" unicode="&#xfb;" horiz-adv-x="449" 
d="M396 480v-480h-110v39q-36 -52 -104 -52q-64 0 -98 40.5t-34 116.5v336h116v-287q0 -53 5 -72q12 -33 47 -33q22 0 38 15t20 39t4 83v255h116zM92 549l66 131h119l67 -131h-92l-35 67l-34 -67h-91z" />
    <glyph glyph-name="udieresis" unicode="&#xfc;" horiz-adv-x="449" 
d="M396 480v-480h-110v39q-36 -52 -104 -52q-64 0 -98 40.5t-34 116.5v336h116v-287q0 -53 5 -72q12 -33 47 -33q22 0 38 15t20 39t4 83v255h116zM331 680v-131h-82v131h82zM197 680v-131h-81v131h81z" />
    <glyph glyph-name="ydieresis" unicode="&#xff;" horiz-adv-x="391" 
d="M387 480l-147 -530q-30 -103 -134 -102l-45 1h-8v91h19q35 0 48 10.5t13 38.5q0 16 -4 32l-126 459h126l50 -211l7 -23q10 -43 11 -63q5 40 11 64l7 28l50 205h122zM302 680v-131h-82v131h82zM168 680v-131h-81v131h81z" />
    <glyph glyph-name="dotlessi" unicode="&#x131;" horiz-adv-x="223" 
d="M169 480v-480h-116v480h116z" />
    <glyph glyph-name="OE" unicode="&#x152;" horiz-adv-x="785" 
d="M748 0h-451q-109 0 -171 57q-45 43 -70.5 116.5t-25.5 162.5q0 87 25.5 160.5t70.5 115.5q61 55 174 55h448v-113h-262v-144h232v-112h-232v-183h262v-115zM360 554h-54q-66 0 -96 -34q-50 -56 -50 -187q0 -119 44 -178q31 -42 102 -42h53h1v441z" />
    <glyph glyph-name="oe" unicode="&#x153;" horiz-adv-x="737" 
d="M378 434q53 63 136 63q94 0 146 -71q52 -72 52 -203q0 -1 -0.5 -8t-0.5 -12h-274v-5q0 -50 21.5 -81.5t56.5 -31.5q55 0 71 68h121q-7 -77 -59 -123.5t-131 -46.5q-85 0 -140 62q-58 -62 -145 -62q-95 0 -150.5 69t-55.5 188q0 120 55 188.5t151 68.5q94 0 146 -63z
M145 244q0 -74 23 -116.5t64 -42.5t64 42.5t23 116.5q0 70 -23.5 110.5t-63.5 40.5t-63.5 -40.5t-23.5 -110.5zM589 300q-12 97 -73 97q-32 0 -52.5 -25.5t-25.5 -71.5h151z" />
    <glyph glyph-name="Ydieresis" unicode="&#x178;" horiz-adv-x="482" 
d="M479 667l-173 -395v-272h-127v272l-176 395h132l76 -183q22 -54 30 -95q8 40 32 98l74 180h132zM348 864v-131h-82v131h82zM214 864v-131h-81v131h81z" />
    <glyph glyph-name="florin" unicode="&#x192;" horiz-adv-x="396" 
d="M105 460l12 70h50l10 53q8 47 16.5 69t26.5 42q42 43 127 43q24 0 42 -3l-17 -97q-2 1 -5 1q-10 1 -21 1q-23 0 -35.5 -12.5t-17.5 -40.5l-10 -56h57l-12 -70h-57l-78 -443l-5 -27q-14 -66 -53 -96.5t-112 -30.5q-25 0 -43 3l17 97q9 -1 23 -1q27 0 39 11t17 41l79 446
h-50z" />
    <glyph glyph-name="circumflex" unicode="&#x2c6;" horiz-adv-x="385" 
d="M67 549l66 131h119l67 -131h-92l-35 67l-34 -67h-91z" />
    <glyph glyph-name="caron" unicode="&#x2c7;" 
d="M33 0v667h334v-667h-334zM40 7h320v653h-320v-653z" />
    <glyph glyph-name="breve" unicode="&#x2d8;" 
d="M33 0v667h334v-667h-334zM40 7h320v653h-320v-653z" />
    <glyph glyph-name="dotaccent" unicode="&#x2d9;" 
d="M33 0v667h334v-667h-334zM40 7h320v653h-320v-653z" />
    <glyph glyph-name="ring" unicode="&#x2da;" horiz-adv-x="303" 
d="M152 707q34 0 59 -25.5t25 -60.5t-25 -60t-60 -25q-34 0 -59 25t-25 60q0 36 24.5 61t60.5 25zM151 657q-14 0 -24 -10.5t-10 -24.5q0 -15 10 -25t24 -10t24.5 10.5t10.5 25.5q0 14 -10.5 24t-24.5 10z" />
    <glyph glyph-name="ogonek" unicode="&#x2db;" 
d="M33 0v667h334v-667h-334zM40 7h320v653h-320v-653z" />
    <glyph glyph-name="tilde" unicode="&#x2dc;" horiz-adv-x="403" 
d="M336 666q0 -3 0.5 -8.5t0.5 -6.5q0 -43 -19 -68t-51 -25q-27 0 -82 24q-20 9 -36 9q-22 0 -25 -27h-57v12q0 42 22 69t57 27q20 0 58 -16q37 -16 52 -16q19 0 25 26h55z" />
    <glyph glyph-name="hungarumlaut" unicode="&#x2dd;" 
d="M33 0v667h334v-667h-334zM40 7h320v653h-320v-653z" />
    <glyph glyph-name="Delta" unicode="&#x394;" 
d="M33 0v667h334v-667h-334zM40 7h320v653h-320v-653z" />
    <glyph glyph-name="Omega" unicode="&#x3a9;" 
d="M33 0v667h334v-667h-334zM40 7h320v653h-320v-653z" />
    <glyph glyph-name="pi" unicode="&#x3c0;" 
d="M33 0v667h334v-667h-334zM40 7h320v653h-320v-653z" />
    <glyph glyph-name="endash" unicode="&#x2013;" horiz-adv-x="413" 
d="M367 302v-113h-320v113h320z" />
    <glyph glyph-name="emdash" unicode="&#x2014;" horiz-adv-x="1093" 
d="M1047 302v-113h-1000v113h1000z" />
    <glyph glyph-name="quoteleft" unicode="&#x2018;" horiz-adv-x="225" 
d="M56 412v93q0 135 113 178v-60q-31 -20 -43.5 -41t-13.5 -57h57v-113h-113z" />
    <glyph glyph-name="quoteright" unicode="&#x2019;" horiz-adv-x="225" 
d="M169 667v-93q0 -135 -113 -179v60q31 20 43 41t14 58h-57v113h113z" />
    <glyph glyph-name="quotesinglbase" unicode="&#x201a;" 
d="M33 0v667h334v-667h-334zM40 7h320v653h-320v-653z" />
    <glyph glyph-name="quotedblleft" unicode="&#x201c;" horiz-adv-x="374" 
d="M205 412v93q0 135 113 178v-60q-31 -20 -43.5 -40.5t-13.5 -57.5h57v-113h-113zM56 412v93q0 135 113 178v-60q-31 -20 -43.5 -41t-13.5 -57h57v-113h-113z" />
    <glyph glyph-name="quotedblright" unicode="&#x201d;" horiz-adv-x="374" 
d="M169 667v-93q0 -135 -113 -179v60q31 20 43 41t14 58h-57v113h113zM318 667v-93q0 -79 -35 -122q-30 -38 -78 -57v60q31 20 43 41t14 58h-57v113h113z" />
    <glyph glyph-name="quotedblbase" unicode="&#x201e;" horiz-adv-x="374" 
d="M169 113v-92q0 -135 -113 -179v60q31 20 43 41t14 57h-57v113h113zM318 113v-92q0 -78 -35 -123q-31 -38 -78 -56v60q30 19 42.5 40.5t14.5 57.5h-57v113h113z" />
    <glyph glyph-name="dagger" unicode="&#x2020;" 
d="M33 0v667h334v-667h-334zM40 7h320v653h-320v-653z" />
    <glyph glyph-name="daggerdbl" unicode="&#x2021;" 
d="M33 0v667h334v-667h-334zM40 7h320v653h-320v-653z" />
    <glyph glyph-name="bullet" unicode="&#x2022;" horiz-adv-x="349" 
d="M60 344q0 47 33.5 81t80.5 34t81 -34t34 -81t-34 -80.5t-81 -33.5t-80.5 33.5t-33.5 80.5z" />
    <glyph glyph-name="ellipsis" unicode="&#x2026;" horiz-adv-x="1000" 
d="M893 119v-119h-119v119h119zM559 119v-119h-119v119h119zM226 119v-119h-119v119h119z" />
    <glyph glyph-name="perthousand" unicode="&#x2030;" horiz-adv-x="978" 
d="M541 653l-303 -653h-94l304 653h93zM289 489q0 -83 -31.5 -127t-92.5 -44t-93 45t-32 129q0 80 32 124t91 44q60 0 93 -45t33 -126zM645 164q0 -83 -32 -127t-93 -44t-93 45t-32 129q0 80 32 124t91 44q60 0 93.5 -45t33.5 -126zM938 164q0 -83 -32 -127t-93 -44
q-60 0 -92 45t-32 129q0 80 32 124t90 44q60 0 93.5 -45t33.5 -126zM123 489q0 -97 42 -97q41 0 41 97t-41 97q-42 0 -42 -97zM478 164q0 -96 42 -96t42 96q0 97 -42 97t-42 -97zM772 164q0 -96 41 -96q42 0 42 96q0 97 -42 97q-41 0 -41 -97z" />
    <glyph glyph-name="guilsinglleft" unicode="&#x2039;" horiz-adv-x="244" 
d="M194 447v-126l-86 -80l86 -78v-127l-144 133v146z" />
    <glyph glyph-name="guilsinglright" unicode="&#x203a;" horiz-adv-x="244" 
d="M50 36v126l85 80l-85 79v126l144 -133v-146z" />
    <glyph glyph-name="fraction" unicode="&#x2044;" horiz-adv-x="396" 
d="M396 653l-302 -653h-94l304 653h92z" />
    <glyph glyph-name="trademark" unicode="&#x2122;" 
d="M33 0v667h334v-667h-334zM40 7h320v653h-320v-653z" />
    <glyph glyph-name="partialdiff" unicode="&#x2202;" 
d="M33 0v667h334v-667h-334zM40 7h320v653h-320v-653z" />
    <glyph glyph-name="product" unicode="&#x220f;" 
d="M33 0v667h334v-667h-334zM40 7h320v653h-320v-653z" />
    <glyph glyph-name="summation" unicode="&#x2211;" 
d="M33 0v667h334v-667h-334zM40 7h320v653h-320v-653z" />
    <glyph glyph-name="radical" unicode="&#x221a;" 
d="M33 0v667h334v-667h-334zM40 7h320v653h-320v-653z" />
    <glyph glyph-name="infinity" unicode="&#x221e;" 
d="M33 0v667h334v-667h-334zM40 7h320v653h-320v-653z" />
    <glyph glyph-name="integral" unicode="&#x222b;" 
d="M33 0v667h334v-667h-334zM40 7h320v653h-320v-653z" />
    <glyph glyph-name="approxequal" unicode="&#x2248;" 
d="M33 0v667h334v-667h-334zM40 7h320v653h-320v-653z" />
    <glyph glyph-name="notequal" unicode="&#x2260;" 
d="M33 0v667h334v-667h-334zM40 7h320v653h-320v-653z" />
    <glyph glyph-name="lessequal" unicode="&#x2264;" 
d="M33 0v667h334v-667h-334zM40 7h320v653h-320v-653z" />
    <glyph glyph-name="greaterequal" unicode="&#x2265;" 
d="M33 0v667h334v-667h-334zM40 7h320v653h-320v-653z" />
    <glyph glyph-name="lozenge" unicode="&#x25ca;" 
d="M33 0v667h334v-667h-334zM40 7h320v653h-320v-653z" />
    <glyph glyph-name="apple" unicode="&#xf8ff;" 
d="M33 0v667h334v-667h-334zM40 7h320v653h-320v-653z" />
    <glyph glyph-name="fi" unicode="&#xfb01;" horiz-adv-x="445" 
d="M233 667v-96q-1 0 -6.5 0.5t-10.5 0.5q-27 0 -37 -10t-10 -38v-44h64v-87h-64v-393h-116v393h-50v87h50v41q0 46 5 67t20 40q32 43 118 43q13 0 37 -4zM392 480v-480h-116v480h116zM392 667v-108h-116v108h116z" />
    <glyph glyph-name="fl" unicode="&#xfb02;" horiz-adv-x="445" 
d="M233 667v-96q-1 0 -6.5 0.5t-10.5 0.5q-27 0 -37 -10t-10 -38v-44h64v-87h-64v-393h-116v393h-50v87h50v41q0 46 5 67t20 40q32 43 118 43q13 0 37 -4zM392 667v-667h-116v667h116z" />
    </font>
</defs>
</svg>
