<?xml version="1.0" standalone="no"?>
<!DOCTYPE svg PUBLIC "-//W3C//DTD SVG 1.1//EN" "http://www.w3.org/Graphics/SVG/1.1/DTD/svg11.dtd" >
<svg xmlns="http://www.w3.org/2000/svg" xmlns:xlink="http://www.w3.org/1999/xlink" version="1.1">
<metadata>
Created by FontForge 20170731 at Mon Dec  3 14:23:51 2018
 By Aleksey,,,
Copyright (c) 2013 by Jonathan Hill . All rights reserved. Desktop use is strictly prohibited.
</metadata>
<defs>
<font id="NuberNext-BlackCondensed" horiz-adv-x="999" >
  <font-face 
    font-family="NuberNext Black Condensed"
    font-weight="950"
    font-stretch="condensed"
    units-per-em="2048"
    panose-1="2 11 10 6 3 3 2 2 2 4"
    ascent="1550"
    descent="-498"
    x-height="1024"
    cap-height="1434"
    bbox="-909 -567 2071 2232"
    underline-thickness="0"
    underline-position="0"
    unicode-range="U+0020-FB02"
  />
<missing-glyph horiz-adv-x="1024" 
d="M922 61h-820v1229h820v-1229zM246 1147v-942h532v942h-532z" />
    <glyph glyph-name="f_f.liga" unicode="ff" horiz-adv-x="1394" 
d="M1290 1198q-68 0 -93.5 -25.5t-25.5 -89.5v-59h162v-256h-162v-768h-325v768h-365v-768h-323v768h-127v256h127v49q0 197 100 288t297 91q71 0 133 -8v-252q-59 6 -88 6q-67 0 -93 -26.5t-26 -88.5v-59h365v49q0 379 397 379q68 0 135 -8v-252q-59 6 -88 6z" />
    <glyph glyph-name="f_f_i.liga" unicode="ffi" horiz-adv-x="1892" 
d="M1171 1024h641v-1024h-323v768h-318v-768h-325v768h-365v-768h-323v768h-127v256h127v49q0 197 100 288t297 91q71 0 133 -8v-252q-59 6 -88 6q-67 0 -93 -26.5t-26 -88.5v-59h365v49q0 379 397 379q68 0 135 -8v-252q-59 6 -88 6q-68 0 -93.5 -25.5t-25.5 -89.5v-59z
M1489 1128v306h323v-306h-323z" />
    <glyph glyph-name="f_f_l.liga" unicode="ffl" horiz-adv-x="1892" 
d="M846 1024v49q0 379 397 379q68 0 135 -8v-252q-59 6 -88 6q-68 0 -93.5 -25.5t-25.5 -89.5v-59h162v-256h-162v-768h-325v768h-365v-768h-323v768h-127v256h127v49q0 197 100 288t297 91q71 0 133 -8v-252q-59 6 -88 6q-67 0 -93 -26.5t-26 -88.5v-59h365zM1489 0v1434
h326v-1434h-326z" />
    <glyph glyph-name="f_i.liga" unicode="fi" horiz-adv-x="1204" 
d="M481 1024h643v-1024h-325v768h-318v-768h-323v768h-127v256h127v49q0 197 100 288t297 91q71 0 133 -8v-252q-59 6 -88 6q-67 0 -93 -26.5t-26 -88.5v-59zM799 1128v306h325v-306h-325z" />
    <glyph glyph-name="f_l.liga" unicode="fl" horiz-adv-x="1204" 
d="M158 1024v49q0 197 100 288t297 91q71 0 133 -8v-252q-59 6 -88 6q-67 0 -93 -26.5t-26 -88.5v-59h164v-256h-164v-768h-323v768h-127v256h127zM801 0v1434h323v-1434h-323z" />
    <glyph glyph-name=".notdef" horiz-adv-x="1024" 
d="M922 61h-820v1229h820v-1229zM246 1147v-942h532v942h-532z" />
    <glyph glyph-name="glyph1" horiz-adv-x="0" 
 />
    <glyph glyph-name="glyph2" horiz-adv-x="681" 
 />
    <glyph glyph-name="space" unicode=" " horiz-adv-x="487" 
 />
    <glyph glyph-name="exclam" unicode="!" horiz-adv-x="593" 
d="M432 455h-274l-33 979h344zM457 0h-320v322h320v-322z" />
    <glyph glyph-name="quotedbl" unicode="&#x22;" horiz-adv-x="962" 
d="M418 858h-232l-34 592h301zM776 858h-231l-35 592h301z" />
    <glyph glyph-name="numbersign" unicode="#" horiz-adv-x="1302" 
d="M1202 1038l-43 -233h-182l-53 -250h186l-43 -233h-193l-67 -322h-227l67 322h-151l-68 -322h-227l67 322h-168l43 233h174l54 250h-178l43 233h184l76 355h227l-76 -355h152l75 355h228l-76 -355h176zM545 555h151l54 250h-152z" />
    <glyph glyph-name="dollar" unicode="$" horiz-adv-x="1030" 
d="M983 449q0 -406 -358 -461v-221h-234v221q-348 51 -356 422h356q0 -152 119 -152t119 164q0 76 -25.5 112.5t-87.5 47.5l-123 22q-164 27 -250 116t-86 296q0 381 334 430v221h234v-221q332 -47 338 -410h-340q0 82 -27 116t-86 34q-53 0 -77.5 -32t-24.5 -110
q0 -126 90 -143l133 -18q169 -27 261 -125q91 -97 91 -309z" />
    <glyph glyph-name="percent" unicode="%" horiz-adv-x="1564" 
d="M561 -37h-207l643 1503h207zM607 729q-59 -90 -216 -90q-158 0 -215 90t-57 316q0 225 57 314t215 89q157 0 216 -89q57 -88 57 -314t-57 -316zM334 856q12 -45 57 -45q44 0 58 44q12 43 12 189q0 141 -12 186q-14 44 -58 44q-45 0 -57 -44t-12 -186q0 -143 12 -188z
M1171 -16q-158 0 -215 91t-57 316q0 226 58 315q57 89 215 89q157 0 216 -89q58 -89 58 -315q0 -225 -57 -316q-58 -91 -218 -91zM1171 158q45 0 59 45q13 43 13 188q0 143 -13 186q-14 44 -59 44q-42 0 -56 -44q-13 -43 -13 -186q0 -145 13 -188q13 -45 56 -45z" />
    <glyph glyph-name="ampersand" unicode="&#x26;" horiz-adv-x="1417" 
d="M1114 274l232 -274h-357l-65 78q-151 -103 -359 -105q-218 0 -340 115q-123 116 -123 320q0 242 197 350l41 22l-37 45q-56 66 -75 121q-21 56 -21 129q0 190 96.5 283.5t278.5 93.5q176 0 274 -90t98 -260q0 -122 -41 -193t-118 -121l-76 -47l192 -227q29 113 29 246
h293q0 -292 -119 -486zM584 1223q-58 0 -80.5 -26t-22.5 -87q0 -84 27 -119l59 -71l78 65q39 35 39 123q0 115 -100 115zM602 227q85 0 158 47l-258 312l-25 -23q-53 -51 -53 -149q0 -87 48 -137t130 -50z" />
    <glyph glyph-name="quotesingle" unicode="'" horiz-adv-x="602" 
d="M418 858h-232l-34 592h301z" />
    <glyph glyph-name="parenleft" unicode="(" horiz-adv-x="753" 
d="M676 -111v-225q-79 -10 -133 -10q-165 0 -253 76q-90 77 -130 272q-41 197 -41 560q0 362 41 559q41 194 130 271q88 76 253 76q54 0 133 -10v-225q-23 4 -43 4q-90 0 -134 -59q-44 -61 -62 -199q-19 -136 -19 -417q0 -282 19 -418q18 -139 62 -200q44 -59 134 -59
q20 0 43 4z" />
    <glyph glyph-name="parenright" unicode=")" horiz-adv-x="753" 
d="M78 -336v225q23 -4 43 -4q90 0 134 59q43 60 63 200q18 139 18 418q0 278 -18 417q-19 139 -63 199q-44 59 -134 59q-20 0 -43 -4v225q79 10 133 10q165 0 253 -76q89 -77 130 -271q41 -197 41 -559q0 -363 -41 -560q-40 -195 -130 -272q-88 -76 -253 -76q-54 0 -133 10z
" />
    <glyph glyph-name="asterisk" unicode="*" horiz-adv-x="958" 
d="M473 901l-121 -207l-205 148l160 176l-231 51l78 242l217 -99l-25 238h254l-25 -238l218 99l77 -242l-233 -49l160 -178l-205 -148z" />
    <glyph glyph-name="plus" unicode="+" 
d="M635 662h264v-283h-264v-324h-270v324h-265v283h265v321h270v-321z" />
    <glyph glyph-name="comma" unicode="," horiz-adv-x="612" 
d="M123 0v391h366v-391l-208 -430h-191l150 430h-117z" />
    <glyph glyph-name="hyphen" unicode="-" horiz-adv-x="829" 
d="M707 455h-582v266h582v-266z" />
    <glyph glyph-name="period" unicode="." horiz-adv-x="612" 
d="M489 0h-366v391h366v-391z" />
    <glyph glyph-name="slash" unicode="/" horiz-adv-x="796" 
d="M260 -61h-235l514 1556h233z" />
    <glyph glyph-name="zero" unicode="0" horiz-adv-x="987" 
d="M494 -18q-256 0 -354 161q-99 161 -99 549q0 401 99 560q98 159 354 159q257 0 355 -158q97 -158 97 -561q0 -392 -97 -550q-97 -160 -355 -160zM494 268q70 0 90 83q20 85 20 343q0 262 -20 347q-21 83 -90 83q-68 0 -88 -83q-21 -83 -21 -347q0 -260 21 -343
q20 -83 88 -83z" />
    <glyph glyph-name="one" unicode="1" horiz-adv-x="737" 
d="M287 1393h354v-1393h-342v997l-270 -184v328z" />
    <glyph glyph-name="two" unicode="2" horiz-adv-x="960" 
d="M379 362v-86h539v-276h-883v401q0 193 84 287q83 93 246 125l114 18q58 10 82.5 44.5t24.5 113.5q0 84 -21.5 118t-70.5 34q-52 0 -73.5 -36t-21.5 -130h-342q2 233 116 335q115 101 323 101q430 0 430 -424q0 -374 -305 -430l-129 -27q-62 -15 -87.5 -54.5t-25.5 -113.5
z" />
    <glyph glyph-name="three" unicode="3" horiz-adv-x="968" 
d="M788 717q138 -91 140 -326q0 -209 -110.5 -309t-338.5 -100q-249 0 -347 116q-97 115 -97 334h325q0 -100 29 -135t92 -35q66 0 92.5 35t26.5 123q0 90 -27.5 126t-91.5 36h-106v272h106q55 0 79 33.5t24 111.5q0 80 -24 112t-79 32q-58 0 -81 -29.5t-23 -105.5h-334
q0 195 98 299t338 104q223 0 332 -95.5t109 -297.5q-1 -212 -132 -301z" />
    <glyph glyph-name="four" unicode="4" horiz-adv-x="1050" 
d="M877 569h141v-272h-141v-297h-332v297h-510v272l436 824h406v-824zM545 983l-197 -414h197v414z" />
    <glyph glyph-name="five" unicode="5" horiz-adv-x="960" 
d="M588 967q177 0 257.5 -113.5t80.5 -343.5q0 -292 -107 -410q-108 -118 -340 -118q-246 0 -345 108q-99 106 -99 332h319q0 -86 29.5 -124t91.5 -38q78 0 105 51q26 52 26 187q0 110 -27.5 156t-91.5 46q-115 0 -114 -147h-322v840h807v-273h-485v-217q82 64 215 64z" />
    <glyph glyph-name="six" unicode="6" horiz-adv-x="964" 
d="M590 932q184 0 262 -116t78 -341q0 -260 -106 -375q-107 -116 -324 -116q-264 0 -361 159q-98 158 -98 531q0 547 203 676q95 61 258 61q211 0 307 -101q96 -102 96 -272h-323q0 111 -90 111q-66 0 -93.5 -68t-31.5 -225q82 76 223 76zM489 264q73 0 99 51q24 50 24 170
q0 102 -27.5 144.5t-94.5 42.5t-96 -35.5t-29 -110.5v-24q0 -133 28 -185q29 -53 96 -53z" />
    <glyph glyph-name="seven" unicode="7" horiz-adv-x="860" 
d="M25 1116v277h811v-277l-402 -1116h-340l408 1116h-477z" />
    <glyph glyph-name="eight" unicode="8" horiz-adv-x="972" 
d="M772 727q160 -90 160 -336q0 -211 -103 -310t-344 -99q-219 0 -331 93q-113 93 -113 316q0 247 156 336q-138 85 -140 299q0 385 428 385q224 0 327 -95.5t103 -289.5q0 -213 -143 -299zM487 1147q-58 0 -84 -33.5t-26 -109.5q0 -79 26.5 -110.5t83.5 -31.5
q58 0 83.5 32.5t25.5 109.5q0 79 -26.5 111t-82.5 32zM487 254q69 0 98 38q27 38 27 138q0 109 -29 144q-30 34 -96 34q-69 0 -98 -36q-29 -38 -29 -142q0 -102 31 -139q30 -37 96 -37z" />
    <glyph glyph-name="nine" unicode="9" horiz-adv-x="964" 
d="M465 1411q264 0 362 -158q97 -158 97 -530q0 -550 -203 -678q-95 -61 -258 -61q-211 0 -307 101q-97 100 -97 273h324q0 -56 22.5 -84.5t67.5 -27.5q66 0 93.5 69t31.5 224q-82 -76 -223 -76q-184 0 -262 116q-78 115 -78 341q0 261 107 377q107 114 323 114zM380 767
q28 -42 96 -42t96 36q28 35 28 107v25q0 134 -28 187q-29 53 -97 53q-74 0 -98 -50q-25 -50 -25 -172q0 -103 28 -144z" />
    <glyph glyph-name="colon" unicode=":" horiz-adv-x="612" 
d="M489 633h-366v391h366v-391zM489 0h-366v391h366v-391z" />
    <glyph glyph-name="semicolon" unicode=";" horiz-adv-x="612" 
d="M123 633v391h366v-391h-366zM240 0h-117v391h366v-391l-208 -430h-191z" />
    <glyph glyph-name="less" unicode="&#x3c;" 
d="M125 680l749 367v-316l-466 -205l466 -209v-315l-749 373v305z" />
    <glyph glyph-name="equal" unicode="=" 
d="M940 602h-883v283h883v-283zM940 119h-883v282h883v-282z" />
    <glyph glyph-name="greater" unicode="&#x3e;" 
d="M127 731v316l750 -367v-305l-750 -373v315l467 209z" />
    <glyph glyph-name="question" unicode="?" horiz-adv-x="1036" 
d="M578 455h-275l-6 196q-6 162 141 215l64 27q51 18 72 46q20 29 20 97q0 73 -23 101t-73 28q-61 0 -87 -36.5t-26 -129.5h-313q0 242 111 347q110 104 317 104q428 0 428 -418q0 -266 -191 -334l-75 -24q-78 -31 -82 -119zM606 0h-325v322h325v-322z" />
    <glyph glyph-name="at" unicode="@" horiz-adv-x="1556" 
d="M1106 289h-256v59q-55 -70 -164 -69q-113 0 -164 85.5t-51 260.5q0 358 219 358q104 0 164 -70v60h211v-477h45q66 0 88 52q21 53 21 185q0 331 -113 440q-55 52 -122.5 72.5t-170.5 20.5q-171 0 -266 -51q-94 -52 -142 -196q-49 -144 -49 -415q0 -192 24 -307.5
t80 -179.5q56 -66 134 -89q78 -24 203 -24q183 0 280 55l33 -192q-138 -55 -326 -55q-344 0 -499 186q-156 186 -156 608q0 454 166 650t508 196q307 0 473 -159q166 -160 166 -545q0 -242 -78 -350q-78 -109 -258 -109zM774 446q76 0 76 84v199q0 86 -74 86q-48 0 -67 -43
t-19 -141q0 -101 18.5 -143t65.5 -42z" />
    <glyph glyph-name="A" unicode="A" horiz-adv-x="1183" 
d="M1155 0h-354l-45 223h-328l-45 -223h-352l375 1434h374zM592 1030l-111 -541h221z" />
    <glyph glyph-name="B" unicode="B" horiz-adv-x="1087" 
d="M852 752q184 -91 184 -338q0 -414 -442 -414h-502v1434h434q226 0 348 -89q121 -90 121 -292q0 -203 -143 -301zM530 1161h-94v-284h94q74 0 101 30q26 29 26 111q0 85 -28 114q-29 29 -99 29zM436 272h109q83 0 115 39.5t32 134.5q0 97 -33 134.5t-114 37.5h-109v-346z
" />
    <glyph glyph-name="C" unicode="C" horiz-adv-x="1130" 
d="M580 -18q-276 0 -397 168q-122 167 -122 565q0 401 123 569t398 168q258 0 382 -126q123 -126 123 -415h-348q0 148 -34 201q-35 53 -123 53q-98 0 -132 -91q-34 -90 -34 -355q0 -266 35 -359q35 -92 129 -92q92 0 125 55q32 55 32 199h346q0 -284 -123 -412
q-125 -128 -380 -128z" />
    <glyph glyph-name="D" unicode="D" horiz-adv-x="1157" 
d="M92 1434h488q280 0 398 -159q118 -158 118 -560q0 -393 -120 -554t-396 -161h-488v1434zM436 283h119q112 1 150 86q36 84 36 346q0 349 -76 409q-36 27 -110 27h-119v-868z" />
    <glyph glyph-name="E" unicode="E" horiz-adv-x="1011" 
d="M446 598v-319h512v-279h-856v1434h838v-277h-494v-283h472v-276h-472z" />
    <glyph glyph-name="F" unicode="F" horiz-adv-x="966" 
d="M915 1434v-277h-479v-334h447v-276h-447v-547h-344v1434h823z" />
    <glyph glyph-name="G" unicode="G" horiz-adv-x="1179" 
d="M645 735h457v-735h-260v182q-84 -201 -346 -200q-242 0 -338 172q-97 172 -97 548q0 416 116 583t405 167q271 0 389 -127q119 -128 119 -401h-351q0 136 -36 189q-37 52 -115 52q-105 0 -139 -88q-35 -90 -35 -354q2 -190 17 -279.5t51.5 -125.5t113.5 -39
q174 0 180 202h-131v254z" />
    <glyph glyph-name="H" unicode="H" horiz-adv-x="1189" 
d="M756 870v564h342v-1434h-342v594h-320v-594h-344v1434h344v-564h320z" />
    <glyph glyph-name="I" unicode="I" horiz-adv-x="528" 
d="M436 0h-344v1434h344v-1434z" />
    <glyph glyph-name="J" unicode="J" horiz-adv-x="1011" 
d="M479 -18q-260 0 -353 107t-93 312h344q0 -73 25 -104t77 -31q103 0 105 113v1055h342v-1055q0 -214 -112 -305q-113 -92 -335 -92z" />
    <glyph glyph-name="K" unicode="K" horiz-adv-x="1173" 
d="M1145 0h-420l-215 549l-74 -109v-440h-344v1434h344v-504l262 504h420l-403 -586z" />
    <glyph glyph-name="L" unicode="L" horiz-adv-x="952" 
d="M436 1434v-1158h484v-276h-828v1434h344z" />
    <glyph glyph-name="M" unicode="M" horiz-adv-x="1515" 
d="M936 1434h487v-1434h-323v934l-203 -934h-279l-202 934v-934h-324v1434h488l178 -930z" />
    <glyph glyph-name="N" unicode="N" horiz-adv-x="1204" 
d="M784 629v805h328v-1434h-367l-325 819v-819h-328v1434h381z" />
    <glyph glyph-name="O" unicode="O" horiz-adv-x="1157" 
d="M979 151q-117 -169 -399 -169q-283 0 -401 169q-118 167 -118 568q0 404 118 568q119 165 401 165t399 -165t117 -568q0 -399 -117 -568zM580 266q98 0 133 96t35 357q0 265 -37 355q-37 91 -131 91q-98 0 -133 -93q-35 -94 -35 -353q0 -266 36 -359q36 -94 132 -94z" />
    <glyph glyph-name="P" unicode="P" horiz-adv-x="1069" 
d="M92 1434h428q276 0 390 -108q114 -110 114 -339q0 -245 -125 -346q-124 -100 -379 -100h-84v-541h-344v1434zM436 817h115q80 0 110.5 38t30.5 132q0 96 -32.5 134t-108.5 38h-115v-342z" />
    <glyph glyph-name="Q" unicode="Q" horiz-adv-x="1157" 
d="M1096 719q0 -265 -49.5 -423.5t-157.5 -236.5l115 -268l-222 -88l-118 283q-47 -4 -84 -4q-283 0 -401 169q-118 167 -118 568q0 404 118 568q119 165 401 165t399 -165t117 -568zM412 719q0 -266 36 -359q34 -94 132 -94t133 96t35 357q0 265 -37 355q-37 91 -131 91
q-98 0 -133 -93q-35 -94 -35 -353z" />
    <glyph glyph-name="R" unicode="R" horiz-adv-x="1130" 
d="M1004 389l90 -389h-353l-86 426q-14 79 -42 104t-93 25h-84v-555h-344v1434h428q268 0 386 -102q118 -103 118 -314q0 -250 -184 -346q61 -31 99 -96.5t65 -186.5zM551 1159h-115v-340h115q82 0 112 38q29 38 29 132q0 99 -31 134q-31 36 -110 36z" />
    <glyph glyph-name="S" unicode="S" horiz-adv-x="1056" 
d="M520 -18q-233 0 -357 108.5t-128 321.5h360q0 -150 127 -150q65 0 97 37.5t32 122.5q0 75 -27.5 112t-91.5 48l-129 22q-83 12 -140 36t-105 68q-99 90 -99 306q0 231 119 335q118 103 342 103q232 0 348.5 -101t118.5 -315h-344q0 81 -28 114.5t-91 33.5
q-57 0 -83.5 -32t-26.5 -110q0 -126 96 -139l137 -20q173 -25 268 -123q93 -97 93 -311q-2 -467 -488 -467z" />
    <glyph glyph-name="T" unicode="T" horiz-adv-x="1032" 
d="M31 1434h970v-277h-313v-1157h-342v1157h-315v277z" />
    <glyph glyph-name="U" unicode="U" horiz-adv-x="1120" 
d="M567 -18q-267 0 -373 130q-108 130 -108 439v883h344v-914q0 -148 31 -200q31 -54 106 -54q74 0 103 56q28 55 28 198v914h344v-883q0 -325 -115 -446q-115 -123 -360 -123z" />
    <glyph glyph-name="V" unicode="V" horiz-adv-x="1146" 
d="M571 471l179 963h366l-344 -1434h-401l-340 1434h366z" />
    <glyph glyph-name="W" unicode="W" horiz-adv-x="1714" 
d="M1159 492l164 942h360l-352 -1434h-344l-131 918l-131 -918h-344l-350 1434h360l162 -940l135 940h336z" />
    <glyph glyph-name="X" unicode="X" horiz-adv-x="1214" 
d="M825 741l361 -741h-383l-197 502l-188 -502h-387l356 735l-326 701h388l161 -486l158 486h389zM610 713v2l-6 -4l2 -2z" />
    <glyph glyph-name="Y" unicode="Y" horiz-adv-x="1200" 
d="M788 1434h381l-399 -856v-578h-342v569l-397 865h383l186 -562z" />
    <glyph glyph-name="Z" unicode="Z" 
d="M940 1157l-522 -881h538v-276h-919v276l524 881h-485v277h864v-277z" />
    <glyph glyph-name="bracketleft" unicode="[" horiz-adv-x="731" 
d="M657 -344h-501v1812h497v-243h-200v-1325h204v-244z" />
    <glyph glyph-name="backslash" unicode="\" horiz-adv-x="796" 
d="M260 1495l512 -1556h-235l-512 1556h235z" />
    <glyph glyph-name="bracketright" unicode="]" horiz-adv-x="731" 
d="M575 -344h-499v244h203v1325h-201v243h497v-1812z" />
    <glyph glyph-name="asciicircum" unicode="^" 
d="M618 1434l351 -852h-271l-196 563l-199 -563h-270l350 852h235z" />
    <glyph glyph-name="underscore" unicode="_" horiz-adv-x="1212" 
d="M1030 -332h-848v219h848v-219z" />
    <glyph glyph-name="grave" unicode="`" horiz-adv-x="677" 
d="M438 1470l137 -329h-225l-248 329h336z" />
    <glyph glyph-name="a" unicode="a" horiz-adv-x="993" 
d="M516 1042q224 0 318 -91t94 -261v-690h-312v123q-92 -141 -266 -141q-133 0 -218 82q-85 81 -85 241t91 244t241 84h225v82q0 88 -102 88q-103 0 -103 -88h-303q0 327 420 327zM481 225q123 0 123 164v55h-104q-115 0 -115 -110q0 -109 96 -109z" />
    <glyph glyph-name="b" unicode="b" horiz-adv-x="1038" 
d="M664 1042q171 0 249 -130t78 -390q0 -271 -79.5 -405.5t-247.5 -134.5t-265 127v-109h-311v1434h324v-508q95 116 252 116zM532 236q76 0 105 64t29 212q0 155 -28 215q-28 61 -110 61q-52 0 -84 -33.5t-32 -92.5v-297q0 -60 33 -94.5t87 -34.5z" />
    <glyph glyph-name="c" unicode="c" horiz-adv-x="972" 
d="M498 -18q-242 0 -346 125q-105 124 -105 407q0 280 105 405q104 123 348 123q222 0 329 -98.5t107 -308.5h-318q0 101 -25 135q-26 35 -95 35q-74 0 -96 -60q-23 -63 -23 -239q0 -166 24 -225q22 -60 95 -60q68 0 94 36t26 130h318q0 -405 -438 -405z" />
    <glyph glyph-name="d" unicode="d" horiz-adv-x="1032" 
d="M627 944v490h325v-1434h-311v123q-97 -141 -270 -141q-171 0 -248 135q-76 134 -76 393q0 270 82.5 401t263.5 131q145 0 234 -98zM508 238q55 0 87 33t32 94v297q0 60 -31.5 93t-83.5 33q-81 0 -110 -65q-29 -67 -29 -211q0 -153 28 -213q27 -61 107 -61z" />
    <glyph glyph-name="e" unicode="e" horiz-adv-x="980" 
d="M942 424h-571q5 -124 30 -167q26 -44 97 -44q55 0 83 21.5t27 64.5h320q0 -151 -119 -234t-324 -83q-243 0 -341 128q-97 127 -97 400q0 283 104 408q103 124 341 124q242 0 347 -122q105 -123 105 -402q0 -60 -2 -94zM492 813q-60 0 -86.5 -44.5t-32.5 -156.5h241
q-7 115 -34 159q-27 42 -88 42z" />
    <glyph glyph-name="f" unicode="f" horiz-adv-x="704" 
d="M600 1198q-67 0 -93 -26.5t-26 -88.5v-59h164v-256h-164v-768h-323v768h-127v256h127v49q0 197 100 288t297 91q71 0 133 -8v-252q-59 6 -88 6z" />
    <glyph glyph-name="g" unicode="g" horiz-adv-x="1013" 
d="M631 934v90h311v-1094q0 -158 -114 -249q-115 -91 -308 -91q-184 0 -294 83q-111 82 -117 253h311q1 -88 98 -88q55 0 77.5 22.5t22.5 69.5v207q-86 -96 -258 -96q-313 0 -313 494q0 254 83.5 381t250.5 126q161 0 250 -108zM498 285q63 0 91.5 30.5t28.5 98.5v248
q0 64 -29.5 95.5t-88.5 30.5q-73 0 -100 -58t-27 -191q0 -138 26 -196q25 -58 99 -58z" />
    <glyph glyph-name="h" unicode="h" horiz-adv-x="1032" 
d="M664 1042q166 0 234 -96q67 -95 67 -278v-668h-324v641q0 79 -26 110t-87 31q-54 0 -85 -34t-31 -99v-649h-324v1434h324v-521q94 129 252 129z" />
    <glyph glyph-name="i" unicode="i" horiz-adv-x="485" 
d="M406 1128h-326v306h326v-306zM406 0h-326v1024h326v-1024z" />
    <glyph glyph-name="j" unicode="j" horiz-adv-x="485" 
d="M406 1128h-326v306h326v-306zM-61 -410v265q60 0 98 24q43 33 43 98v1047h326v-1016q0 -249 -150 -344q-60 -36 -150 -55q-91 -19 -167 -19z" />
    <glyph glyph-name="k" unicode="k" horiz-adv-x="1042" 
d="M1026 0h-375l-184 403l-55 -63v-340h-324v1434h324v-711l188 301h397l-329 -385z" />
    <glyph glyph-name="l" unicode="l" horiz-adv-x="487" 
d="M408 0h-324v1434h324v-1434z" />
    <glyph glyph-name="m" unicode="m" horiz-adv-x="1544" 
d="M1192 1042q72 0 128 -25t87 -65q29 -38 45 -92q25 -87 25 -192v-668h-322v641q0 71 -22 106t-80 35q-53 0 -84 -31.5t-31 -86.5v-664h-322v641q0 71 -22 106t-80 35q-115 0 -115 -133v-649h-321v1024h307v-133q85 152 268 151q189 0 254 -161q86 161 285 161z" />
    <glyph glyph-name="n" unicode="n" horiz-adv-x="1021" 
d="M664 1042q160 0 225 -98t65 -276v-668h-323v641q0 77 -25 109t-82 32q-123 0 -123 -133v-649h-323v1024h311v-119q95 137 275 137z" />
    <glyph glyph-name="o" unicode="o" horiz-adv-x="989" 
d="M840 107q-105 -125 -344 -125q-240 0 -344 125q-105 124 -105 407q0 280 105 404q103 124 344 124q239 0 344 -124q104 -125 104 -404q0 -282 -104 -407zM496 221q78 0 100 61q22 59 22 232q0 172 -24 232q-26 59 -98 59q-78 0 -100 -60q-23 -63 -23 -231q0 -176 25 -233
q24 -60 98 -60z" />
    <glyph glyph-name="p" unicode="p" horiz-adv-x="1038" 
d="M670 1042q167 0 244 -131.5t77 -392.5q0 -274 -79.5 -405t-254.5 -131q-159 0 -245 90v-482h-324v1434h311v-117q93 135 271 135zM530 236q78 0 107 64.5t29 213.5q0 153 -28 213q-28 61 -108 61q-56 0 -87 -33t-31 -96v-297q-2 -126 118 -126z" />
    <glyph glyph-name="q" unicode="q" horiz-adv-x="1024" 
d="M639 926v98h311v-1434h-323v502q-89 -111 -252 -110q-171 0 -249.5 130.5t-78.5 393.5q0 271 81 403.5t257 132.5q164 0 254 -116zM510 238q117 0 117 127v297q0 60 -32.5 93t-86.5 33q-80 0 -107 -64q-28 -63 -28 -210q0 -155 28 -215q27 -61 109 -61z" />
    <glyph glyph-name="r" unicode="r" horiz-adv-x="724" 
d="M616 1042q53 0 93 -10v-270q-45 12 -99 12q-90 0 -149 -68q-60 -69 -60 -208v-498h-323v1024h311v-135q83 153 227 153z" />
    <glyph glyph-name="s" unicode="s" horiz-adv-x="921" 
d="M461 -18q-418 0 -424 342h313q0 -106 111 -107q109 0 108 96q0 40 -21 58t-65 22l-114 15q-144 16 -227 87t-83 230q0 152 101.5 234.5t294.5 82.5q213 0 312 -77.5t103 -239.5h-301q0 94 -102 94q-96 0 -96 -88q0 -64 82 -74l114 -12q154 -17 235 -86q83 -71 83 -227
q0 -169 -107.5 -259.5t-316.5 -90.5z" />
    <glyph glyph-name="t" unicode="t" horiz-adv-x="727" 
d="M596 258q38 0 76 6v-270q-70 -10 -148 -10q-185 0 -270 79q-86 78 -86 295v410h-133v256h133v307h324v-307h172v-256h-172v-410q0 -56 22 -78t82 -22z" />
    <glyph glyph-name="u" unicode="u" horiz-adv-x="1003" 
d="M604 373v651h322v-1024h-310v119q-92 -137 -247 -137q-168 0 -234 95q-67 94 -67 281v666h321v-643q0 -77 25 -109t80 -32q50 0 80 34.5t30 98.5z" />
    <glyph glyph-name="v" unicode="v" horiz-adv-x="978" 
d="M489 362l129 662h345l-287 -1024h-371l-287 1024h342z" />
    <glyph glyph-name="w" unicode="w" horiz-adv-x="1470" 
d="M1001 356l107 668h338l-248 -1024h-338l-125 629l-123 -629h-338l-249 1024h340l106 -670l107 670h315z" />
    <glyph glyph-name="x" unicode="x" horiz-adv-x="997" 
d="M725 520l254 -520h-367l-116 377l-125 -377h-353l250 530l-223 494h346l105 -360l108 360h346z" />
    <glyph glyph-name="y" unicode="y" horiz-adv-x="1001" 
d="M500 395l143 629h342l-407 -1434h-304l117 410h-69l-304 1024h344z" />
    <glyph glyph-name="z" unicode="z" horiz-adv-x="890" 
d="M838 770l-394 -514h404v-256h-811v256l407 514h-376v254h770v-254z" />
    <glyph glyph-name="braceleft" unicode="{" horiz-adv-x="655" 
d="M580 -115v-231q-135 0 -232 49q-176 80 -176 342v289q0 51 -21.5 81.5t-58.5 30.5h-31v236h31q37 0 58.5 30.5t21.5 82.5v286q0 234 133 322q102 68 275 67v-227q-46 0 -74 -20q-45 -37 -45 -121v-268q0 -84 -34 -158t-91 -113q125 -86 125 -268v-270q0 -92 47 -121
q28 -17 72 -19z" />
    <glyph glyph-name="bar" unicode="|" horiz-adv-x="641" 
d="M453 -344h-265v1880h265v-1880z" />
    <glyph glyph-name="braceright" unicode="}" horiz-adv-x="655" 
d="M78 -346v231q46 0 69 19q46 28 48 121v270q0 87 33.5 158t93.5 110q-59 39 -93 111.5t-34 159.5v268q0 90 -43 121q-32 20 -74 20v227q174 0 274 -67q131 -89 131 -322v-286q0 -51 22.5 -82t57.5 -31h33v-236h-33q-36 0 -58 -30.5t-22 -81.5v-289q0 -262 -176 -342
q-95 -49 -229 -49z" />
    <glyph glyph-name="asciitilde" unicode="~" 
d="M190 348h-147q0 164 68 256t188 92q59 0 125 -22l190 -68q39 -16 84 -16q109 0 109 115h147q0 -161 -68 -255q-69 -94 -188 -94q-60 0 -125 25l-190 68q-48 16 -84 16q-51 0 -80 -31t-29 -86z" />
    <glyph glyph-name="uni00A0" unicode="&#xa0;" horiz-adv-x="487" 
 />
    <glyph glyph-name="exclamdown" unicode="&#xa1;" horiz-adv-x="593" 
d="M137 702v322h320v-322h-320zM125 -410l33 979h274l37 -979h-344z" />
    <glyph glyph-name="cent" unicode="&#xa2;" horiz-adv-x="978" 
d="M483 221q61 0 86 36.5t25 129.5h317q0 -344 -309 -395v-215h-233v215q-169 27 -245.5 152t-76.5 370q0 244 76.5 368t245.5 150v215h233v-215q309 -45 309 -397h-317q0 101 -24 135q-26 35 -87 35q-72 0 -93 -61q-21 -62 -21 -238q0 -165 23 -225q22 -60 91 -60z" />
    <glyph glyph-name="sterling" unicode="&#xa3;" horiz-adv-x="1310" 
d="M645 528v-254h529v-274h-1024v274h149v254h-149v263h149v112q0 300 101 424q100 123 333 123q244 0 336 -113q92 -115 92 -383h-336q-1 123 -19 169q-18 44 -67 44q-55 0 -74.5 -43t-19.5 -149v-184h406v-263h-406z" />
    <glyph glyph-name="yen" unicode="&#xa5;" horiz-adv-x="1314" 
d="M825 1436h392l-250 -551h123v-246h-236l-23 -49v-82h259v-246h-259v-262h-352v262h-256v246h256v78l-24 53h-232v246h121l-246 549h394l167 -502z" />
    <glyph glyph-name="brokenbar" unicode="&#xa6;" horiz-adv-x="641" 
d="M453 733h-265v803h265v-803zM453 -344h-265v803h265v-803z" />
    <glyph glyph-name="section" unicode="&#xa7;" horiz-adv-x="1148" 
d="M1012 580q0 -164 -82 -261q55 -89 55 -251q0 -197 -111.5 -305.5t-316.5 -108.5q-425 0 -432 397h307q0 -137 121 -137q61 0 89 31.5t28 109.5q0 67 -23 97t-76 36l-108 15q-149 19 -229 95q-80 75 -80 251q0 160 82 248q-62 94 -64 262q0 187 104 289t297 102
q413 0 414 -379h-299q0 127 -104 127q-51 0 -77 -30t-26 -101q0 -102 84 -117l117 -14q155 -18 243 -98q87 -80 87 -258zM549 479l125 -16h2q23 30 22 84q0 52 -23 77t-75 31l-113 19q-35 -35 -34 -99q0 -84 96 -96z" />
    <glyph glyph-name="dieresis" unicode="&#xa8;" horiz-adv-x="866" 
d="M373 1141h-271v268h271v-268zM764 1141h-270v268h270v-268z" />
    <glyph glyph-name="copyright" unicode="&#xa9;" horiz-adv-x="1462" 
d="M731 -18q-291 0 -448 195q-158 194 -158 540q0 345 158 541q158 194 448 194q292 0 450 -194q156 -195 156 -541q0 -347 -156 -540q-157 -195 -450 -195zM392 283q119 -164 339 -164q221 0 338 164q117 163 117 434t-117 434q-117 164 -338 164q-220 0 -339 -164
q-118 -163 -118 -434t118 -434zM727 334q-151 0 -219 90.5t-68 292.5q0 206 70 294q71 89 221 89q138 0 205.5 -70t67.5 -219h-191q0 69 -18.5 94t-67.5 25q-55 0 -71 -45q-17 -46 -17 -172q0 -123 18 -166q16 -43 70 -43q49 0 67.5 24.5t18.5 92.5h191q-2 -287 -277 -287z
" />
    <glyph glyph-name="ordfeminine" unicode="&#xaa;" horiz-adv-x="712" 
d="M373 1448q149 0 216.5 -61.5t67.5 -182.5v-473h-215v84q-63 -96 -184 -96q-99 0 -156 56.5t-57 164.5q0 109 61.5 168t169.5 59h156v56q0 59 -69 59q-70 0 -70 -59h-209q0 225 289 225zM348 885q84 0 84 112v39h-70q-82 0 -81 -78q-1 -73 67 -73z" />
    <glyph glyph-name="guillemotleft" unicode="&#xab;" horiz-adv-x="1079" 
d="M508 0l-412 387v256l412 387v-293l-240 -221l240 -223v-293zM557 643l412 387v-293l-240 -221l240 -223v-293l-412 387v256z" />
    <glyph glyph-name="uni00AD" unicode="&#xad;" horiz-adv-x="829" 
d="M707 455h-582v266h582v-266z" />
    <glyph glyph-name="registered" unicode="&#xae;" horiz-adv-x="1081" 
d="M541 1452q190 0 298 -131q107 -131 107 -360q0 -230 -107 -361q-108 -131 -298 -131q-187 0 -297 131q-109 130 -109 361q0 230 109 360q110 131 297 131zM319 674q79 -111 222 -111q141 0 222 110q81 109 81 288q0 177 -81 287q-81 108 -222 108q-143 0 -222 -109
q-81 -109 -81 -286t81 -287zM641 948q39 -19 57 -100l31 -135h-123l-31 149q-6 27 -15 36t-32 9h-30v-194h-123v501h166q166 0 166 -145q0 -83 -66 -121zM539 1120h-41v-116h41q29 0 39 12.5t10 46.5q0 57 -49 57z" />
    <glyph glyph-name="overscore" unicode="&#xaf;" horiz-adv-x="724" 
d="M623 1169h-521v197h521v-197z" />
    <glyph glyph-name="degree" unicode="&#xb0;" horiz-adv-x="839" 
d="M422 868q-140 0 -203 68.5t-63 222.5q0 157 63 225t203 68q138 0 200 -68t62 -225q0 -155 -62 -223t-200 -68zM420 1028q44 0 61 28t17 99q0 78 -17 106.5t-59 28.5q-46 0 -63 -27.5t-17 -97.5q0 -82 18 -109q16 -28 60 -28z" />
    <glyph glyph-name="plusminus" unicode="&#xb1;" 
d="M633 1200v-250h246v-282h-246v-252h-271v252h-245v282h245v250h271zM879 0h-762v285h762v-285z" />
    <glyph glyph-name="uni00B2" unicode="&#xb2;" horiz-adv-x="604" 
d="M260 924v-35h318v-189h-555v254q0 223 208 248l62 6q35 4 45 18.5t10 59.5q0 47 -7.5 61.5t-30.5 14.5t-31.5 -17t-8.5 -67h-233q0 147 70 207q70 59 204 59q270 0 271 -256q0 -148 -49 -200q-49 -53 -142 -64l-72 -10q-33 -8 -46 -27.5t-13 -62.5z" />
    <glyph glyph-name="uni00B3" unicode="&#xb3;" horiz-adv-x="616" 
d="M518 1126q76 -58 76 -190q0 -246 -285 -246q-157 0 -222 71q-64 70 -64 212h225q0 -61 13 -77q14 -17 46 -17q37 0 49.5 15t12.5 62q0 78 -60 78h-73v185h73q29 0 39 14.5t10 56.5q0 44 -10.5 58t-40.5 14q-31 0 -40 -15.5t-9 -70.5h-231q0 140 65.5 204t218.5 64
q279 0 279 -241q0 -125 -72 -177z" />
    <glyph glyph-name="acute" unicode="&#xb4;" horiz-adv-x="677" 
d="M328 1141h-226l140 329h333z" />
    <glyph glyph-name="paragraph" unicode="&#xb6;" horiz-adv-x="1286" 
d="M418 1434h751v-203h-77v-1575h-267v1575h-108v-1575h-264v989h-33q-144 0 -230 102q-86 101 -86 289q0 194 89 297q89 101 225 101z" />
    <glyph glyph-name="middot" unicode="&#xb7;" horiz-adv-x="612" 
d="M489 420h-366v391h366v-391z" />
    <glyph glyph-name="cedilla" unicode="&#xb8;" horiz-adv-x="673" 
d="M365 -94h8q102 0 150 -38.5t48 -131.5q0 -103 -54.5 -152t-174.5 -49q-135 0 -187 52q-53 53 -53 147h166q0 -62 66 -64q34 0 48.5 14t14.5 50q0 32 -14.5 44.5t-48.5 12.5h-131l73 232h144z" />
    <glyph glyph-name="uni00B9" unicode="&#xb9;" horiz-adv-x="509" 
d="M182 1536h246v-836h-240v566l-165 -115v229z" />
    <glyph glyph-name="ordmasculine" unicode="&#xba;" horiz-adv-x="710" 
d="M588 809q-72 -86 -233 -86q-162 0 -233 86t-71 278q0 190 72 277.5t231 87.5q161 0 233 -86.5t72 -278.5t-71 -278zM354 887q50 0 67 42q15 42 15 158q0 121 -16 160q-17 41 -66 41t-63 -41q-15 -41 -15 -159q0 -121 16 -160q15 -41 62 -41z" />
    <glyph glyph-name="guillemotright" unicode="&#xbb;" horiz-adv-x="1079" 
d="M350 516l-239 221v293l411 -387v-256l-411 -387v293zM571 737v293l412 -387v-256l-412 -387v293l240 223z" />
    <glyph glyph-name="onequarter" unicode="&#xbc;" horiz-adv-x="1357" 
d="M229 -37l648 1503h192l-647 -1503h-193zM428 1434v-836h-240v565l-165 -114v229l159 156h246zM1260 350h75v-184h-75v-166h-226v166h-311v184l258 486h279v-486zM1034 565l-102 -215h102v215z" />
    <glyph glyph-name="onehalf" unicode="&#xbd;" horiz-adv-x="1359" 
d="M229 -37l648 1503h192l-647 -1503h-193zM428 1434v-836h-240v565l-165 -114v229l159 156h246zM1018 223v-35h317v-188h-555v254q0 226 207 248l64 6q33 4 43 19.5t10 58.5q0 46 -8 61t-29 15q-25 0 -33 -16.5t-8 -67.5h-233q1 147 72 207q70 59 202 59q270 0 270 -256
q0 -148 -49 -200q-49 -54 -139 -64l-72 -11q-33 -8 -46 -27.5t-13 -62.5z" />
    <glyph glyph-name="threequarters" unicode="&#xbe;" horiz-adv-x="1439" 
d="M311 -37l647 1503h193l-647 -1503h-193zM594 834q0 -246 -285 -246q-157 0 -222 71q-64 70 -64 211h225q0 -61 13 -77q14 -17 46 -17q37 0 49.5 15.5t12.5 62.5q0 78 -60 78h-73v184h73q29 0 39 15t10 57q0 44 -10.5 58t-40.5 14q-31 0 -40 -15.5t-9 -70.5h-231
q0 140 65.5 204t218.5 64q279 0 279 -242q0 -124 -72 -176q76 -58 76 -190zM1341 350h76v-184h-76v-166h-225v166h-311v184l258 486h278v-486zM1116 565l-102 -215h102v215z" />
    <glyph glyph-name="questiondown" unicode="&#xbf;" horiz-adv-x="1036" 
d="M430 1024h326v-322h-326v322zM459 569h274l6 -194q6 -164 -141 -217l-63 -27q-51 -17 -72 -45q-21 -29 -21 -98q0 -73 23.5 -101t73.5 -28q61 0 86.5 36.5t25.5 129.5h314q0 -242 -111 -347q-112 -104 -317 -104q-428 0 -428 418q0 270 190 334l76 26q77 28 82 119z" />
    <glyph glyph-name="Agrave" unicode="&#xc0;" horiz-adv-x="1183" 
d="M584 1874l137 -330h-225l-248 330h336zM1155 0h-354l-45 223h-328l-45 -223h-352l375 1434h374zM592 1030l-111 -541h221z" />
    <glyph glyph-name="Aacute" unicode="&#xc1;" horiz-adv-x="1183" 
d="M618 1880h334l-247 -330h-226zM1155 0h-354l-45 223h-328l-45 -223h-352l375 1434h374zM592 1030l-111 -541h221z" />
    <glyph glyph-name="Acircumflex" unicode="&#xc2;" horiz-adv-x="1183" 
d="M682 1544l-90 160l-92 -160h-242l219 330h228l219 -330h-242zM1155 0h-354l-45 223h-328l-45 -223h-352l375 1434h374zM592 1030l-111 -541h221z" />
    <glyph glyph-name="Atilde" unicode="&#xc3;" horiz-adv-x="1183" 
d="M475 1628q-71 0 -69 -90h-150q0 133 50.5 211t137.5 78q44 0 101 -23l82 -35q33 -16 69 -16q68 0 68 84h160q0 -133 -51.5 -209t-141.5 -76q-49 0 -106 25l-88 37q-33 14 -62 14zM1155 0h-354l-45 223h-328l-45 -223h-352l375 1434h374zM592 1030l-111 -541h221z" />
    <glyph glyph-name="Adieresis" unicode="&#xc4;" horiz-adv-x="1183" 
d="M260 1819h270v-269h-270v269zM651 1819h271v-269h-271v269zM1155 0h-354l-45 223h-328l-45 -223h-352l375 1434h374zM592 1030l-111 -541h221z" />
    <glyph glyph-name="Aring" unicode="&#xc5;" horiz-adv-x="1183" 
d="M592 1518q-201 0 -201 202q0 111 50.5 160t146.5 49q203 0 203 -203q0 -208 -199 -208zM657 1722q0 84 -65 84q-66 0 -66 -82t64 -82q69 0 67 80zM1155 0h-354l-45 223h-328l-45 -223h-352l375 1434h374zM592 1030l-111 -541h221z" />
    <glyph glyph-name="AE" unicode="&#xc6;" horiz-adv-x="1626" 
d="M1133 598l30 -319h410v-279h-707l-22 260h-377l-78 -260h-362l508 1434h1019v-277h-477l29 -283h426v-276h-399zM735 1157l-188 -631h276l-53 631h-35z" />
    <glyph glyph-name="Ccedilla" unicode="&#xc7;" horiz-adv-x="1130" 
d="M580 268q92 0 125 55q32 55 32 199h346q0 -264 -108.5 -394t-333.5 -144l-37 -78h8q102 0 150.5 -38.5t48.5 -131.5q0 -103 -55 -152t-174 -49q-135 0 -187 52q-53 53 -53 147h166q0 -62 65 -64q34 0 49 14t15 50q0 32 -15 44.5t-49 12.5h-131l62 195q-236 20 -339 189
q-104 170 -104 540q0 401 123 569t398 168q258 0 382 -126q123 -126 123 -415h-348q0 148 -34 201q-35 53 -123 53q-98 0 -132 -91q-34 -90 -34 -355q0 -266 35 -359q35 -92 129 -92z" />
    <glyph glyph-name="Egrave" unicode="&#xc8;" horiz-adv-x="1011" 
d="M510 1874l137 -330h-225l-248 330h336zM446 598v-319h512v-279h-856v1434h838v-277h-494v-283h472v-276h-472z" />
    <glyph glyph-name="Eacute" unicode="&#xc9;" horiz-adv-x="1011" 
d="M545 1880h334l-248 -330h-225zM446 598v-319h512v-279h-856v1434h838v-277h-494v-283h472v-276h-472z" />
    <glyph glyph-name="Ecircumflex" unicode="&#xca;" horiz-adv-x="1011" 
d="M608 1544l-90 160l-92 -160h-242l219 330h228l219 -330h-242zM446 598v-319h512v-279h-856v1434h838v-277h-494v-283h472v-276h-472z" />
    <glyph glyph-name="Edieresis" unicode="&#xcb;" horiz-adv-x="1011" 
d="M186 1819h271v-269h-271v269zM578 1819h270v-269h-270v269zM446 598v-319h512v-279h-856v1434h838v-277h-494v-283h472v-276h-472z" />
    <glyph glyph-name="Igrave" unicode="&#xcc;" horiz-adv-x="528" 
d="M256 1874l137 -330h-225l-248 330h336zM436 0h-344v1434h344v-1434z" />
    <glyph glyph-name="Iacute" unicode="&#xcd;" horiz-adv-x="528" 
d="M379 1550h-225l139 330h334zM436 0h-344v1434h344v-1434z" />
    <glyph glyph-name="Icircumflex" unicode="&#xce;" horiz-adv-x="528" 
d="M356 1544l-90 160l-92 -160h-242l220 330h227l219 -330h-242zM436 0h-344v1434h344v-1434z" />
    <glyph glyph-name="Idieresis" unicode="&#xcf;" horiz-adv-x="528" 
d="M217 1550h-242v269h242v-269zM551 1550h-240v269h240v-269zM436 0h-344v1434h344v-1434z" />
    <glyph glyph-name="Eth" unicode="&#xd0;" horiz-adv-x="1157" 
d="M92 1434h488q280 0 398 -159q118 -158 118 -560q0 -393 -120 -554t-396 -161h-488v582h-92v270h92v582zM436 283h119q112 1 150 86q36 84 36 346q0 349 -76 409q-36 27 -110 27h-119v-299h166v-270h-166v-299z" />
    <glyph glyph-name="Ntilde" unicode="&#xd1;" horiz-adv-x="1204" 
d="M487 1628q-71 0 -69 -90h-150q0 133 50.5 211t138.5 78q43 0 100 -23l82 -35q33 -16 70 -16q69 0 67 84h160q0 -133 -51 -209t-142 -76q-49 0 -106 25l-88 37q-33 14 -62 14zM784 629v805h328v-1434h-367l-325 819v-819h-328v1434h381z" />
    <glyph glyph-name="Ograve" unicode="&#xd2;" horiz-adv-x="1157" 
d="M571 1874l138 -330h-226l-247 330h335zM979 151q-117 -169 -399 -169q-283 0 -401 169q-118 167 -118 568q0 404 118 568q119 165 401 165t399 -165t117 -568q0 -399 -117 -568zM580 266q98 0 133 96t35 357q0 265 -37 355q-37 91 -131 91q-98 0 -133 -93
q-35 -94 -35 -353q0 -266 36 -359q36 -94 132 -94z" />
    <glyph glyph-name="Oacute" unicode="&#xd3;" horiz-adv-x="1157" 
d="M694 1550h-225l139 330h334zM979 151q-117 -169 -399 -169q-283 0 -401 169q-118 167 -118 568q0 404 118 568q119 165 401 165t399 -165t117 -568q0 -399 -117 -568zM580 266q98 0 133 96t35 357q0 265 -37 355q-37 91 -131 91q-98 0 -133 -93q-35 -94 -35 -353
q0 -266 36 -359q36 -94 132 -94z" />
    <glyph glyph-name="Ocircumflex" unicode="&#xd4;" horiz-adv-x="1157" 
d="M672 1544l-90 160l-93 -160h-241l219 330h227l219 -330h-241zM179 1287q119 165 401 165t399 -165t117 -568q0 -399 -117 -568t-399 -169q-283 0 -401 169q-118 167 -118 568q0 404 118 568zM580 266q98 0 133 96t35 357q0 265 -37 355q-37 91 -131 91q-98 0 -133 -93
q-35 -94 -35 -353q0 -266 36 -359q36 -94 132 -94z" />
    <glyph glyph-name="Otilde" unicode="&#xd5;" horiz-adv-x="1157" 
d="M395 1538h-149q0 133 50.5 211t137.5 78q44 0 101 -23l81 -35q33 -16 70 -16q68 0 68 84h159q0 -133 -51 -209t-141 -76q-50 0 -107 25l-88 37q-33 14 -61 14q-70 0 -70 -90zM979 151q-117 -169 -399 -169q-283 0 -401 169q-118 167 -118 568q0 404 118 568
q119 165 401 165t399 -165t117 -568q0 -399 -117 -568zM580 266q98 0 133 96t35 357q0 265 -37 355q-37 91 -131 91q-98 0 -133 -93q-35 -94 -35 -353q0 -266 36 -359q36 -94 132 -94z" />
    <glyph glyph-name="Odieresis" unicode="&#xd6;" horiz-adv-x="1157" 
d="M520 1550h-270v269h270v-269zM911 1550h-270v269h270v-269zM979 151q-117 -169 -399 -169q-283 0 -401 169q-118 167 -118 568q0 404 118 568q119 165 401 165t399 -165t117 -568q0 -399 -117 -568zM580 266q98 0 133 96t35 357q0 265 -37 355q-37 91 -131 91
q-98 0 -133 -93q-35 -94 -35 -353q0 -266 36 -359q36 -94 132 -94z" />
    <glyph glyph-name="multiply" unicode="&#xd7;" 
d="M750 995l184 -194l-254 -281l254 -282l-184 -195l-250 279l-252 -279l-185 195l256 282l-253 281l184 194l250 -276z" />
    <glyph glyph-name="Oslash" unicode="&#xd8;" horiz-adv-x="1157" 
d="M893 1536h211l-127 -246q119 -167 119 -571q0 -399 -117 -568t-399 -169q-152 0 -250 45l-66 -129h-209l127 247q-121 169 -121 574q0 404 118 568q119 165 401 165q155 0 247 -43zM412 719q0 -71 2 -121l268 526q-33 41 -102 41q-98 0 -133 -93q-35 -94 -35 -353z
M748 719q0 82 -3 119l-270 -529q34 -43 105 -43q98 0 133 96t35 357z" />
    <glyph glyph-name="Ugrave" unicode="&#xd9;" horiz-adv-x="1120" 
d="M555 1874l137 -330h-225l-248 330h336zM567 -18q-267 0 -373 130q-108 130 -108 439v883h344v-914q0 -148 31 -200q31 -54 106 -54q74 0 103 56q28 55 28 198v914h344v-883q0 -325 -115 -446q-115 -123 -360 -123z" />
    <glyph glyph-name="Uacute" unicode="&#xda;" horiz-adv-x="1120" 
d="M678 1550h-225l139 330h334zM567 -18q-267 0 -373 130q-108 130 -108 439v883h344v-914q0 -148 31 -200q31 -54 106 -54q74 0 103 56q28 55 28 198v914h344v-883q0 -325 -115 -446q-115 -123 -360 -123z" />
    <glyph glyph-name="Ucircumflex" unicode="&#xdb;" horiz-adv-x="1120" 
d="M655 1544l-90 160l-92 -160h-242l220 330h227l219 -330h-242zM698 520v914h344v-883q0 -325 -115 -446q-115 -123 -360 -123q-267 0 -373 130q-108 130 -108 439v883h344v-914q0 -148 31 -200q31 -54 106 -54q74 0 103 56q28 55 28 198z" />
    <glyph glyph-name="Udieresis" unicode="&#xdc;" horiz-adv-x="1120" 
d="M504 1550h-271v269h271v-269zM895 1550h-270v269h270v-269zM567 -18q-267 0 -373 130q-108 130 -108 439v883h344v-914q0 -148 31 -200q31 -54 106 -54q74 0 103 56q28 55 28 198v914h344v-883q0 -325 -115 -446q-115 -123 -360 -123z" />
    <glyph glyph-name="Yacute" unicode="&#xdd;" horiz-adv-x="1200" 
d="M631 1880h334l-248 -330h-225zM788 1434h381l-399 -856v-578h-342v569l-397 865h383l186 -562z" />
    <glyph glyph-name="Thorn" unicode="&#xde;" horiz-adv-x="1069" 
d="M436 1196h84q276 0 390 -108q114 -110 114 -338q0 -245 -125 -346t-379 -101h-84v-303h-344v1434h344v-238zM436 580h115q82 0 112 39q29 38 29 131q0 96 -32.5 134t-108.5 38h-115v-342z" />
    <glyph glyph-name="germandbls" unicode="&#xdf;" horiz-adv-x="1067" 
d="M801 807q110 -31 162.5 -121t52.5 -258q0 -248 -114 -347t-324 -99q-54 0 -101 6v237q26 -2 60 -2q90 0 125.5 53.5t35.5 176.5q0 144 -37 187q-38 44 -112 44h-72v236h35q70 0 98.5 33.5t28.5 121.5q0 75 -26 108.5t-89 33.5q-70 0 -91 -40q-21 -41 -21 -116v-1061h-324
v1042q0 68 6 117q6 50 31 109q25 58 69 96q47 39 131 63.5t193 24.5q443 0 445 -362q0 -215 -162 -283z" />
    <glyph glyph-name="agrave" unicode="&#xe0;" horiz-adv-x="993" 
d="M506 1464l137 -329h-225l-248 329h336zM516 1042q224 0 318 -91t94 -261v-690h-312v123q-92 -141 -266 -141q-133 0 -218 82q-85 81 -85 241t91 244t241 84h225v82q0 88 -102 88q-103 0 -103 -88h-303q0 327 420 327zM481 225q123 0 123 164v55h-104q-115 0 -115 -110
q0 -109 96 -109z" />
    <glyph glyph-name="aacute" unicode="&#xe1;" horiz-adv-x="993" 
d="M541 1470h333l-247 -329h-226zM516 1042q224 0 318 -91t94 -261v-690h-312v123q-92 -141 -266 -141q-133 0 -218 82q-85 81 -85 241t91 244t241 84h225v82q0 88 -102 88q-103 0 -103 -88h-303q0 327 420 327zM481 225q123 0 123 164v55h-104q-115 0 -115 -110
q0 -109 96 -109z" />
    <glyph glyph-name="acircumflex" unicode="&#xe2;" horiz-adv-x="993" 
d="M604 1135l-90 159l-92 -159h-242l219 329h228l219 -329h-242zM516 1042q224 0 318 -91t94 -261v-690h-312v123q-92 -141 -266 -141q-133 0 -218 82q-85 81 -85 241t91 244t241 84h225v82q0 88 -102 88q-103 0 -103 -88h-303q0 327 420 327zM481 225q123 0 123 164v55
h-104q-115 0 -115 -110q0 -109 96 -109z" />
    <glyph glyph-name="atilde" unicode="&#xe3;" horiz-adv-x="993" 
d="M397 1219q-70 0 -69 -91h-150q0 133 50.5 211t138.5 78q46 0 100 -22l82 -35q32 -15 69 -17q68 0 68 84h160q0 -133 -51.5 -208.5t-141.5 -75.5q-47 0 -106 24l-88 37q-32 15 -62 15zM516 1042q224 0 318 -91t94 -261v-690h-312v123q-92 -141 -266 -141q-133 0 -218 82
q-85 81 -85 241t91 244t241 84h225v82q0 88 -102 88q-103 0 -103 -88h-303q0 327 420 327zM481 225q123 0 123 164v55h-104q-115 0 -115 -110q0 -109 96 -109z" />
    <glyph glyph-name="adieresis" unicode="&#xe4;" horiz-adv-x="993" 
d="M182 1409h271v-268h-271v268zM573 1409h271v-268h-271v268zM516 1042q224 0 318 -91t94 -261v-690h-312v123q-92 -141 -266 -141q-133 0 -218 82q-85 81 -85 241t91 244t241 84h225v82q0 88 -102 88q-103 0 -103 -88h-303q0 327 420 327zM481 225q123 0 123 164v55h-104
q-115 0 -115 -110q0 -109 96 -109z" />
    <glyph glyph-name="aring" unicode="&#xe5;" horiz-adv-x="993" 
d="M514 1108q-201 0 -201 203q0 111 50.5 160t146.5 49q203 0 203 -203q0 -209 -199 -209zM580 1313q0 84 -65 84q-66 0 -66 -82t63 -82q68 0 68 80zM516 1042q224 0 318 -91t94 -261v-690h-312v123q-92 -141 -266 -141q-133 0 -218 82q-85 81 -85 241t91 244t241 84h225v82
q0 88 -102 88q-103 0 -103 -88h-303q0 327 420 327zM481 225q123 0 123 164v55h-104q-115 0 -115 -110q0 -109 96 -109z" />
    <glyph glyph-name="ae" unicode="&#xe6;" horiz-adv-x="1523" 
d="M1485 424h-553q5 -125 29 -167q24 -44 92 -44q102 0 102 86h313q0 -150 -114 -232q-116 -83 -303 -83q-227 0 -320 137q-109 -135 -323 -135q-164 0 -262 83q-99 83 -99 236q0 90 33.5 156t89.5 98q98 55 211 55h227v99q0 86 -102 86q-103 0 -103 -86h-303q0 172 104 250
q104 77 267 77q195 0 289 -114q96 115 301 114q218 0 322 -126.5t104 -395.5q0 -60 -2 -94zM1130 768q-25 43 -83 43t-82 -43q-25 -43 -31 -156h227q-6 113 -31 156zM485 225q123 0 123 164v35h-104q-117 0 -117 -98q0 -101 98 -101z" />
    <glyph glyph-name="ccedilla" unicode="&#xe7;" horiz-adv-x="972" 
d="M498 221q68 0 94 36t26 130h318q0 -383 -389 -403l-37 -78h8q102 0 150.5 -38.5t48.5 -131.5q0 -103 -55 -152t-175 -49q-135 0 -187 52t-52 147h166q0 -62 65 -64q34 0 49 14t15 50q0 32 -15 44.5t-49 12.5h-131l62 195q-192 19 -278 146q-85 125 -85 382q0 280 105 405
q104 123 348 123q222 0 329 -98.5t107 -308.5h-318q0 101 -25 135q-26 35 -95 35q-74 0 -96 -60q-23 -63 -23 -239q0 -166 24 -225q22 -60 95 -60z" />
    <glyph glyph-name="egrave" unicode="&#xe8;" horiz-adv-x="980" 
d="M473 1464l137 -329h-225l-248 329h336zM942 424h-571q5 -124 30 -167q26 -44 97 -44q55 0 83 21.5t27 64.5h320q0 -151 -119 -234t-324 -83q-243 0 -341 128q-97 127 -97 400q0 283 104 408q103 124 341 124q242 0 347 -122q105 -123 105 -402q0 -60 -2 -94zM492 813
q-60 0 -86.5 -44.5t-32.5 -156.5h241q-7 115 -34 159q-27 42 -88 42z" />
    <glyph glyph-name="eacute" unicode="&#xe9;" horiz-adv-x="980" 
d="M510 1470h334l-248 -329h-225zM942 424h-571q5 -124 30 -167q26 -44 97 -44q55 0 83 21.5t27 64.5h320q0 -151 -119 -234t-324 -83q-243 0 -341 128q-97 127 -97 400q0 283 104 408q103 124 341 124q242 0 347 -122q105 -123 105 -402q0 -60 -2 -94zM492 813
q-60 0 -86.5 -44.5t-32.5 -156.5h241q-7 115 -34 159q-27 42 -88 42z" />
    <glyph glyph-name="ecircumflex" unicode="&#xea;" horiz-adv-x="980" 
d="M573 1135l-90 159l-92 -159h-241l219 329h227l219 -329h-242zM942 424h-571q5 -124 30 -167q26 -44 97 -44q55 0 83 21.5t27 64.5h320q0 -151 -119 -234t-324 -83q-243 0 -341 128q-97 127 -97 400q0 283 104 408q103 124 341 124q242 0 347 -122q105 -123 105 -402
q0 -60 -2 -94zM492 813q-60 0 -86.5 -44.5t-32.5 -156.5h241q-7 115 -34 159q-27 42 -88 42z" />
    <glyph glyph-name="edieresis" unicode="&#xeb;" horiz-adv-x="980" 
d="M152 1409h270v-268h-270v268zM543 1409h270v-268h-270v268zM942 424h-571q5 -124 30 -167q26 -44 97 -44q55 0 83 21.5t27 64.5h320q0 -151 -119 -234t-324 -83q-243 0 -341 128q-97 127 -97 400q0 283 104 408q103 124 341 124q242 0 347 -122q105 -123 105 -402
q0 -60 -2 -94zM492 813q-60 0 -86.5 -44.5t-32.5 -156.5h241q-7 115 -34 159q-27 42 -88 42z" />
    <glyph glyph-name="igrave" unicode="&#xec;" horiz-adv-x="485" 
d="M233 1464l138 -329h-226l-247 329h335zM406 0h-326v1024h326v-1024z" />
    <glyph glyph-name="iacute" unicode="&#xed;" horiz-adv-x="485" 
d="M356 1141h-225l139 329h334zM406 0h-326v1024h326v-1024z" />
    <glyph glyph-name="icircumflex" unicode="&#xee;" horiz-adv-x="485" 
d="M332 1135l-90 159l-92 -159h-242l219 329h227l219 -329h-241zM406 0h-326v1024h326v-1024z" />
    <glyph glyph-name="idieresis" unicode="&#xef;" horiz-adv-x="493" 
d="M203 1141h-242v268h242v-268zM530 1141h-239v268h239v-268zM406 0h-326v1024h326v-1024z" />
    <glyph glyph-name="eth" unicode="&#xf0;" horiz-adv-x="995" 
d="M870 1333l-106 -59q180 -208 180 -617q0 -158 -21 -270.5t-71 -206.5q-104 -196 -391 -196q-416 0 -416 503q0 469 350 469q131 0 213 -75q-19 153 -96 254l-162 -91l-74 117l130 72q-112 72 -281 78l108 176q251 0 420 -115l144 80zM616 485v17q0 100 -29.5 147
t-94.5 47q-68 0 -96.5 -49t-28.5 -164q0 -133 27 -177q26 -44 98 -44q67 0 96 47q28 46 28 176z" />
    <glyph glyph-name="ntilde" unicode="&#xf1;" horiz-adv-x="1021" 
d="M408 1219q-70 0 -70 -91h-150q0 133 50.5 211t138.5 78q46 0 100 -22l82 -35q32 -15 70 -17q69 0 67 84h160q0 -133 -51 -208.5t-141 -75.5q-48 0 -107 24l-88 37q-30 15 -61 15zM664 1042q160 0 225 -98t65 -276v-668h-323v641q0 77 -25 109t-82 32q-123 0 -123 -133
v-649h-323v1024h311v-119q95 137 275 137z" />
    <glyph glyph-name="ograve" unicode="&#xf2;" horiz-adv-x="989" 
d="M489 1473l138 -330h-226l-247 330h335zM840 107q-105 -125 -344 -125q-240 0 -344 125q-105 124 -105 407q0 280 105 404q103 124 344 124q239 0 344 -124q104 -125 104 -404q0 -282 -104 -407zM496 221q78 0 100 61q22 59 22 232q0 172 -24 232q-26 59 -98 59
q-78 0 -100 -60q-23 -63 -23 -231q0 -176 25 -233q24 -60 98 -60z" />
    <glyph glyph-name="oacute" unicode="&#xf3;" horiz-adv-x="989" 
d="M610 1149h-225l139 330h334zM840 107q-105 -125 -344 -125q-240 0 -344 125q-105 124 -105 407q0 280 105 404q103 124 344 124q239 0 344 -124q104 -125 104 -404q0 -282 -104 -407zM496 221q78 0 100 61q22 59 22 232q0 172 -24 232q-26 59 -98 59q-78 0 -100 -60
q-23 -63 -23 -231q0 -176 25 -233q24 -60 98 -60z" />
    <glyph glyph-name="ocircumflex" unicode="&#xf4;" horiz-adv-x="989" 
d="M588 1143l-90 160l-92 -160h-242l219 330h227l219 -330h-241zM152 918q103 124 344 124q239 0 344 -124q104 -125 104 -404q0 -282 -104 -407q-105 -125 -344 -125q-240 0 -344 125q-105 124 -105 407q0 280 105 404zM496 221q78 0 100 61q22 59 22 232q0 172 -24 232
q-26 59 -98 59q-78 0 -100 -60q-23 -63 -23 -231q0 -176 25 -233q24 -60 98 -60z" />
    <glyph glyph-name="otilde" unicode="&#xf5;" horiz-adv-x="989" 
d="M311 1137h-149q0 133 50.5 210.5t137.5 77.5q47 0 101 -22l81 -35q33 -16 70 -16q68 0 68 84h159q0 -133 -51 -209t-141 -76q-48 0 -107 25l-88 36q-32 14 -61 15q-70 0 -70 -90zM840 107q-105 -125 -344 -125q-240 0 -344 125q-105 124 -105 407q0 280 105 404
q103 124 344 124q239 0 344 -124q104 -125 104 -404q0 -282 -104 -407zM496 221q78 0 100 61q22 59 22 232q0 172 -24 232q-26 59 -98 59q-78 0 -100 -60q-23 -63 -23 -231q0 -176 25 -233q24 -60 98 -60z" />
    <glyph glyph-name="odieresis" unicode="&#xf6;" horiz-adv-x="989" 
d="M436 1149h-270v268h270v-268zM827 1149h-270v268h270v-268zM840 107q-105 -125 -344 -125q-240 0 -344 125q-105 124 -105 407q0 280 105 404q103 124 344 124q239 0 344 -124q104 -125 104 -404q0 -282 -104 -407zM496 221q78 0 100 61q22 59 22 232q0 172 -24 232
q-26 59 -98 59q-78 0 -100 -60q-23 -63 -23 -231q0 -176 25 -233q24 -60 98 -60z" />
    <glyph glyph-name="divide" unicode="&#xf7;" 
d="M637 760h-266v295h266v-295zM901 379h-803v283h803v-283zM637 -14h-266v295h266v-295z" />
    <glyph glyph-name="oslash" unicode="&#xf8;" horiz-adv-x="989" 
d="M895 1126l-90 -174q139 -118 139 -438q0 -282 -104 -407q-105 -125 -344 -125q-99 0 -183 22l-55 -106h-164l90 176q-137 119 -137 440q0 280 105 404q103 124 344 124q102 0 180 -22l55 106h164zM373 514q0 -44 2 -78l182 355q-23 14 -61 14q-78 0 -100 -60
q-23 -63 -23 -231zM496 221q78 0 100 61q22 59 22 232q0 46 -2 76l-184 -354q22 -15 64 -15z" />
    <glyph glyph-name="ugrave" unicode="&#xf9;" horiz-adv-x="1003" 
d="M487 1464l138 -329h-226l-247 329h335zM604 373v651h322v-1024h-310v119q-92 -137 -247 -137q-168 0 -234 95q-67 94 -67 281v666h321v-643q0 -77 25 -109t80 -32q50 0 80 34.5t30 98.5z" />
    <glyph glyph-name="uacute" unicode="&#xfa;" horiz-adv-x="1003" 
d="M522 1470h334l-248 -329h-225zM604 373v651h322v-1024h-310v119q-92 -137 -247 -137q-168 0 -234 95q-67 94 -67 281v666h321v-643q0 -77 25 -109t80 -32q50 0 80 34.5t30 98.5z" />
    <glyph glyph-name="ucircumflex" unicode="&#xfb;" horiz-adv-x="1003" 
d="M586 1135l-90 159l-93 -159h-241l219 329h227l219 -329h-241zM604 373v651h322v-1024h-310v119q-92 -137 -247 -137q-168 0 -234 95q-67 94 -67 281v666h321v-643q0 -77 25 -109t80 -32q50 0 80 34.5t30 98.5z" />
    <glyph glyph-name="udieresis" unicode="&#xfc;" horiz-adv-x="1003" 
d="M164 1409h270v-268h-270v268zM555 1409h270v-268h-270v268zM604 373v651h322v-1024h-310v119q-92 -137 -247 -137q-168 0 -234 95q-67 94 -67 281v666h321v-643q0 -77 25 -109t80 -32q50 0 80 34.5t30 98.5z" />
    <glyph glyph-name="yacute" unicode="&#xfd;" horiz-adv-x="1001" 
d="M535 1470h333l-247 -329h-226zM500 395l143 629h342l-407 -1434h-304l117 410h-69l-304 1024h344z" />
    <glyph glyph-name="thorn" unicode="&#xfe;" horiz-adv-x="1038" 
d="M670 1040q322 0 321 -522q0 -272 -79.5 -403t-254.5 -131q-159 0 -245 90v-484h-324v1844h324v-512q91 118 258 118zM530 236q78 0 107 64.5t29 213.5q0 153 -28 213q-28 61 -108 61q-56 0 -87 -33t-31 -96v-297q-2 -126 118 -126z" />
    <glyph glyph-name="ydieresis" unicode="&#xff;" horiz-adv-x="1001" 
d="M176 1409h270v-268h-270v268zM567 1409h271v-268h-271v268zM500 395l143 629h342l-407 -1434h-304l117 410h-69l-304 1024h344z" />
    <glyph glyph-name="Amacron" unicode="&#x100;" horiz-adv-x="1183" 
d="M330 1776h520v-197h-520v197zM1155 0h-354l-45 223h-328l-45 -223h-352l375 1434h374zM592 1030l-111 -541h221z" />
    <glyph glyph-name="amacron" unicode="&#x101;" horiz-adv-x="993" 
d="M252 1366h520v-197h-520v197zM516 1042q224 0 318 -91t94 -261v-690h-312v123q-92 -141 -266 -141q-133 0 -218 82q-85 81 -85 241t91 244t241 84h225v82q0 88 -102 88q-103 0 -103 -88h-303q0 327 420 327zM481 225q123 0 123 164v55h-104q-115 0 -115 -110
q0 -109 96 -109z" />
    <glyph glyph-name="Abreve" unicode="&#x102;" horiz-adv-x="1183" 
d="M594 1542q-166 0 -235 80q-70 79 -70 227h200q0 -66 25 -93t78 -27q100 0 100 120h201q0 -168 -79 -237q-79 -70 -220 -70zM1155 0h-354l-45 223h-328l-45 -223h-352l375 1434h374zM592 1030l-111 -541h221z" />
    <glyph glyph-name="abreve" unicode="&#x103;" horiz-adv-x="993" 
d="M516 1133q-166 0 -235 80q-70 79 -70 227h201q0 -66 24.5 -93.5t77.5 -27.5q100 0 100 121h201q0 -168 -79 -237q-79 -70 -220 -70zM516 1042q224 0 318 -91t94 -261v-690h-312v123q-92 -141 -266 -141q-133 0 -218 82q-85 81 -85 241t91 244t241 84h225v82q0 88 -102 88
q-103 0 -103 -88h-303q0 327 420 327zM481 225q123 0 123 164v55h-104q-115 0 -115 -110q0 -109 96 -109z" />
    <glyph glyph-name="Aogonek" unicode="&#x104;" horiz-adv-x="1183" 
d="M956 -184q0 -72 80 -72q35 0 92 16v-178q-74 -41 -163 -41q-99 0 -154 53t-55 144q0 144 147 262h-102l-45 223h-328l-45 -223h-352l375 1434h374l375 -1434h-92q-107 -104 -107 -184zM592 1030l-111 -541h221z" />
    <glyph glyph-name="aogonek" unicode="&#x105;" horiz-adv-x="993" 
d="M928 0h-68q-106 -103 -106 -184q0 -72 80 -72q35 0 92 16v-178q-74 -41 -164 -41q-99 0 -154 53t-55 144q0 144 147 262h-84v123q-92 -141 -266 -141q-133 0 -218 82q-85 81 -85 241t91 244t241 84h225v82q0 88 -102 88q-103 0 -103 -88h-303q0 329 420 327
q224 0 318 -91t94 -261v-690zM481 225q123 0 123 164v55h-104q-115 0 -115 -110q0 -109 96 -109z" />
    <glyph glyph-name="Cacute" unicode="&#x106;" horiz-adv-x="1130" 
d="M694 1550h-225l139 330h334zM580 -18q-276 0 -397 168q-122 167 -122 565q0 401 123 569t398 168q258 0 382 -126q123 -126 123 -415h-348q0 148 -34 201q-35 53 -123 53q-98 0 -132 -91q-34 -90 -34 -355q0 -266 35 -359q35 -92 129 -92q92 0 125 55q32 55 32 199h346
q0 -284 -123 -412q-125 -128 -380 -128z" />
    <glyph glyph-name="cacute" unicode="&#x107;" horiz-adv-x="972" 
d="M606 1141h-225l139 329h334zM498 -18q-242 0 -346 125q-105 124 -105 407q0 280 105 405q104 123 348 123q222 0 329 -98.5t107 -308.5h-318q0 101 -25 135q-26 35 -95 35q-74 0 -96 -60q-23 -63 -23 -239q0 -166 24 -225q22 -60 95 -60q68 0 94 36t26 130h318
q0 -405 -438 -405z" />
    <glyph glyph-name="Cdotaccent" unicode="&#x10a;" horiz-adv-x="1130" 
d="M719 1544h-279v279h279v-279zM580 -18q-276 0 -397 168q-122 167 -122 565q0 401 123 569t398 168q258 0 382 -126q123 -126 123 -415h-348q0 148 -34 201q-35 53 -123 53q-98 0 -132 -91q-34 -90 -34 -355q0 -266 35 -359q35 -92 129 -92q92 0 125 55q32 55 32 199h346
q0 -284 -123 -412q-125 -128 -380 -128z" />
    <glyph glyph-name="cdotaccent" unicode="&#x10b;" horiz-adv-x="972" 
d="M631 1135h-279v278h279v-278zM498 -18q-242 0 -346 125q-105 124 -105 407q0 280 105 405q104 123 348 123q222 0 329 -98.5t107 -308.5h-318q0 101 -25 135q-26 35 -95 35q-74 0 -96 -60q-23 -63 -23 -239q0 -166 24 -225q22 -60 95 -60q68 0 94 36t26 130h318
q0 -405 -438 -405z" />
    <glyph glyph-name="Ccaron" unicode="&#x10c;" horiz-adv-x="1130" 
d="M694 1550h-227l-219 330h241l93 -160l90 160h241zM580 268q92 0 125 55q32 55 32 199h346q0 -284 -123 -412q-125 -128 -380 -128q-276 0 -397 168q-122 167 -122 565q0 401 123 569t398 168q258 0 382 -126q123 -126 123 -415h-348q0 148 -34 201q-35 53 -123 53
q-98 0 -132 -91q-34 -90 -34 -355q0 -266 35 -359q35 -92 129 -92z" />
    <glyph glyph-name="ccaron" unicode="&#x10d;" horiz-adv-x="972" 
d="M606 1141h-227l-219 329h241l93 -159l90 159h241zM498 221q68 0 94 36t26 130h318q0 -407 -438 -405q-242 0 -346 125q-105 124 -105 407q0 280 105 405q104 123 348 123q222 0 329 -98.5t107 -308.5h-318q0 101 -25 135q-26 35 -95 35q-74 0 -96 -60q-23 -63 -23 -239
q0 -166 24 -225q22 -60 95 -60z" />
    <glyph glyph-name="Dcaron" unicode="&#x10e;" horiz-adv-x="1157" 
d="M629 1550h-228l-219 330h242l92 -160l90 160h242zM92 1434h488q280 0 398 -159q118 -158 118 -560q0 -393 -120 -554t-396 -161h-488v1434zM436 283h119q112 1 150 86q36 84 36 346q0 349 -76 409q-36 27 -110 27h-119v-868z" />
    <glyph glyph-name="dcaron" unicode="&#x10f;" horiz-adv-x="1331" 
d="M627 944v490h325v-1434h-311v123q-97 -141 -270 -141q-171 0 -248 135q-76 134 -76 393q0 270 82.5 401t263.5 131q145 0 234 -98zM1051 1141v293h274v-293l-156 -324h-143l113 324h-88zM508 238q55 0 87 33t32 94v297q0 60 -31.5 93t-83.5 33q-81 0 -110 -65
q-29 -67 -29 -211q0 -153 28 -213q27 -61 107 -61z" />
    <glyph glyph-name="Dcroat" unicode="&#x110;" horiz-adv-x="1157" 
d="M92 1434h488q280 0 398 -159q118 -158 118 -560q0 -393 -120 -554t-396 -161h-488v582h-92v270h92v582zM436 283h119q112 1 150 86q36 84 36 346q0 349 -76 409q-36 27 -110 27h-119v-299h166v-270h-166v-299z" />
    <glyph glyph-name="dslash" unicode="&#x111;" horiz-adv-x="1032" 
d="M952 1288h90v-184h-90v-1104h-311v123q-97 -141 -270 -141q-171 0 -248 135q-76 134 -76 393q0 270 82.5 401t263.5 131q145 0 234 -98v160h-230v184h230v146h325v-146zM508 238q55 0 87 33t32 94v297q0 60 -31.5 93t-83.5 33q-81 0 -110 -65q-29 -67 -29 -211
q0 -153 28 -213q27 -61 107 -61z" />
    <glyph glyph-name="Emacron" unicode="&#x112;" horiz-adv-x="1011" 
d="M256 1776h520v-197h-520v197zM446 598v-319h512v-279h-856v1434h838v-277h-494v-283h472v-276h-472z" />
    <glyph glyph-name="emacron" unicode="&#x113;" horiz-adv-x="980" 
d="M219 1366h520v-197h-520v197zM942 424h-571q5 -124 30 -167q26 -44 97 -44q55 0 83 21.5t27 64.5h320q0 -151 -119 -234t-324 -83q-243 0 -341 128q-97 127 -97 400q0 283 104 408q103 124 341 124q242 0 347 -122q105 -123 105 -402q0 -60 -2 -94zM492 813
q-60 0 -86.5 -44.5t-32.5 -156.5h241q-7 115 -34 159q-27 42 -88 42z" />
    <glyph glyph-name="Edotaccent" unicode="&#x116;" horiz-adv-x="1011" 
d="M377 1823h278v-279h-278v279zM446 598v-319h512v-279h-856v1434h838v-277h-494v-283h472v-276h-472z" />
    <glyph glyph-name="edotaccent" unicode="&#x117;" horiz-adv-x="980" 
d="M342 1413h279v-278h-279v278zM942 424h-571q5 -124 30 -167q26 -44 97 -44q55 0 83 21.5t27 64.5h320q0 -151 -119 -234t-324 -83q-243 0 -341 128q-97 127 -97 400q0 283 104 408q103 124 341 124q242 0 347 -122q105 -123 105 -402q0 -60 -2 -94zM492 813
q-60 0 -86.5 -44.5t-32.5 -156.5h241q-7 115 -34 159q-27 42 -88 42z" />
    <glyph glyph-name="Eogonek" unicode="&#x118;" horiz-adv-x="1011" 
d="M958 0h-67q-104 -102 -105 -184q0 -72 80 -72q35 0 92 16v-178q-77 -41 -163 -41q-101 0 -156 53t-55 144q0 143 149 262h-631v1434h838v-277h-494v-283h472v-276h-472v-319h512v-279z" />
    <glyph glyph-name="eogonek" unicode="&#x119;" horiz-adv-x="980" 
d="M942 424h-571q5 -124 30 -167q26 -44 97 -44q55 0 83 21.5t27 64.5h320q0 -152 -117 -233l-47 -43q-131 -123 -131 -207q0 -72 80 -72q35 0 92 16v-178q-74 -41 -164 -41q-99 0 -154 53t-55 144q0 131 131 248q-44 -4 -78 -4q-243 0 -341 128q-97 127 -97 400
q0 283 104 408q103 124 341 124q242 0 347 -122q105 -123 105 -402q0 -60 -2 -94zM492 813q-60 0 -86.5 -44.5t-32.5 -156.5h241q-7 115 -34 159q-27 42 -88 42z" />
    <glyph glyph-name="Ecaron" unicode="&#x11a;" horiz-adv-x="1011" 
d="M631 1550h-228l-219 330h242l92 -160l90 160h242zM446 598v-319h512v-279h-856v1434h838v-277h-494v-283h472v-276h-472z" />
    <glyph glyph-name="ecaron" unicode="&#x11b;" horiz-adv-x="980" 
d="M594 1141h-227l-220 329h242l92 -159l90 159h242zM942 424h-571q5 -124 30 -167q26 -44 97 -44q55 0 83 21.5t27 64.5h320q0 -151 -119 -234t-324 -83q-243 0 -341 128q-97 127 -97 400q0 283 104 408q103 124 341 124q242 0 347 -122q105 -123 105 -402q0 -60 -2 -94z
M492 813q-60 0 -86.5 -44.5t-32.5 -156.5h241q-7 115 -34 159q-27 42 -88 42z" />
    <glyph glyph-name="Gbreve" unicode="&#x11e;" horiz-adv-x="1179" 
d="M586 1542q-166 0 -235 80q-70 79 -70 227h200q0 -66 24.5 -93t78.5 -27q100 0 100 120h201q0 -168 -79 -237q-79 -70 -220 -70zM645 735h457v-735h-260v182q-84 -201 -346 -200q-242 0 -338 172q-97 172 -97 548q0 416 116 583t405 167q271 0 389 -127q119 -128 119 -401
h-351q0 136 -36 189q-37 52 -115 52q-105 0 -139 -88q-35 -90 -35 -354q2 -190 17 -279.5t51.5 -125.5t113.5 -39q174 0 180 202h-131v254z" />
    <glyph glyph-name="gbreve" unicode="&#x11f;" horiz-adv-x="1013" 
d="M514 1133q-166 0 -235 80q-70 79 -70 227h201q0 -66 24.5 -93.5t77.5 -27.5q100 0 100 121h201q0 -168 -79 -237q-79 -70 -220 -70zM631 934v90h311v-1094q0 -158 -114 -249q-115 -91 -308 -91q-184 0 -294 83q-111 82 -117 253h311q1 -88 98 -88q55 0 77.5 22.5
t22.5 69.5v207q-86 -96 -258 -96q-313 0 -313 494q0 254 83.5 381t250.5 126q161 0 250 -108zM498 285q63 0 91.5 30.5t28.5 98.5v248q0 64 -29.5 95.5t-88.5 30.5q-73 0 -100 -58t-27 -191q0 -138 26 -196q25 -58 99 -58z" />
    <glyph glyph-name="Gdotaccent" unicode="&#x120;" horiz-adv-x="1179" 
d="M444 1823h279v-279h-279v279zM645 735h457v-735h-260v182q-84 -201 -346 -200q-242 0 -338 172q-97 172 -97 548q0 416 116 583t405 167q271 0 389 -127q119 -128 119 -401h-351q0 136 -36 189q-37 52 -115 52q-105 0 -139 -88q-35 -90 -35 -354q2 -190 17 -279.5
t51.5 -125.5t113.5 -39q174 0 180 202h-131v254z" />
    <glyph glyph-name="gdotaccent" unicode="&#x121;" horiz-adv-x="1013" 
d="M373 1413h278v-278h-278v278zM631 934v90h311v-1094q0 -158 -114 -249q-115 -91 -308 -91q-184 0 -294 83q-111 82 -117 253h311q1 -88 98 -88q55 0 77.5 22.5t22.5 69.5v207q-86 -96 -258 -96q-313 0 -313 494q0 254 83.5 381t250.5 126q161 0 250 -108zM498 285
q63 0 91.5 30.5t28.5 98.5v248q0 64 -29.5 95.5t-88.5 30.5q-73 0 -100 -58t-27 -191q0 -138 26 -196q25 -58 99 -58z" />
    <glyph glyph-name="uni0122" unicode="&#x122;" horiz-adv-x="1179" 
d="M645 735h457v-735h-260v182q-84 -201 -346 -200q-242 0 -338 172q-97 172 -97 548q0 416 116 583t405 167q271 0 389 -127q119 -128 119 -401h-351q0 136 -36 189q-37 52 -115 52q-105 0 -139 -88q-35 -90 -35 -354q2 -190 17 -279.5t51.5 -125.5t113.5 -39
q174 0 180 202h-131v254zM543 -326h-88v242h274v-242l-131 -241h-141z" />
    <glyph glyph-name="uni0123" unicode="&#x123;" horiz-adv-x="1013" 
d="M553 1350h88v-242h-274v242l131 241h143zM631 934v90h311v-1094q0 -158 -114 -249q-115 -91 -308 -91q-184 0 -294 83q-111 82 -117 253h311q1 -88 98 -88q55 0 77.5 22.5t22.5 69.5v207q-86 -96 -258 -96q-313 0 -313 494q0 254 83.5 381t250.5 126q161 0 250 -108z
M498 285q63 0 91.5 30.5t28.5 98.5v248q0 64 -29.5 95.5t-88.5 30.5q-73 0 -100 -58t-27 -191q0 -138 26 -196q25 -58 99 -58z" />
    <glyph glyph-name="Hbar" unicode="&#x126;" horiz-adv-x="1189" 
d="M1098 1245h92v-176h-92v-1069h-342v594h-320v-594h-344v1069h-92v176h92v189h344v-189h320v189h342v-189zM436 870h320v199h-320v-199z" />
    <glyph glyph-name="hbar" unicode="&#x127;" horiz-adv-x="1032" 
d="M664 1042q166 0 234 -96q67 -95 67 -278v-668h-324v641q0 79 -26 110t-87 31q-54 0 -85 -34t-31 -99v-649h-324v1104h-98v184h98v146h324v-146h239v-184h-239v-191q94 129 252 129z" />
    <glyph glyph-name="Itilde" unicode="&#x128;" horiz-adv-x="528" 
d="M80 1538h-150q0 133 50.5 211t138.5 78q43 0 100 -23l82 -35q33 -16 70 -16q69 0 67 84h160q0 -133 -51 -209t-141 -76q-50 0 -107 25l-88 37q-33 14 -61 14q-70 0 -70 -90zM436 0h-344v1434h344v-1434z" />
    <glyph glyph-name="itilde" unicode="&#x129;" horiz-adv-x="485" 
d="M55 1128h-149q0 133 51 211t139 78q45 0 99 -22l84 -35q32 -15 69 -17q66 0 66 84h161q0 -132 -51 -208t-141 -76q-51 0 -107 24l-90 37q-32 14 -59 15q-72 0 -72 -91zM406 0h-326v1024h326v-1024z" />
    <glyph glyph-name="Imacron" unicode="&#x12a;" horiz-adv-x="528" 
d="M522 1579h-520v197h520v-197zM436 0h-344v1434h344v-1434z" />
    <glyph glyph-name="imacron" unicode="&#x12b;" horiz-adv-x="485" 
d="M500 1169h-520v197h520v-197zM406 0h-326v1024h326v-1024z" />
    <glyph glyph-name="Iogonek" unicode="&#x12e;" horiz-adv-x="528" 
d="M436 0h-82q-104 -102 -104 -184q0 -72 80 -72q35 0 92 16v-178q-77 -41 -164 -41q-101 0 -156 53t-55 144q0 144 150 262h-105v1434h344v-1434z" />
    <glyph glyph-name="iogonek" unicode="&#x12f;" horiz-adv-x="485" 
d="M80 1128v306h326v-306h-326zM162 0h-82v1024h326v-1024h-84q-105 -102 -107 -184q0 -72 80 -72q35 0 92 16v-178q-74 -41 -164 -41q-99 0 -154 53t-55 144q0 144 148 262z" />
    <glyph glyph-name="Idot" unicode="&#x130;" horiz-adv-x="528" 
d="M403 1544h-278v279h278v-279zM436 0h-344v1434h344v-1434z" />
    <glyph glyph-name="dotlessi" unicode="&#x131;" horiz-adv-x="485" 
d="M406 0h-326v1024h326v-1024z" />
    <glyph glyph-name="IJ" unicode="&#x132;" horiz-adv-x="1538" 
d="M436 0h-344v1434h344v-1434zM1008 -18q-260 0 -353 107q-94 106 -94 312h344q0 -73 25 -104t78 -31q104 0 104 113v1055h342v-1055q0 -214 -111 -305q-113 -92 -335 -92z" />
    <glyph glyph-name="ij" unicode="&#x133;" horiz-adv-x="968" 
d="M406 1128h-326v306h326v-306zM891 1128h-326v306h326v-306zM406 0h-326v1024h326v-1024zM424 -410v265q60 0 98 24q43 33 43 98v1047h326v-1016q0 -249 -150 -344q-60 -36 -150 -55q-91 -19 -167 -19z" />
    <glyph glyph-name="uni0136" unicode="&#x136;" horiz-adv-x="1173" 
d="M1118 1434l-403 -586l430 -848h-420l-215 549l-74 -109v-440h-344v1434h344v-504l262 504h420zM530 -326h-88v242h275v-242l-131 -241h-142z" />
    <glyph glyph-name="uni0137" unicode="&#x137;" horiz-adv-x="1042" 
d="M467 403l-55 -63v-340h-324v1434h324v-711l188 301h397l-329 -385l358 -639h-375zM473 -326h-88v242h274v-242l-131 -241h-141z" />
    <glyph glyph-name="Lacute" unicode="&#x139;" horiz-adv-x="952" 
d="M291 1880h334l-248 -330h-225zM436 1434v-1158h484v-276h-828v1434h344z" />
    <glyph glyph-name="lacute" unicode="&#x13a;" horiz-adv-x="487" 
d="M362 1550h-225l139 330h334zM408 0h-324v1434h324v-1434z" />
    <glyph glyph-name="uni013B" unicode="&#x13b;" horiz-adv-x="952" 
d="M436 1434v-1158h484v-276h-828v1434h344zM442 -326h-88v242h275v-242l-131 -241h-142z" />
    <glyph glyph-name="uni013C" unicode="&#x13c;" horiz-adv-x="487" 
d="M84 0v1434h324v-1434h-324zM205 -326h-88v242h274v-242l-131 -241h-141z" />
    <glyph glyph-name="Lcaron" unicode="&#x13d;" horiz-adv-x="952" 
d="M436 1434v-1158h484v-276h-828v1434h344zM866 1141l-155 -324h-144l113 324h-88v293h274v-293z" />
    <glyph glyph-name="lcaron" unicode="&#x13e;" horiz-adv-x="813" 
d="M408 0h-324v1434h324v-1434zM516 1141v293h275v-293l-156 -324h-143l112 324h-88z" />
    <glyph glyph-name="Ldot" unicode="&#x13f;" horiz-adv-x="952" 
d="M436 1434v-1158h484v-276h-828v1434h344zM549 866h278v-278h-278v278z" />
    <glyph glyph-name="ldot" unicode="&#x140;" horiz-adv-x="860" 
d="M408 0h-324v1434h324v-1434zM817 578h-278v278h278v-278z" />
    <glyph glyph-name="Lslash" unicode="&#x141;" horiz-adv-x="952" 
d="M436 674v-398h484v-276h-828v532l-92 -36v274l92 37v627h344v-486l250 103v-275z" />
    <glyph glyph-name="lslash" unicode="&#x142;" horiz-adv-x="487" 
d="M408 944l84 45v-299l-84 -45v-645h-324v473l-90 -47v299l90 47v662h324v-490z" />
    <glyph glyph-name="Nacute" unicode="&#x143;" horiz-adv-x="1204" 
d="M631 1880h334l-248 -330h-225zM784 629v805h328v-1434h-367l-325 819v-819h-328v1434h381z" />
    <glyph glyph-name="nacute" unicode="&#x144;" horiz-adv-x="1021" 
d="M551 1470h334l-248 -329h-225zM664 1042q160 0 225 -98t65 -276v-668h-323v641q0 77 -25 109t-82 32q-123 0 -123 -133v-649h-323v1024h311v-119q95 137 275 137z" />
    <glyph glyph-name="uni0145" unicode="&#x145;" horiz-adv-x="1204" 
d="M784 629v805h328v-1434h-367l-325 819v-819h-328v1434h381zM561 -326h-88v242h275v-242l-132 -241h-141z" />
    <glyph glyph-name="uni0146" unicode="&#x146;" horiz-adv-x="1021" 
d="M664 1042q160 0 225 -98t65 -276v-668h-323v641q0 77 -25 109t-82 32q-123 0 -123 -133v-649h-323v1024h311v-119q95 137 275 137zM469 -326h-88v242h274v-242l-131 -241h-141z" />
    <glyph glyph-name="Ncaron" unicode="&#x147;" horiz-adv-x="1204" 
d="M715 1550h-228l-219 330h242l92 -160l90 160h242zM784 629v805h328v-1434h-367l-325 819v-819h-328v1434h381z" />
    <glyph glyph-name="ncaron" unicode="&#x148;" horiz-adv-x="1021" 
d="M635 1141h-227l-220 329h242l92 -159l90 159h242zM664 1042q160 0 225 -98t65 -276v-668h-323v641q0 77 -25 109t-82 32q-123 0 -123 -133v-649h-323v1024h311v-119q95 137 275 137z" />
    <glyph glyph-name="Eng" unicode="&#x14a;" horiz-adv-x="1204" 
d="M784 672v762h328v-1446q0 -240 -122 -329t-427 -89v283q122 0 172 26q49 27 49 115v16l-364 848v-858h-328v1434h377z" />
    <glyph glyph-name="eng" unicode="&#x14b;" horiz-adv-x="1021" 
d="M662 1040q160 0 226 -97t66 -275v-660q0 -215 -114 -316.5t-351 -101.5v265q68 0 105 31.5t37 90.5v664q0 77 -26 109t-83 32q-121 0 -121 -133v-649h-323v1024h311v-119q89 135 273 135z" />
    <glyph glyph-name="Omacron" unicode="&#x14c;" horiz-adv-x="1157" 
d="M838 1579h-521v197h521v-197zM979 151q-117 -169 -399 -169q-283 0 -401 169q-118 167 -118 568q0 404 118 568q119 165 401 165t399 -165t117 -568q0 -399 -117 -568zM580 266q98 0 133 96t35 357q0 265 -37 355q-37 91 -131 91q-98 0 -133 -93q-35 -94 -35 -353
q0 -266 36 -359q36 -94 132 -94z" />
    <glyph glyph-name="omacron" unicode="&#x14d;" horiz-adv-x="989" 
d="M756 1178h-520v196h520v-196zM840 107q-105 -125 -344 -125q-240 0 -344 125q-105 124 -105 407q0 280 105 404q103 124 344 124q239 0 344 -124q104 -125 104 -404q0 -282 -104 -407zM496 221q78 0 100 61q22 59 22 232q0 172 -24 232q-26 59 -98 59q-78 0 -100 -60
q-23 -63 -23 -231q0 -176 25 -233q24 -60 98 -60z" />
    <glyph glyph-name="Ohungarumlaut" unicode="&#x150;" horiz-adv-x="1157" 
d="M518 1548h-219l164 330h285zM868 1548h-217l168 330h285zM979 151q-117 -169 -399 -169q-283 0 -401 169q-118 167 -118 568q0 404 118 568q119 165 401 165t399 -165t117 -568q0 -399 -117 -568zM580 266q98 0 133 96t35 357q0 265 -37 355q-37 91 -131 91
q-98 0 -133 -93q-35 -94 -35 -353q0 -266 36 -359q36 -94 132 -94z" />
    <glyph glyph-name="ohungarumlaut" unicode="&#x151;" horiz-adv-x="989" 
d="M436 1147h-219l164 330h285zM786 1147h-217l168 330h285zM840 107q-105 -125 -344 -125q-240 0 -344 125q-105 124 -105 407q0 280 105 404q103 124 344 124q239 0 344 -124q104 -125 104 -404q0 -282 -104 -407zM496 221q78 0 100 61q22 59 22 232q0 172 -24 232
q-26 59 -98 59q-78 0 -100 -60q-23 -63 -23 -231q0 -176 25 -233q24 -60 98 -60z" />
    <glyph glyph-name="OE" unicode="&#x152;" horiz-adv-x="1656" 
d="M1092 598v-319h512v-279h-844v43q-97 -59 -225 -59q-240 0 -357 174t-117 561q0 393 117 562t357 169q127 0 225 -57v41h825v-277h-493v-283h471v-276h-471zM575 268q96 0 126 93q30 91 30 358q0 270 -31 357q-32 89 -125 89q-102 0 -132 -90q-31 -89 -31 -356
q0 -270 33 -360q31 -91 130 -91z" />
    <glyph glyph-name="oe" unicode="&#x153;" horiz-adv-x="1519" 
d="M1481 424h-553q5 -123 29 -166q24 -45 92 -45q100 0 102 86h313q0 -149 -116 -232q-118 -83 -312 -83q-175 0 -272 73q-103 -72 -277 -71q-233 0 -336 124q-104 124 -104 404q0 276 104 401t336 125q179 0 279 -73q102 74 276 73q234 0 337 -123q104 -125 104 -399
q0 -60 -2 -94zM1121 775q-25 36 -78 36q-54 0 -78 -37q-26 -38 -33 -131h221q-7 95 -32 132zM487 221q73 0 95 61q22 59 22 232q0 171 -23 232q-24 59 -94 59q-72 0 -93 -60q-21 -61 -21 -231q0 -176 22 -233q23 -60 92 -60z" />
    <glyph glyph-name="Racute" unicode="&#x154;" horiz-adv-x="1130" 
d="M557 1880h334l-248 -330h-225zM1004 389l90 -389h-353l-86 426q-14 79 -42 104t-93 25h-84v-555h-344v1434h428q268 0 386 -102q118 -103 118 -314q0 -250 -184 -346q61 -31 99 -96.5t65 -186.5zM551 1159h-115v-340h115q82 0 112 38q29 38 29 132q0 99 -31 134
q-31 36 -110 36z" />
    <glyph glyph-name="racute" unicode="&#x155;" horiz-adv-x="724" 
d="M385 1470h334l-248 -329h-225zM389 1024v-135q82 154 227 153q53 0 93 -10v-270q-45 12 -99 12q-90 0 -149 -68q-60 -69 -60 -208v-498h-323v1024h311z" />
    <glyph glyph-name="uni0156" unicode="&#x156;" horiz-adv-x="1130" 
d="M1004 389l90 -389h-353l-86 426q-14 79 -42 104t-93 25h-84v-555h-344v1434h428q268 0 386 -102q118 -103 118 -314q0 -250 -184 -346q61 -31 99 -96.5t65 -186.5zM551 1159h-115v-340h115q82 0 112 38q29 38 29 132q0 99 -31 134q-31 36 -110 36zM528 -326h-88v242h275
v-242l-131 -241h-142z" />
    <glyph glyph-name="uni0157" unicode="&#x157;" horiz-adv-x="724" 
d="M616 1042q53 0 93 -10v-270q-45 12 -99 12q-90 0 -149 -68q-60 -69 -60 -208v-498h-323v1024h311v-135q83 153 227 153zM199 -326h-88v242h274v-242l-131 -241h-141z" />
    <glyph glyph-name="Rcaron" unicode="&#x158;" horiz-adv-x="1130" 
d="M643 1550h-227l-219 330h241l92 -160l91 160h241zM1004 389l90 -389h-353l-86 426q-14 79 -42 104t-93 25h-84v-555h-344v1434h428q268 0 386 -102q118 -103 118 -314q0 -250 -184 -346q61 -31 99 -96.5t65 -186.5zM551 1159h-115v-340h115q82 0 112 38q29 38 29 132
q0 99 -31 134q-31 36 -110 36z" />
    <glyph glyph-name="rcaron" unicode="&#x159;" horiz-adv-x="724" 
d="M469 1141h-227l-219 329h241l92 -159l90 159h242zM616 1042q53 0 93 -10v-270q-45 12 -99 12q-90 0 -149 -68q-60 -69 -60 -208v-498h-323v1024h311v-135q83 153 227 153z" />
    <glyph glyph-name="Sacute" unicode="&#x15a;" horiz-adv-x="1056" 
d="M629 1550h-226l140 330h334zM520 -18q-233 0 -357 108.5t-128 321.5h360q0 -150 127 -150q65 0 97 37.5t32 122.5q0 75 -27.5 112t-91.5 48l-129 22q-83 12 -140 36t-105 68q-99 90 -99 306q0 231 119 335q118 103 342 103q232 0 348.5 -101t118.5 -315h-344
q0 81 -28 114.5t-91 33.5q-57 0 -83.5 -32t-26.5 -110q0 -126 96 -139l137 -20q173 -25 268 -123q93 -97 93 -311q-2 -467 -488 -467z" />
    <glyph glyph-name="sacute" unicode="&#x15b;" horiz-adv-x="921" 
d="M584 1141h-226l140 329h333zM461 -18q-418 0 -424 342h313q0 -106 111 -107q109 0 108 96q0 40 -21 58t-65 22l-114 15q-144 16 -227 87t-83 230q0 152 101.5 234.5t294.5 82.5q213 0 312 -77.5t103 -239.5h-301q0 94 -102 94q-96 0 -96 -88q0 -64 82 -74l114 -12
q154 -17 235 -86q83 -71 83 -227q0 -169 -107.5 -259.5t-316.5 -90.5z" />
    <glyph glyph-name="Scedilla" unicode="&#x15e;" horiz-adv-x="1056" 
d="M1008 449q0 -439 -435 -465l-36 -78h8q102 0 150 -38.5t48 -131.5q0 -103 -54.5 -152t-174.5 -49q-135 0 -187 52q-53 53 -53 147h166q0 -62 66 -64q34 0 48.5 14t14.5 50q0 32 -14.5 44.5t-48.5 12.5h-131l61 195q-394 39 -401 426h360q0 -150 127 -150q65 0 97 37.5
t32 122.5q0 75 -27.5 112t-91.5 48l-129 22q-83 12 -140 36t-105 68q-99 90 -99 306q0 231 119 335q118 103 342 103q232 0 348.5 -101t118.5 -315h-344q0 81 -28 114.5t-91 33.5q-57 0 -83.5 -32t-26.5 -110q0 -126 96 -139l137 -20q173 -25 268 -123q93 -97 93 -311z" />
    <glyph glyph-name="scedilla" unicode="&#x15f;" horiz-adv-x="921" 
d="M885 332q0 -155 -92 -244.5t-269 -103.5l-37 -78h9q102 0 150 -38.5t48 -131.5q0 -103 -54.5 -152t-174.5 -49q-135 0 -187 52q-53 53 -53 147h166q0 -62 66 -64q34 0 48.5 14t14.5 50q0 32 -15 44.5t-48 12.5h-131l61 193q-344 29 -350 340h313q0 -106 111 -107
q109 0 108 96q0 40 -21 58t-65 22l-114 15q-144 16 -227 87t-83 230q0 152 101.5 234.5t294.5 82.5q213 0 312 -77.5t103 -239.5h-301q0 94 -102 94q-96 0 -96 -88q0 -64 82 -74l114 -12q153 -17 235 -85q83 -71 83 -228z" />
    <glyph glyph-name="Scaron" unicode="&#x160;" horiz-adv-x="1056" 
d="M629 1550h-228l-219 330h242l92 -160l90 160h242zM510 903l137 -20q173 -25 268 -123q93 -97 93 -311q0 -467 -488 -467q-233 0 -357 108.5t-128 321.5h360q0 -150 127 -150q65 0 97 37.5t32 122.5q0 75 -27.5 112t-91.5 48l-129 22q-83 12 -140 36t-105 68
q-99 90 -99 306q0 231 119 335q118 103 342 103q232 0 348.5 -101t118.5 -315h-344q0 81 -28 114.5t-91 33.5q-57 0 -83.5 -32t-26.5 -110q0 -126 96 -139z" />
    <glyph glyph-name="scaron" unicode="&#x161;" horiz-adv-x="921" 
d="M584 1141h-228l-219 329h242l92 -159l90 159h242zM453 657l114 -12q154 -17 235 -86q83 -71 83 -227q0 -169 -107.5 -259.5t-316.5 -90.5q-418 0 -424 342h313q0 -106 111 -107q109 0 108 96q0 40 -21 58t-65 22l-114 15q-144 16 -227 87t-83 230q0 152 101.5 234.5
t294.5 82.5q213 0 312 -77.5t103 -239.5h-301q0 94 -102 94q-96 0 -96 -88q0 -64 82 -74z" />
    <glyph glyph-name="uni0162" unicode="&#x162;" horiz-adv-x="1032" 
d="M688 1157v-1157h-121l-45 -94h8q102 0 150.5 -38.5t48.5 -131.5q0 -103 -54.5 -152t-174.5 -49q-135 0 -187 52q-53 53 -53 147h166q0 -62 66 -64q34 0 48.5 14t14.5 50q0 32 -15 44.5t-48 12.5h-132l66 209h-80v1157h-315v277h970v-277h-313z" />
    <glyph glyph-name="uni0163" unicode="&#x163;" horiz-adv-x="727" 
d="M487 -94h9q102 0 150 -38.5t48 -131.5q0 -103 -54.5 -152t-174.5 -49q-135 0 -187 52q-53 53 -53 147h166q0 -62 66 -64q34 0 48.5 14t14.5 50q0 32 -15 44.5t-48 12.5h-131l65 205q-112 22 -168 106q-55 82 -55 256v410h-133v256h133v307h324v-307h172v-256h-172v-410
q0 -56 22 -78t82 -22q38 0 76 6v-270q-70 -10 -148 -10z" />
    <glyph glyph-name="Tcaron" unicode="&#x164;" horiz-adv-x="1032" 
d="M629 1550h-228l-219 330h242l92 -160l90 160h242zM31 1434h970v-277h-313v-1157h-342v1157h-315v277z" />
    <glyph glyph-name="tcaron" unicode="&#x165;" horiz-adv-x="727" 
d="M547 1264v194h233v-194l-110 -197h-121l74 197h-76zM492 768v-410q0 -56 22 -78t82 -22q38 0 76 6v-270q-70 -10 -148 -10q-185 0 -270 79q-86 78 -86 295v410h-133v256h133v307h324v-307h172v-256h-172z" />
    <glyph glyph-name="Tbar" unicode="&#x166;" horiz-adv-x="1032" 
d="M1001 1434v-277h-313v-348h201v-184h-201v-625h-342v625h-199v184h199v348h-315v277h970z" />
    <glyph glyph-name="tbar" unicode="&#x167;" horiz-adv-x="727" 
d="M596 258q38 0 76 6v-270q-70 -10 -148 -10q-185 0 -270 79q-86 78 -86 295v82h-131v185h131v143h-133v256h133v307h324v-307h172v-256h-172v-143h174v-185h-174v-82q0 -56 22 -78t82 -22z" />
    <glyph glyph-name="Utilde" unicode="&#x168;" horiz-adv-x="1120" 
d="M379 1538h-150q0 133 50.5 211t138.5 78q43 0 100 -23l82 -35q33 -16 70 -16q68 0 67 84h160q0 -133 -51 -209t-141 -76q-50 0 -107 25l-88 37q-33 14 -61 14q-70 0 -70 -90zM567 -18q-267 0 -373 130q-108 130 -108 439v883h344v-914q0 -148 31 -200q31 -54 106 -54
q74 0 103 56q28 55 28 198v914h344v-883q0 -325 -115 -446q-115 -123 -360 -123z" />
    <glyph glyph-name="utilde" unicode="&#x169;" horiz-adv-x="1003" 
d="M379 1219q-70 0 -70 -91h-149q0 133 50.5 211t137.5 78q47 0 101 -22l81 -35q32 -15 70 -17q68 0 68 84h159q0 -133 -51 -208.5t-141 -75.5q-49 0 -107 24l-88 37q-30 15 -61 15zM604 373v651h322v-1024h-310v119q-92 -137 -247 -137q-168 0 -234 95q-67 94 -67 281v666
h321v-643q0 -77 25 -109t80 -32q50 0 80 34.5t30 98.5z" />
    <glyph glyph-name="Umacron" unicode="&#x16a;" horiz-adv-x="1120" 
d="M821 1579h-520v197h520v-197zM567 -18q-267 0 -373 130q-108 130 -108 439v883h344v-914q0 -148 31 -200q31 -54 106 -54q74 0 103 56q28 55 28 198v914h344v-883q0 -325 -115 -446q-115 -123 -360 -123z" />
    <glyph glyph-name="umacron" unicode="&#x16b;" horiz-adv-x="1003" 
d="M233 1366h521v-197h-521v197zM604 373v651h322v-1024h-310v119q-92 -137 -247 -137q-168 0 -234 95q-67 94 -67 281v666h321v-643q0 -77 25 -109t80 -32q50 0 80 34.5t30 98.5z" />
    <glyph glyph-name="Uring" unicode="&#x16e;" horiz-adv-x="1120" 
d="M563 1518q-201 0 -201 202q0 111 50.5 160t146.5 49q203 0 203 -203q0 -208 -199 -208zM561 1642q68 0 68 80q0 84 -65 84q-66 0 -66 -82t63 -82zM567 -18q-267 0 -373 130q-108 130 -108 439v883h344v-914q0 -148 31 -200q31 -54 106 -54q74 0 103 56q28 55 28 198v914
h344v-883q0 -325 -115 -446q-115 -123 -360 -123z" />
    <glyph glyph-name="uring" unicode="&#x16f;" horiz-adv-x="1003" 
d="M496 1108q-201 0 -201 203q0 111 50 160t147 49q204 0 202 -203q2 -209 -198 -209zM561 1313q0 84 -65 84q-66 0 -66 -82t64 -82q69 0 67 80zM604 373v651h322v-1024h-310v119q-92 -137 -247 -137q-168 0 -234 95q-67 94 -67 281v666h321v-643q0 -77 25 -109t80 -32
q50 0 80 34.5t30 98.5z" />
    <glyph glyph-name="Uhungarumlaut" unicode="&#x170;" horiz-adv-x="1120" 
d="M502 1548h-219l163 330h285zM852 1548h-217l168 330h284zM567 -18q-267 0 -373 130q-108 130 -108 439v883h344v-914q0 -148 31 -200q31 -54 106 -54q74 0 103 56q28 55 28 198v914h344v-883q0 -325 -115 -446q-115 -123 -360 -123z" />
    <glyph glyph-name="uhungarumlaut" unicode="&#x171;" horiz-adv-x="1003" 
d="M379 1468h285l-230 -329h-219zM1020 1468l-236 -329h-217l168 329h285zM604 373v651h322v-1024h-310v119q-92 -137 -247 -137q-168 0 -234 95q-67 94 -67 281v666h321v-643q0 -77 25 -109t80 -32q50 0 80 34.5t30 98.5z" />
    <glyph glyph-name="Uogonek" unicode="&#x172;" horiz-adv-x="1120" 
d="M698 520v914h344v-883q0 -288 -91 -415q-92 -129 -277 -148q-94 -94 -94 -172q0 -72 79 -72q35 0 93 16v-178q-74 -41 -164 -41q-99 0 -154 53t-55 144q0 134 129 246q-232 13 -327 145q-95 131 -95 422v883h344v-914q0 -148 31 -200q31 -54 106 -54q74 0 103 56
q28 55 28 198z" />
    <glyph glyph-name="uogonek" unicode="&#x173;" horiz-adv-x="1003" 
d="M926 0h-66q-106 -103 -106 -184q0 -72 80 -72q35 0 92 16v-178q-74 -41 -164 -41q-99 0 -154 53t-55 144q0 144 147 262h-84v119q-92 -137 -247 -137q-168 0 -234 95q-67 94 -67 281v666h321v-643q0 -77 25 -109t80 -32q50 0 80 34.5t30 98.5v651h322v-1024z" />
    <glyph glyph-name="Wcircumflex" unicode="&#x174;" horiz-adv-x="1714" 
d="M946 1544l-90 160l-92 -160h-242l219 330h228l219 -330h-242zM1159 492l164 942h360l-352 -1434h-344l-131 918l-131 -918h-344l-350 1434h360l162 -940l135 940h336z" />
    <glyph glyph-name="wcircumflex" unicode="&#x175;" horiz-adv-x="1470" 
d="M827 1135l-90 159l-92 -159h-242l220 329h227l219 -329h-242zM1001 356l107 668h338l-248 -1024h-338l-125 629l-123 -629h-338l-249 1024h340l106 -670l107 670h315z" />
    <glyph glyph-name="Ycircumflex" unicode="&#x176;" horiz-adv-x="1200" 
d="M694 1544l-90 160l-92 -160h-242l219 330h228l219 -330h-242zM788 1434h381l-399 -856v-578h-342v569l-397 865h383l186 -562z" />
    <glyph glyph-name="ycircumflex" unicode="&#x177;" horiz-adv-x="1001" 
d="M598 1135l-90 159l-92 -159h-242l219 329h228l219 -329h-242zM500 395l143 629h342l-407 -1434h-304l117 410h-69l-304 1024h344z" />
    <glyph glyph-name="Ydieresis" unicode="&#x178;" horiz-adv-x="1200" 
d="M272 1819h271v-269h-271v269zM664 1819h270v-269h-270v269zM788 1434h381l-399 -856v-578h-342v569l-397 865h383l186 -562z" />
    <glyph glyph-name="Zacute" unicode="&#x179;" 
d="M528 1880h334l-248 -330h-225zM940 1157l-522 -881h538v-276h-919v276l524 881h-485v277h864v-277z" />
    <glyph glyph-name="zacute" unicode="&#x17a;" horiz-adv-x="890" 
d="M463 1468h334l-248 -329h-225zM838 770l-394 -514h404v-256h-811v256l407 514h-376v254h770v-254z" />
    <glyph glyph-name="Zdotaccent" unicode="&#x17b;" 
d="M360 1823h279v-279h-279v279zM940 1157l-522 -881h538v-276h-919v276l524 881h-485v277h864v-277z" />
    <glyph glyph-name="zdotaccent" unicode="&#x17c;" horiz-adv-x="890" 
d="M295 1411h278v-278h-278v278zM838 770l-394 -514h404v-256h-811v256l407 514h-376v254h770v-254z" />
    <glyph glyph-name="Zcaron" unicode="&#x17d;" 
d="M614 1550h-227l-219 330h242l92 -160l90 160h242zM940 1157l-522 -881h538v-276h-919v276l524 881h-485v277h864v-277z" />
    <glyph glyph-name="zcaron" unicode="&#x17e;" horiz-adv-x="890" 
d="M547 1139h-228l-219 329h242l92 -159l90 159h242zM838 770l-394 -514h404v-256h-811v256l407 514h-376v254h770v-254z" />
    <glyph glyph-name="florin" unicode="&#x192;" horiz-adv-x="937" 
d="M729 1196q-68 0 -93.5 -25.5t-25.5 -89.5v-233h162v-260h-162v-582q0 -195 -84 -288q-83 -92 -245 -115q-59 -11 -148 -13v273q41 0 64 4q46 4 67 29t21 79v613h-133v260h133v223q0 379 397 379q68 0 135 -8v-252q-58 6 -88 6z" />
    <glyph glyph-name="uni01CD" unicode="&#x1cd;" horiz-adv-x="1183" 
d="M705 1550h-228l-219 330h242l92 -160l90 160h242zM1155 0h-354l-45 223h-328l-45 -223h-352l375 1434h374zM592 1030l-111 -541h221z" />
    <glyph glyph-name="uni01CE" unicode="&#x1ce;" horiz-adv-x="993" 
d="M627 1137h-228l-219 329h242l92 -159l90 159h242zM516 1042q224 0 318 -91t94 -261v-690h-312v123q-92 -141 -266 -141q-133 0 -218 82q-85 81 -85 241t91 244t241 84h225v82q0 88 -102 88q-103 0 -103 -88h-303q0 327 420 327zM481 225q123 0 123 164v55h-104
q-115 0 -115 -110q0 -109 96 -109z" />
    <glyph glyph-name="uni01CF" unicode="&#x1cf;" horiz-adv-x="528" 
d="M377 1550h-227l-220 330h242l92 -160l90 160h242zM436 0h-344v1434h344v-1434z" />
    <glyph glyph-name="uni01D0" unicode="&#x1d0;" horiz-adv-x="485" 
d="M354 1141h-227l-219 329h242l92 -159l90 159h241zM406 0h-326v1024h326v-1024z" />
    <glyph glyph-name="uni01D1" unicode="&#x1d1;" horiz-adv-x="1157" 
d="M692 1550h-227l-219 330h241l93 -160l90 160h241zM179 1287q119 165 401 165t399 -165t117 -568q0 -399 -117 -568t-399 -169q-283 0 -401 169q-118 167 -118 568q0 404 118 568zM580 266q98 0 133 96t35 357q0 265 -37 355q-37 91 -131 91q-98 0 -133 -93
q-35 -94 -35 -353q0 -266 36 -359q36 -94 132 -94z" />
    <glyph glyph-name="uni01D2" unicode="&#x1d2;" horiz-adv-x="989" 
d="M610 1149h-227l-219 330h242l92 -160l90 160h241zM152 918q103 124 344 124q239 0 344 -124q104 -125 104 -404q0 -282 -104 -407q-105 -125 -344 -125q-240 0 -344 125q-105 124 -105 407q0 280 105 404zM496 221q78 0 100 61q22 59 22 232q0 172 -24 232q-26 59 -98 59
q-78 0 -100 -60q-23 -63 -23 -231q0 -176 25 -233q24 -60 98 -60z" />
    <glyph glyph-name="uni01D3" unicode="&#x1d3;" horiz-adv-x="1120" 
d="M676 1550h-227l-220 330h242l92 -160l90 160h242zM698 520v914h344v-883q0 -325 -115 -446q-115 -123 -360 -123q-267 0 -373 130q-108 130 -108 439v883h344v-914q0 -148 31 -200q31 -54 106 -54q74 0 103 56q28 55 28 198z" />
    <glyph glyph-name="uni01D4" unicode="&#x1d4;" horiz-adv-x="1003" 
d="M608 1141h-227l-219 329h241l93 -159l90 159h241zM604 373v651h322v-1024h-310v119q-92 -137 -247 -137q-168 0 -234 95q-67 94 -67 281v666h321v-643q0 -77 25 -109t80 -32q50 0 80 34.5t30 98.5z" />
    <glyph glyph-name="uni01D5" unicode="&#x1d5;" horiz-adv-x="1120" 
d="M823 1933h-520v197h520v-197zM504 1550h-271v269h271v-269zM895 1550h-270v269h270v-269zM567 -18q-267 0 -373 130q-108 130 -108 439v883h344v-914q0 -148 31 -200q31 -54 106 -54q74 0 103 56q28 55 28 198v914h344v-883q0 -325 -115 -446q-115 -123 -360 -123z" />
    <glyph glyph-name="uni01D6" unicode="&#x1d6;" horiz-adv-x="1003" 
d="M233 1720h521v-196h-521v196zM164 1409h270v-268h-270v268zM825 1141h-270v268h270v-268zM604 373v651h322v-1024h-310v119q-92 -137 -247 -137q-168 0 -234 95q-67 94 -67 281v666h321v-643q0 -77 25 -109t80 -32q50 0 80 34.5t30 98.5z" />
    <glyph glyph-name="uni01D7" unicode="&#x1d7;" horiz-adv-x="1120" 
d="M678 1903h-225l137 329h336zM502 1550h-271v269h271v-269zM893 1550h-270v269h270v-269zM567 -18q-267 0 -373 130q-108 130 -108 439v883h344v-914q0 -148 31 -200q31 -54 106 -54q74 0 103 56q28 55 28 198v914h344v-883q0 -325 -115 -446q-115 -123 -360 -123z" />
    <glyph glyph-name="uni01D8" unicode="&#x1d8;" horiz-adv-x="1003" 
d="M520 1823h336l-248 -330h-225zM162 1409h270v-268h-270v268zM823 1141h-270v268h270v-268zM604 373v651h322v-1024h-310v119q-92 -137 -247 -137q-168 0 -234 95q-67 94 -67 281v666h321v-643q0 -77 25 -109t80 -32q50 0 80 34.5t30 98.5z" />
    <glyph glyph-name="uni01D9" unicode="&#x1d9;" horiz-adv-x="1120" 
d="M676 1903h-225l-220 329h242l90 -157l90 157h242zM504 1548h-271v269h271v-269zM893 1548h-270v269h270v-269zM698 520v914h344v-883q0 -325 -115 -446q-115 -123 -360 -123q-267 0 -373 130q-108 130 -108 439v883h344v-914q0 -148 31 -200q31 -54 106 -54q74 0 103 56
q28 55 28 198z" />
    <glyph glyph-name="uni01DA" unicode="&#x1da;" horiz-adv-x="1003" 
d="M606 1493h-225l-219 330h241l91 -158l90 158h241zM434 1139h-270v268h270v-268zM823 1139h-270v268h270v-268zM604 373v651h322v-1024h-310v119q-92 -137 -247 -137q-168 0 -234 95q-67 94 -67 281v666h321v-643q0 -77 25 -109t80 -32q50 0 80 34.5t30 98.5z" />
    <glyph glyph-name="uni01DB" unicode="&#x1db;" horiz-adv-x="1120" 
d="M555 2226l137 -330h-225l-248 330h336zM502 1550h-271v269h271v-269zM893 1550h-270v269h270v-269zM567 -18q-267 0 -373 130q-108 130 -108 439v883h344v-914q0 -148 31 -200q31 -54 106 -54q74 0 103 56q28 55 28 198v914h344v-883q0 -325 -115 -446
q-115 -123 -360 -123z" />
    <glyph glyph-name="uni01DC" unicode="&#x1dc;" horiz-adv-x="1003" 
d="M487 1817l138 -330h-226l-247 330h335zM434 1141h-270v268h270v-268zM825 1141h-270v268h270v-268zM604 373v651h322v-1024h-310v119q-92 -137 -247 -137q-168 0 -234 95q-67 94 -67 281v666h321v-643q0 -77 25 -109t80 -32q50 0 80 34.5t30 98.5z" />
    <glyph glyph-name="uni01DE" unicode="&#x1de;" horiz-adv-x="1183" 
d="M330 2130h520v-197h-520v197zM260 1819h270v-269h-270v269zM922 1550h-271v269h271v-269zM1155 0h-354l-45 223h-328l-45 -223h-352l375 1434h374zM592 1030l-111 -541h221z" />
    <glyph glyph-name="uni01DF" unicode="&#x1df;" horiz-adv-x="993" 
d="M252 1720h520v-196h-520v196zM182 1409h271v-268h-271v268zM844 1141h-271v268h271v-268zM516 1042q224 0 318 -91t94 -261v-690h-312v123q-92 -141 -266 -141q-133 0 -218 82q-85 81 -85 241t91 244t241 84h225v82q0 88 -102 88q-103 0 -103 -88h-303q0 327 420 327z
M481 225q123 0 123 164v55h-104q-115 0 -115 -110q0 -109 96 -109z" />
    <glyph glyph-name="Gcaron" unicode="&#x1e6;" horiz-adv-x="1179" 
d="M696 1550h-227l-219 330h242l92 -160l90 160h241zM645 735h457v-735h-260v182q-84 -201 -346 -200q-242 0 -338 172q-97 172 -97 548q0 416 116 583t405 167q271 0 389 -127q119 -128 119 -401h-351q0 136 -36 189q-37 52 -115 52q-105 0 -139 -88q-35 -90 -35 -354
q2 -190 17 -279.5t51.5 -125.5t113.5 -39q174 0 180 202h-131v254z" />
    <glyph glyph-name="gcaron" unicode="&#x1e7;" horiz-adv-x="1013" 
d="M625 1141h-228l-219 329h242l92 -159l90 159h242zM631 934v90h311v-1094q0 -158 -114 -249q-115 -91 -308 -91q-184 0 -294 83q-111 82 -117 253h311q1 -88 98 -88q55 0 77.5 22.5t22.5 69.5v207q-86 -96 -258 -96q-313 0 -313 494q0 254 83.5 381t250.5 126
q161 0 250 -108zM498 285q63 0 91.5 30.5t28.5 98.5v248q0 64 -29.5 95.5t-88.5 30.5q-73 0 -100 -58t-27 -191q0 -138 26 -196q25 -58 99 -58z" />
    <glyph glyph-name="Oslashacute" unicode="&#x1fe;" horiz-adv-x="1157" 
d="M608 1880h334l-248 -330h-225zM893 1536h211l-127 -246q119 -167 119 -571q0 -399 -117 -568t-399 -169q-152 0 -250 45l-66 -129h-209l127 247q-121 169 -121 574q0 404 118 568q119 165 401 165q155 0 247 -43zM412 719q0 -71 2 -121l268 526q-33 41 -102 41
q-98 0 -133 -93q-35 -94 -35 -353zM748 719q0 82 -3 119l-270 -529q34 -43 105 -43q98 0 133 96t35 357z" />
    <glyph glyph-name="oslashacute" unicode="&#x1ff;" horiz-adv-x="989" 
d="M524 1479h334l-248 -330h-225zM895 1126l-90 -174q139 -118 139 -438q0 -282 -104 -407q-105 -125 -344 -125q-99 0 -183 22l-55 -106h-164l90 176q-137 119 -137 440q0 280 105 404q103 124 344 124q102 0 180 -22l55 106h164zM373 514q0 -44 2 -78l182 355
q-23 14 -61 14q-78 0 -100 -60q-23 -63 -23 -231zM496 221q78 0 100 61q22 59 22 232q0 46 -2 76l-184 -354q22 -15 64 -15z" />
    <glyph glyph-name="uni0218" unicode="&#x218;" horiz-adv-x="1056" 
d="M510 903l137 -20q173 -25 268 -123q93 -97 93 -311q0 -467 -488 -467q-233 0 -357 108.5t-128 321.5h360q0 -150 127 -150q65 0 97 37.5t32 122.5q0 75 -27.5 112t-91.5 48l-129 22q-83 12 -140 36t-105 68q-99 90 -99 306q0 231 119 335q118 103 342 103
q232 0 348.5 -101t118.5 -315h-344q0 81 -28 114.5t-91 33.5q-57 0 -83.5 -32t-26.5 -110q0 -126 96 -139zM487 -326h-88v242h275v-242l-131 -241h-142z" />
    <glyph glyph-name="uni0219" unicode="&#x219;" horiz-adv-x="921" 
d="M453 657l114 -12q154 -17 235 -86q83 -71 83 -227q0 -169 -107.5 -259.5t-316.5 -90.5q-418 0 -424 342h313q0 -106 111 -107q109 0 108 96q0 40 -21 58t-65 22l-114 15q-144 16 -227 87t-83 230q0 152 101.5 234.5t294.5 82.5q213 0 312 -77.5t103 -239.5h-301
q0 94 -102 94q-96 0 -96 -88q0 -64 82 -74zM438 -326h-88v242h275v-242l-131 -241h-142z" />
    <glyph glyph-name="uni021A" unicode="&#x21a;" horiz-adv-x="1032" 
d="M31 1434h970v-277h-313v-1157h-342v1157h-315v277zM475 -326h-88v242h275v-242l-132 -241h-141z" />
    <glyph glyph-name="uni021B" unicode="&#x21b;" horiz-adv-x="727" 
d="M596 258q38 0 76 6v-270q-70 -10 -148 -10q-185 0 -270 79q-86 78 -86 295v410h-133v256h133v307h324v-307h172v-256h-172v-410q0 -56 22 -78t82 -22zM438 -326h-88v242h275v-242l-131 -241h-142z" />
    <glyph glyph-name="uni0228" unicode="&#x228;" horiz-adv-x="1011" 
d="M958 279v-279h-356l-45 -94h8q102 0 150.5 -38.5t48.5 -131.5q0 -103 -55 -152t-174 -49q-135 0 -187 52q-53 53 -53 147h166q0 -62 65 -64q34 0 49 14t15 50q0 32 -15 44.5t-49 12.5h-131l66 209h-359v1434h838v-277h-494v-283h472v-276h-472v-319h512z" />
    <glyph glyph-name="uni0229" unicode="&#x229;" horiz-adv-x="980" 
d="M942 424h-571q5 -124 30 -167q26 -44 97 -44q55 0 83 21.5t27 64.5h320q0 -138 -98.5 -219.5t-276.5 -95.5l-37 -78h8q102 0 150.5 -38.5t48.5 -131.5q0 -103 -55 -152t-174 -49q-135 0 -187 52q-53 53 -53 147h166q0 -62 65 -64q34 0 49 14t15 50q0 32 -15 44.5
t-49 12.5h-131l62 193q-204 18 -287 146q-82 127 -82 380q0 283 104 408q103 124 341 124q242 0 347 -122q105 -123 105 -402q0 -60 -2 -94zM492 813q-60 0 -86.5 -44.5t-32.5 -156.5h241q-7 115 -34 159q-27 42 -88 42z" />
    <glyph glyph-name="uni0237" unicode="&#x237;" horiz-adv-x="485" 
d="M-61 -410v265q60 0 98 24q43 33 43 98v1047h326v-1016q0 -249 -150 -344q-60 -36 -150 -55q-91 -19 -167 -19z" />
    <glyph glyph-name="circumflex" unicode="&#x2c6;" horiz-adv-x="870" 
d="M549 1464l219 -329h-242l-90 159l-92 -159h-242l220 329h227z" />
    <glyph glyph-name="caron" unicode="&#x2c7;" horiz-adv-x="870" 
d="M436 1307l90 159h242l-219 -329h-227l-220 329h242z" />
    <glyph glyph-name="breve" unicode="&#x2d8;" horiz-adv-x="808" 
d="M408 1133q-165 0 -236 80q-70 79 -70 227h201q0 -66 25 -93.5t78 -27.5q100 0 100 121h201q0 -168 -79 -237q-79 -70 -220 -70z" />
    <glyph glyph-name="dotaccent" unicode="&#x2d9;" horiz-adv-x="532" 
d="M403 1135h-278v278h278v-278z" />
    <glyph glyph-name="ring" unicode="&#x2da;" horiz-adv-x="604" 
d="M303 1108q-201 0 -201 203q0 111 50.5 160t146.5 49q203 0 203 -203q0 -209 -199 -209zM301 1233q68 0 68 80q0 84 -65 84q-66 0 -66 -82t63 -82z" />
    <glyph glyph-name="ogonek" unicode="&#x2db;" horiz-adv-x="579" 
d="M313 -459q-101 0 -156 53t-55 144q0 161 181 285h151q-129 -115 -129 -207q0 -72 80 -72q35 0 92 16v-178q-77 -41 -164 -41z" />
    <glyph glyph-name="tilde" unicode="&#x2dc;" horiz-adv-x="872" 
d="M252 1128h-150q0 133 50.5 211t138.5 78q46 0 100 -22l82 -35q32 -15 70 -17q69 0 67 84h160q0 -133 -51 -208.5t-141 -75.5q-48 0 -107 24l-88 37q-32 14 -61 15q-70 0 -70 -91z" />
    <glyph glyph-name="hungarumlaut" unicode="&#x2dd;" horiz-adv-x="1009" 
d="M322 1139h-220l164 329h285zM672 1139h-217l168 329h284z" />
    <glyph glyph-name="gravecomb" unicode="&#x300;" horiz-adv-x="0" 
d="M-240 1464l138 -329h-226l-247 329h335z" />
    <glyph glyph-name="acutecomb" unicode="&#x301;" horiz-adv-x="0" 
d="M-352 1141h-226l140 329h334z" />
    <glyph glyph-name="uni0302" unicode="&#x302;" horiz-adv-x="0" 
d="M-322 1464l220 -329h-242l-90 159l-92 -159h-242l219 329h227z" />
    <glyph glyph-name="tildecomb" unicode="&#x303;" horiz-adv-x="0" 
d="M-623 1128h-149q0 133 50.5 211t137.5 78q47 0 101 -22l82 -35q32 -15 69 -17q68 0 68 84h160q0 -133 -51.5 -208.5t-141.5 -75.5q-49 0 -106 24l-89 37q-32 14 -61 15q-70 0 -70 -91z" />
    <glyph glyph-name="uni0304" unicode="&#x304;" horiz-adv-x="0" 
d="M-104 1169h-521v197h521v-197z" />
    <glyph glyph-name="uni0306" unicode="&#x306;" horiz-adv-x="0" 
d="M-401 1133q-165 0 -236 80q-70 79 -70 227h201q0 -66 25 -93.5t78 -27.5q100 0 100 121h201q0 -168 -79 -237q-79 -70 -220 -70z" />
    <glyph glyph-name="uni0307" unicode="&#x307;" horiz-adv-x="0" 
d="M-129 1135h-279v278h279v-278z" />
    <glyph glyph-name="uni0308" unicode="&#x308;" horiz-adv-x="0" 
d="M-494 1141h-270v268h270v-268zM-102 1141h-271v268h271v-268z" />
    <glyph glyph-name="uni030A" unicode="&#x30a;" horiz-adv-x="0" 
d="M-303 1108q-201 0 -201 203q0 111 50.5 160t146.5 49q203 0 203 -203q0 -209 -199 -209zM-305 1233q69 0 67 80q0 84 -66 84q-65 0 -65 -82q1 -82 64 -82z" />
    <glyph glyph-name="uni030B" unicode="&#x30b;" horiz-adv-x="0" 
d="M-690 1139h-219l164 329h284zM-340 1139h-217l168 329h285z" />
    <glyph glyph-name="uni030C" unicode="&#x30c;" horiz-adv-x="0" 
d="M-436 1311l90 159h242l-220 -329h-227l-219 329h242z" />
    <glyph glyph-name="uni0312" unicode="&#x312;" horiz-adv-x="0" 
d="M-270 1522h143l-88 -242h88v-242h-274v242z" />
    <glyph glyph-name="dotbelowcomb" unicode="&#x323;" horiz-adv-x="0" 
d="M-129 -401h-279v278h279v-278z" />
    <glyph glyph-name="uni0326" unicode="&#x326;" horiz-adv-x="0" 
d="M-377 -326v242h275v-242l-131 -241h-142l86 241h-88z" />
    <glyph glyph-name="uni0327" unicode="&#x327;" horiz-adv-x="0" 
d="M-309 -94h8q102 0 150.5 -38.5t48.5 -131.5q0 -103 -55 -152t-175 -49q-135 0 -187 52t-52 147h165q0 -62 66 -64q34 0 49 14t15 50q0 32 -15 44.5t-49 12.5h-131l74 232h143z" />
    <glyph glyph-name="uni0328" unicode="&#x328;" horiz-adv-x="0" 
d="M-266 -459q-101 0 -156 53t-55 144q0 160 180 285h152q-129 -115 -129 -207q0 -72 79 -72q35 0 93 16v-178q-77 -41 -164 -41z" />
    <glyph glyph-name="uni032D" unicode="&#x32d;" horiz-adv-x="0" 
d="M-322 -86l220 -330h-242l-90 160l-92 -160h-242l219 330h227z" />
    <glyph glyph-name="uni0331" unicode="&#x331;" horiz-adv-x="0" 
d="M-104 -375h-572v197h572v-197z" />
    <glyph glyph-name="uni1E04" unicode="&#x1e04;" horiz-adv-x="1087" 
d="M852 752q184 -91 184 -338q0 -414 -442 -414h-502v1434h434q226 0 348 -89q121 -90 121 -292q0 -203 -143 -301zM530 1161h-94v-284h94q74 0 101 30q26 29 26 111q0 85 -28 114q-29 29 -99 29zM436 272h109q83 0 115 39.5t32 134.5q0 97 -33 134.5t-114 37.5h-109v-346z
M674 -401h-279v278h279v-278z" />
    <glyph glyph-name="uni1E05" unicode="&#x1e05;" horiz-adv-x="1038" 
d="M664 1042q171 0 249 -130t78 -390q0 -271 -79.5 -405.5t-247.5 -134.5t-265 127v-109h-311v1434h324v-508q95 116 252 116zM532 236q76 0 105 64t29 212q0 155 -28 215q-28 61 -110 61q-52 0 -84 -33.5t-32 -92.5v-297q0 -60 33 -94.5t87 -34.5zM709 -401h-279v278h279
v-278z" />
    <glyph glyph-name="uni1E0C" unicode="&#x1e0c;" horiz-adv-x="1157" 
d="M92 1434h488q280 0 398 -159q118 -158 118 -560q0 -393 -120 -554t-396 -161h-488v1434zM436 283h119q112 1 150 86q36 84 36 346q0 349 -76 409q-36 27 -110 27h-119v-868zM651 -401h-278v278h278v-278z" />
    <glyph glyph-name="uni1E0D" unicode="&#x1e0d;" horiz-adv-x="1028" 
d="M627 944v490h325v-1434h-311v123q-97 -141 -270 -141q-171 0 -248 135q-76 134 -76 393q0 270 82.5 401t263.5 131q145 0 234 -98zM508 238q55 0 87 33t32 94v297q0 60 -31.5 93t-83.5 33q-81 0 -110 -65q-29 -67 -29 -211q0 -153 28 -213q27 -61 107 -61zM680 -401h-279
v278h279v-278z" />
    <glyph glyph-name="uni1E0E" unicode="&#x1e0e;" horiz-adv-x="1157" 
d="M92 1434h488q280 0 398 -159q118 -158 118 -560q0 -393 -120 -554t-396 -161h-488v1434zM436 283h119q112 1 150 86q36 84 36 346q0 349 -76 409q-36 27 -110 27h-119v-868zM795 -375h-572v197h572v-197z" />
    <glyph glyph-name="uni1E0F" unicode="&#x1e0f;" horiz-adv-x="1028" 
d="M627 944v490h325v-1434h-311v123q-97 -141 -270 -141q-171 0 -248 135q-76 134 -76 393q0 270 82.5 401t263.5 131q145 0 234 -98zM508 238q55 0 87 33t32 94v297q0 60 -31.5 93t-83.5 33q-81 0 -110 -65q-29 -67 -29 -211q0 -153 28 -213q27 -61 107 -61zM805 -375h-572
v197h572v-197z" />
    <glyph glyph-name="uni1E12" unicode="&#x1e12;" horiz-adv-x="1157" 
d="M92 1434h488q280 0 398 -159q118 -158 118 -560q0 -393 -120 -554t-396 -161h-488v1434zM436 283h119q112 1 150 86q36 84 36 346q0 349 -76 409q-36 27 -110 27h-119v-868zM397 -86h228l219 -330h-242l-90 160l-92 -160h-242z" />
    <glyph glyph-name="uni1E13" unicode="&#x1e13;" horiz-adv-x="1032" 
d="M627 944v490h325v-1434h-311v123q-97 -141 -270 -141q-171 0 -248 135q-76 134 -76 393q0 270 82.5 401t263.5 131q145 0 234 -98zM508 238q55 0 87 33t32 94v297q0 60 -31.5 93t-83.5 33q-81 0 -110 -65q-29 -67 -29 -211q0 -153 28 -213q27 -61 107 -61zM430 -86h227
l220 -330h-242l-90 160l-92 -160h-242z" />
    <glyph glyph-name="uni1E24" unicode="&#x1e24;" horiz-adv-x="1189" 
d="M756 870v564h342v-1434h-342v594h-320v-594h-344v1434h344v-564h320zM731 -401h-278v278h278v-278z" />
    <glyph glyph-name="uni1E25" unicode="&#x1e25;" horiz-adv-x="1032" 
d="M664 1042q166 0 234 -96q67 -95 67 -278v-668h-324v641q0 79 -26 110t-87 31q-54 0 -85 -34t-31 -99v-649h-324v1434h324v-521q94 129 252 129zM668 -401h-279v278h279v-278z" />
    <glyph glyph-name="uni1E2E" unicode="&#x1e2e;" horiz-adv-x="528" 
d="M379 1903h-225l137 329h336zM203 1550h-271v269h271v-269zM594 1550h-270v269h270v-269zM436 0h-344v1434h344v-1434z" />
    <glyph glyph-name="uni1E2F" unicode="&#x1e2f;" horiz-adv-x="495" 
d="M348 1493h-225l139 330h334zM203 1141h-242v268h242v-268zM530 1141h-239v268h239v-268zM406 0h-326v1024h326v-1024z" />
    <glyph glyph-name="uni1E36" unicode="&#x1e36;" horiz-adv-x="952" 
d="M436 1434v-1158h484v-276h-828v1434h344zM623 -401h-279v278h279v-278z" />
    <glyph glyph-name="uni1E37" unicode="&#x1e37;" horiz-adv-x="487" 
d="M408 0h-324v1434h324v-1434zM385 -401h-279v278h279v-278z" />
    <glyph glyph-name="uni1E3C" unicode="&#x1e3c;" horiz-adv-x="952" 
d="M436 1434v-1158h484v-276h-828v1434h344zM371 -86h227l219 -330h-242l-90 160l-92 -160h-241z" />
    <glyph glyph-name="uni1E3D" unicode="&#x1e3d;" horiz-adv-x="487" 
d="M84 1434h324v-1434h-324v1434zM360 -86l220 -330h-242l-90 160l-92 -160h-242l219 330h227z" />
    <glyph glyph-name="uni1E3E" unicode="&#x1e3e;" horiz-adv-x="1515" 
d="M786 1880h334l-248 -330h-225zM936 1434h487v-1434h-323v934l-203 -934h-279l-202 934v-934h-324v1434h488l178 -930z" />
    <glyph glyph-name="uni1E3F" unicode="&#x1e3f;" horiz-adv-x="1544" 
d="M809 1470h334l-248 -329h-225zM1192 1042q72 0 128 -25t87 -65q29 -38 45 -92q25 -87 25 -192v-668h-322v641q0 71 -22 106t-80 35q-53 0 -84 -31.5t-31 -86.5v-664h-322v641q0 71 -22 106t-80 35q-115 0 -115 -133v-649h-321v1024h307v-133q85 152 268 151
q189 0 254 -161q86 161 285 161z" />
    <glyph glyph-name="uni1E44" unicode="&#x1e44;" horiz-adv-x="1204" 
d="M463 1823h278v-279h-278v279zM784 629v805h328v-1434h-367l-325 819v-819h-328v1434h381z" />
    <glyph glyph-name="uni1E45" unicode="&#x1e45;" horiz-adv-x="1021" 
d="M383 1413h279v-278h-279v278zM664 1042q160 0 225 -98t65 -276v-668h-323v641q0 77 -25 109t-82 32q-123 0 -123 -133v-649h-323v1024h311v-119q95 137 275 137z" />
    <glyph glyph-name="uni1E46" unicode="&#x1e46;" horiz-adv-x="1204" 
d="M784 629v805h328v-1434h-367l-325 819v-819h-328v1434h381zM727 -401h-278v278h278v-278z" />
    <glyph glyph-name="uni1E47" unicode="&#x1e47;" horiz-adv-x="1021" 
d="M664 1042q160 0 225 -98t65 -276v-668h-323v641q0 77 -25 109t-82 32q-123 0 -123 -133v-649h-323v1024h311v-119q95 137 275 137zM649 -401h-278v278h278v-278z" />
    <glyph glyph-name="uni1E4A" unicode="&#x1e4a;" horiz-adv-x="1204" 
d="M784 629v805h328v-1434h-367l-325 819v-819h-328v1434h381zM487 -86h228l219 -330h-242l-90 160l-92 -160h-242z" />
    <glyph glyph-name="uni1E4B" unicode="&#x1e4b;" horiz-adv-x="1021" 
d="M664 1042q160 0 225 -98t65 -276v-668h-323v641q0 77 -25 109t-82 32q-123 0 -123 -133v-649h-323v1024h311v-119q95 137 275 137zM397 -86h228l219 -330h-242l-90 160l-92 -160h-242z" />
    <glyph glyph-name="uni1E4C" unicode="&#x1e4c;" horiz-adv-x="1157" 
d="M692 1898h-225l137 330h336zM399 1538h-149q0 133 50.5 211t137.5 78q44 0 101 -23l82 -35q33 -16 69 -16q68 0 68 84h160q0 -133 -51.5 -209t-141.5 -76q-50 0 -107 25l-88 37q-33 14 -61 14q-70 0 -70 -90zM979 151q-117 -169 -399 -169q-283 0 -401 169
q-118 167 -118 568q0 404 118 568q119 165 401 165t399 -165t117 -568q0 -399 -117 -568zM580 266q98 0 133 96t35 357q0 265 -37 355q-37 91 -131 91q-98 0 -133 -93q-35 -94 -35 -353q0 -266 36 -359q36 -94 132 -94z" />
    <glyph glyph-name="uni1E4D" unicode="&#x1e4d;" horiz-adv-x="989" 
d="M608 1497h-225l137 330h336zM315 1137h-149q0 133 50.5 210.5t137.5 77.5q47 0 101 -22l82 -35q33 -16 69 -16q68 0 68 84h160q0 -133 -51.5 -209t-141.5 -76q-49 0 -106 25l-89 36q-32 14 -61 15q-70 0 -70 -90zM840 107q-105 -125 -344 -125q-240 0 -344 125
q-105 124 -105 407q0 280 105 404q103 124 344 124q239 0 344 -124q104 -125 104 -404q0 -282 -104 -407zM496 221q78 0 100 61q22 59 22 232q0 172 -24 232q-26 59 -98 59q-78 0 -100 -60q-23 -63 -23 -231q0 -176 25 -233q24 -60 98 -60z" />
    <glyph glyph-name="uni1E50" unicode="&#x1e50;" horiz-adv-x="1157" 
d="M530 2228l138 -330h-226l-247 330h335zM838 1581h-521v197h521v-197zM979 151q-117 -169 -399 -169q-283 0 -401 169q-118 167 -118 568q0 404 118 568q119 165 401 165t399 -165t117 -568q0 -399 -117 -568zM580 266q98 0 133 96t35 357q0 265 -37 355q-37 91 -131 91
q-98 0 -133 -93q-35 -94 -35 -353q0 -266 36 -359q36 -94 132 -94z" />
    <glyph glyph-name="uni1E51" unicode="&#x1e51;" horiz-adv-x="989" 
d="M449 1827l137 -330h-226l-247 330h336zM756 1180h-520v196h520v-196zM840 107q-105 -125 -344 -125q-240 0 -344 125q-105 124 -105 407q0 280 105 404q103 124 344 124q239 0 344 -124q104 -125 104 -404q0 -282 -104 -407zM496 221q78 0 100 61q22 59 22 232
q0 172 -24 232q-26 59 -98 59q-78 0 -100 -60q-23 -63 -23 -231q0 -176 25 -233q24 -60 98 -60z" />
    <glyph glyph-name="uni1E52" unicode="&#x1e52;" horiz-adv-x="1157" 
d="M692 1898h-225l139 330h334zM840 1581h-521v197h521v-197zM979 151q-117 -169 -399 -169q-283 0 -401 169q-118 167 -118 568q0 404 118 568q119 165 401 165t399 -165t117 -568q0 -399 -117 -568zM580 266q98 0 133 96t35 357q0 265 -37 355q-37 91 -131 91
q-98 0 -133 -93q-35 -94 -35 -353q0 -266 36 -359q36 -94 132 -94z" />
    <glyph glyph-name="uni1E53" unicode="&#x1e53;" horiz-adv-x="989" 
d="M610 1497h-225l139 330h334zM758 1180h-520v196h520v-196zM840 107q-105 -125 -344 -125q-240 0 -344 125q-105 124 -105 407q0 280 105 404q103 124 344 124q239 0 344 -124q104 -125 104 -404q0 -282 -104 -407zM496 221q78 0 100 61q22 59 22 232q0 172 -24 232
q-26 59 -98 59q-78 0 -100 -60q-23 -63 -23 -231q0 -176 25 -233q24 -60 98 -60z" />
    <glyph glyph-name="uni1E62" unicode="&#x1e62;" horiz-adv-x="1056" 
d="M520 -18q-233 0 -357 108.5t-128 321.5h360q0 -150 127 -150q65 0 97 37.5t32 122.5q0 75 -27.5 112t-91.5 48l-129 22q-83 12 -140 36t-105 68q-99 90 -99 306q0 231 119 335q118 103 342 103q232 0 348.5 -101t118.5 -315h-344q0 81 -28 114.5t-91 33.5
q-57 0 -83.5 -32t-26.5 -110q0 -126 96 -139l137 -20q173 -25 268 -123q93 -97 93 -311q-2 -467 -488 -467zM668 -401h-279v278h279v-278z" />
    <glyph glyph-name="uni1E63" unicode="&#x1e63;" horiz-adv-x="921" 
d="M461 -18q-418 0 -424 342h313q0 -106 111 -107q109 0 108 96q0 40 -21 58t-65 22l-114 15q-144 16 -227 87t-83 230q0 152 101.5 234.5t294.5 82.5q213 0 312 -77.5t103 -239.5h-301q0 94 -102 94q-96 0 -96 -88q0 -64 82 -74l114 -12q154 -17 235 -86q83 -71 83 -227
q0 -169 -107.5 -259.5t-316.5 -90.5zM618 -401h-278v278h278v-278z" />
    <glyph glyph-name="uni1E6C" unicode="&#x1e6c;" horiz-adv-x="1032" 
d="M31 1434h970v-277h-313v-1157h-342v1157h-315v277zM655 -401h-278v278h278v-278z" />
    <glyph glyph-name="uni1E6D" unicode="&#x1e6d;" horiz-adv-x="727" 
d="M596 258q38 0 76 6v-270q-70 -10 -148 -10q-185 0 -270 79q-86 78 -86 295v410h-133v256h133v307h324v-307h172v-256h-172v-410q0 -56 22 -78t82 -22zM618 -401h-278v278h278v-278z" />
    <glyph glyph-name="uni1E6E" unicode="&#x1e6e;" horiz-adv-x="1032" 
d="M31 1434h970v-277h-313v-1157h-342v1157h-315v277zM799 -375h-572v197h572v-197z" />
    <glyph glyph-name="uni1E6F" unicode="&#x1e6f;" horiz-adv-x="727" 
d="M524 -16q-185 0 -270 79q-86 78 -86 295v410h-133v256h133v307h324v-307h172v-256h-172v-410q0 -56 22 -78t82 -22q38 0 76 6v-270q-70 -10 -148 -10zM190 -375v197h572v-197h-572z" />
    <glyph glyph-name="uni1E70" unicode="&#x1e70;" horiz-adv-x="1032" 
d="M31 1434h970v-277h-313v-1157h-342v1157h-315v277zM401 -86h228l219 -330h-242l-90 160l-92 -160h-242z" />
    <glyph glyph-name="uni1E71" unicode="&#x1e71;" horiz-adv-x="727" 
d="M168 358v410h-133v256h133v307h324v-307h172v-256h-172v-410q0 -56 22 -78t82 -22q38 0 76 6v-270q-70 -10 -148 -10q-185 0 -270 79q-86 78 -86 295zM594 -86l219 -330h-242l-90 160l-92 -160h-242l220 330h227z" />
    <glyph glyph-name="Wgrave" unicode="&#x1e80;" horiz-adv-x="1714" 
d="M848 1874l137 -330h-225l-248 330h336zM1159 492l164 942h360l-352 -1434h-344l-131 918l-131 -918h-344l-350 1434h360l162 -940l135 940h336z" />
    <glyph glyph-name="wgrave" unicode="&#x1e81;" horiz-adv-x="1470" 
d="M729 1464l137 -329h-225l-248 329h336zM1001 356l107 668h338l-248 -1024h-338l-125 629l-123 -629h-338l-249 1024h340l106 -670l107 670h315z" />
    <glyph glyph-name="Wacute" unicode="&#x1e82;" horiz-adv-x="1714" 
d="M883 1880h334l-248 -330h-226zM1159 492l164 942h360l-352 -1434h-344l-131 918l-131 -918h-344l-350 1434h360l162 -940l135 940h336z" />
    <glyph glyph-name="wacute" unicode="&#x1e83;" horiz-adv-x="1470" 
d="M764 1470h334l-248 -329h-225zM1001 356l107 668h338l-248 -1024h-338l-125 629l-123 -629h-338l-249 1024h340l106 -670l107 670h315z" />
    <glyph glyph-name="Wdieresis" unicode="&#x1e84;" horiz-adv-x="1714" 
d="M524 1819h271v-269h-271v269zM915 1819h271v-269h-271v269zM1159 492l164 942h360l-352 -1434h-344l-131 918l-131 -918h-344l-350 1434h360l162 -940l135 940h336z" />
    <glyph glyph-name="wdieresis" unicode="&#x1e85;" horiz-adv-x="1470" 
d="M406 1409h270v-268h-270v268zM797 1409h270v-268h-270v268zM1001 356l107 668h338l-248 -1024h-338l-125 629l-123 -629h-338l-249 1024h340l106 -670l107 670h315z" />
    <glyph glyph-name="uni1E92" unicode="&#x1e92;" 
d="M940 1157l-522 -881h538v-276h-919v276l524 881h-485v277h864v-277zM651 -401h-278v278h278v-278z" />
    <glyph glyph-name="uni1E93" unicode="&#x1e93;" horiz-adv-x="890" 
d="M838 770l-394 -514h404v-256h-811v256l407 514h-376v254h770v-254zM586 -401h-279v278h279v-278z" />
    <glyph glyph-name="uni1E9E" unicode="&#x1e9e;" horiz-adv-x="1120" 
d="M1014 1057l-166 -260q221 -51 221 -355q0 -259 -121 -359q-122 -101 -348 -101q-55 0 -100 6v268q26 -2 57 -2q88 0 123 50.5t35 162.5q0 128 -46 165q-47 38 -139 38v135l136 250q-13 94 -119 94h-111v-1149h-344v1434h461q461 0 461 -377z" />
    <glyph glyph-name="uni1EA1" unicode="&#x1ea1;" horiz-adv-x="993" 
d="M516 1042q224 0 318 -91t94 -261v-690h-312v123q-92 -141 -266 -141q-133 0 -218 82q-85 81 -85 241t91 244t241 84h225v82q0 88 -102 88q-103 0 -103 -88h-303q0 327 420 327zM481 225q123 0 123 164v55h-104q-115 0 -115 -110q0 -109 96 -109zM641 -401h-279v278h279
v-278z" />
    <glyph glyph-name="uni1EAC" unicode="&#x1eac;" horiz-adv-x="1183" 
d="M682 1544l-90 160l-92 -160h-242l219 330h228l219 -330h-242zM780 1434l375 -1434h-354l-45 223h-328l-45 -223h-352l375 1434h374zM592 1030l-111 -541h221zM729 -401h-278v278h278v-278z" />
    <glyph glyph-name="uni1EAD" unicode="&#x1ead;" horiz-adv-x="993" 
d="M604 1135l-90 159l-92 -159h-242l219 329h228l219 -329h-242zM516 1042q224 0 318 -91t94 -261v-690h-312v123q-92 -141 -266 -141q-133 0 -218 82q-85 81 -85 241t91 244t241 84h225v82q0 88 -102 88q-103 0 -103 -88h-303q0 327 420 327zM481 225q123 0 123 164v55
h-104q-115 0 -115 -110q0 -109 96 -109zM641 -401h-279v278h279v-278z" />
    <glyph glyph-name="uni1EB8" unicode="&#x1eb8;" horiz-adv-x="1011" 
d="M446 598v-319h512v-279h-856v1434h838v-277h-494v-283h472v-276h-472zM690 -401h-278v278h278v-278z" />
    <glyph glyph-name="uni1EB9" unicode="&#x1eb9;" horiz-adv-x="980" 
d="M942 424h-571q5 -124 30 -167q26 -44 97 -44q55 0 83 21.5t27 64.5h320q0 -151 -119 -234t-324 -83q-243 0 -341 128q-97 127 -97 400q0 283 104 408q103 124 341 124q242 0 347 -122q105 -123 105 -402q0 -60 -2 -94zM492 813q-60 0 -86.5 -44.5t-32.5 -156.5h241
q-7 115 -34 159q-27 42 -88 42zM649 -401h-278v278h278v-278z" />
    <glyph glyph-name="uni1EBC" unicode="&#x1ebc;" horiz-adv-x="1011" 
d="M401 1628q-71 0 -69 -90h-150q0 133 50.5 211t138.5 78q43 0 100 -23l82 -35q33 -16 70 -16q69 0 67 84h160q0 -133 -51 -209t-142 -76q-49 0 -106 25l-88 37q-33 14 -62 14zM446 598v-319h512v-279h-856v1434h838v-277h-494v-283h472v-276h-472z" />
    <glyph glyph-name="uni1EBD" unicode="&#x1ebd;" horiz-adv-x="980" 
d="M367 1219q-70 0 -70 -91h-150q0 133 50.5 211t138.5 78q46 0 100 -22l82 -35q32 -15 70 -17q68 0 67 84h160q0 -133 -51 -208.5t-141 -75.5q-49 0 -107 24l-88 37q-30 15 -61 15zM942 424h-571q5 -124 30 -167q26 -44 97 -44q55 0 83 21.5t27 64.5h320q0 -151 -119 -234
t-324 -83q-243 0 -341 128q-97 127 -97 400q0 283 104 408q103 124 341 124q242 0 347 -122q105 -123 105 -402q0 -60 -2 -94zM492 813q-60 0 -86.5 -44.5t-32.5 -156.5h241q-7 115 -34 159q-27 42 -88 42z" />
    <glyph glyph-name="uni1EC6" unicode="&#x1ec6;" horiz-adv-x="1011" 
d="M608 1544l-90 160l-92 -160h-242l219 330h228l219 -330h-242zM446 598v-319h512v-279h-856v1434h838v-277h-494v-283h472v-276h-472zM690 -401h-278v278h278v-278z" />
    <glyph glyph-name="uni1EC7" unicode="&#x1ec7;" horiz-adv-x="980" 
d="M573 1135l-90 159l-92 -159h-241l219 329h227l219 -329h-242zM942 424h-571q5 -124 30 -167q26 -44 97 -44q55 0 83 21.5t27 64.5h320q0 -151 -119 -234t-324 -83q-243 0 -341 128q-97 127 -97 400q0 283 104 408q103 124 341 124q242 0 347 -122q105 -123 105 -402
q0 -60 -2 -94zM492 813q-60 0 -86.5 -44.5t-32.5 -156.5h241q-7 115 -34 159q-27 42 -88 42zM649 -401h-278v278h278v-278z" />
    <glyph glyph-name="uni1ECA" unicode="&#x1eca;" horiz-adv-x="528" 
d="M436 0h-344v1434h344v-1434zM403 -401h-278v278h278v-278z" />
    <glyph glyph-name="uni1ECB" unicode="&#x1ecb;" horiz-adv-x="485" 
d="M406 1128h-326v306h326v-306zM406 0h-326v1024h326v-1024zM381 -401h-279v278h279v-278z" />
    <glyph glyph-name="uni1ECC" unicode="&#x1ecc;" horiz-adv-x="1157" 
d="M979 151q-117 -169 -399 -169q-283 0 -401 169q-118 167 -118 568q0 404 118 568q119 165 401 165t399 -165t117 -568q0 -399 -117 -568zM580 266q98 0 133 96t35 357q0 265 -37 355q-37 91 -131 91q-98 0 -133 -93q-35 -94 -35 -353q0 -266 36 -359q36 -94 132 -94z
M719 -401h-279v278h279v-278z" />
    <glyph glyph-name="uni1ECD" unicode="&#x1ecd;" horiz-adv-x="989" 
d="M840 107q-105 -125 -344 -125q-240 0 -344 125q-105 124 -105 407q0 280 105 404q103 124 344 124q239 0 344 -124q104 -125 104 -404q0 -282 -104 -407zM496 221q78 0 100 61q22 59 22 232q0 172 -24 232q-26 59 -98 59q-78 0 -100 -60q-23 -63 -23 -231q0 -176 25 -233
q24 -60 98 -60zM635 -401h-279v278h279v-278z" />
    <glyph glyph-name="uni1ED8" unicode="&#x1ed8;" horiz-adv-x="1157" 
d="M672 1544l-90 160l-93 -160h-241l219 330h227l219 -330h-241zM179 1287q119 165 401 165t399 -165t117 -568q0 -399 -117 -568t-399 -169q-283 0 -401 169q-118 167 -118 568q0 404 118 568zM580 266q98 0 133 96t35 357q0 265 -37 355q-37 91 -131 91q-98 0 -133 -93
q-35 -94 -35 -353q0 -266 36 -359q36 -94 132 -94zM719 -401h-279v278h279v-278z" />
    <glyph glyph-name="uni1ED9" unicode="&#x1ed9;" horiz-adv-x="989" 
d="M588 1143l-90 160l-92 -160h-242l219 330h227l219 -330h-241zM152 918q103 124 344 124q239 0 344 -124q104 -125 104 -404q0 -282 -104 -407q-105 -125 -344 -125q-240 0 -344 125q-105 124 -105 407q0 280 105 404zM496 221q78 0 100 61q22 59 22 232q0 172 -24 232
q-26 59 -98 59q-78 0 -100 -60q-23 -63 -23 -231q0 -176 25 -233q24 -60 98 -60zM635 -401h-279v278h279v-278z" />
    <glyph glyph-name="uni1EE4" unicode="&#x1ee4;" horiz-adv-x="1120" 
d="M567 -18q-267 0 -373 130q-108 130 -108 439v883h344v-914q0 -148 31 -200q31 -54 106 -54q74 0 103 56q28 55 28 198v914h344v-883q0 -325 -115 -446q-115 -123 -360 -123zM707 -401h-279v278h279v-278z" />
    <glyph glyph-name="uni1EE5" unicode="&#x1ee5;" horiz-adv-x="1003" 
d="M604 373v651h322v-1024h-310v119q-92 -137 -247 -137q-168 0 -234 95q-67 94 -67 281v666h321v-643q0 -77 25 -109t80 -32q50 0 80 34.5t30 98.5zM643 -410h-278v279h278v-279z" />
    <glyph glyph-name="Ygrave" unicode="&#x1ef2;" horiz-adv-x="1200" 
d="M596 1874l137 -330h-225l-248 330h336zM788 1434h381l-399 -856v-578h-342v569l-397 865h383l186 -562z" />
    <glyph glyph-name="ygrave" unicode="&#x1ef3;" horiz-adv-x="1001" 
d="M498 1464l137 -329h-225l-248 329h336zM500 395l143 629h342l-407 -1434h-304l117 410h-69l-304 1024h344z" />
    <glyph glyph-name="endash" unicode="&#x2013;" horiz-adv-x="1138" 
d="M1016 455h-893v266h893v-266z" />
    <glyph glyph-name="emdash" unicode="&#x2014;" horiz-adv-x="1660" 
d="M1538 455h-1415v266h1415v-266z" />
    <glyph glyph-name="quoteleft" unicode="&#x2018;" horiz-adv-x="612" 
d="M332 1636h190l-149 -430h116v-391h-366v391z" />
    <glyph glyph-name="quoteright" unicode="&#x2019;" horiz-adv-x="612" 
d="M123 1245v391h366v-391l-208 -430h-191l150 430h-117z" />
    <glyph glyph-name="quotesinglbase" unicode="&#x201a;" horiz-adv-x="612" 
d="M123 0v391h366v-391l-208 -430h-191l150 430h-117z" />
    <glyph glyph-name="quotedblleft" unicode="&#x201c;" horiz-adv-x="1101" 
d="M123 1206l209 430h190l-149 -430h116v-391h-366v391zM821 1636h191l-150 -430h117v-391h-367v391z" />
    <glyph glyph-name="quotedblright" unicode="&#x201d;" horiz-adv-x="1101" 
d="M240 1245h-117v391h366v-391l-208 -430h-191zM612 1245v391h367v-391l-209 -430h-190l149 430h-117z" />
    <glyph glyph-name="quotedblbase" unicode="&#x201e;" horiz-adv-x="1101" 
d="M240 0h-117v391h366v-391l-208 -430h-191zM612 0v391h367v-391l-209 -430h-190l149 430h-117z" />
    <glyph glyph-name="dagger" unicode="&#x2020;" horiz-adv-x="1044" 
d="M670 1012h274v-254h-274v-1092h-295v1092h-275v254h275v454h295v-454z" />
    <glyph glyph-name="daggerdbl" unicode="&#x2021;" horiz-adv-x="1101" 
d="M973 1012v-254h-275v-381h275v-256h-275v-455h-295v455h-274v256h274v381h-274v254h274v454h295v-454h275z" />
    <glyph glyph-name="bullet" unicode="&#x2022;" horiz-adv-x="882" 
d="M442 291q-311 0 -311 311q0 309 311 309q308 0 310 -309q-2 -311 -310 -311z" />
    <glyph glyph-name="ellipsis" unicode="&#x2026;" horiz-adv-x="1996" 
d="M516 0h-366v391h366v-391zM1182 0h-367v391h367v-391zM1847 0h-366v391h366v-391z" />
    <glyph glyph-name="perthousand" unicode="&#x2030;" horiz-adv-x="2189" 
d="M561 -37h-207l643 1503h207zM607 729q-59 -90 -216 -90q-158 0 -215 90t-57 316q0 225 57 314t215 89q157 0 216 -89q57 -88 57 -314t-57 -316zM334 856q12 -45 57 -45q44 0 58 44q12 43 12 189q0 141 -12 186q-14 44 -58 44q-45 0 -57 -44t-12 -186q0 -143 12 -188z
M1171 -16q-158 0 -215 91t-57 316q0 226 58 315q57 89 215 89q157 0 216 -89q58 -89 58 -315q0 -225 -57 -316q-58 -91 -218 -91zM1796 -16q-158 0 -215 91q-57 92 -57 316q0 225 57 315q57 89 215 89t217 -89q58 -89 58 -315q0 -225 -57 -316q-58 -91 -218 -91zM1171 158
q45 0 59 45q13 43 13 188q0 143 -13 186q-14 44 -59 44q-42 0 -56 -44q-13 -43 -13 -186q0 -145 13 -188q13 -45 56 -45zM1796 158q46 0 59 45q13 43 13 188q0 143 -13 186q-14 44 -59 44q-42 0 -56 -44q-14 -47 -14 -186q0 -141 14 -188q14 -45 56 -45z" />
    <glyph glyph-name="guilsinglleft" unicode="&#x2039;" horiz-adv-x="616" 
d="M96 643l412 387v-293l-240 -221l240 -223v-293l-412 387v256z" />
    <glyph glyph-name="guilsinglright" unicode="&#x203a;" horiz-adv-x="616" 
d="M111 737v293l411 -387v-256l-411 -387v293l239 223z" />
    <glyph glyph-name="fraction" unicode="&#x2044;" horiz-adv-x="217" 
d="M-119 -37h-192l647 1503h192z" />
    <glyph glyph-name="Euro" unicode="&#x20ac;" horiz-adv-x="1355" 
d="M741 291q79 0 105 50q24 49 24 183h344q0 -288 -115 -413q-115 -127 -364 -127q-230 0 -340 114q-111 114 -139 377h-123v195h113v51v43h-113v194h123q27 266 137 379t342 113q249 0 365 -125q114 -125 114 -414h-344q0 133 -26 183q-27 49 -101 49q-69 0 -101 -39
q-31 -39 -42 -146h193v-194h-201v-43v-51h201v-195h-193q10 -103 42 -144q31 -40 99 -40z" />
    <glyph glyph-name="trademark" unicode="&#x2122;" horiz-adv-x="1554" 
d="M111 1434h489v-142h-158v-583h-172v583h-159v142zM1112 1434h254v-725h-170v487l-104 -487h-138l-104 487v-487h-172v725h254l90 -441z" />
    <glyph glyph-name="onethird" unicode="&#x2153;" horiz-adv-x="1374" 
d="M229 -37l648 1503h192l-647 -1503h-193zM428 1434v-836h-240v565l-165 -114v229l159 156h246zM1274 426q78 -58 78 -190q0 -246 -285 -246q-160 0 -223 71q-64 70 -64 211h226q0 -61 13 -77q14 -17 46 -17q37 0 48 14.5t11 63.5q0 78 -57 78h-74v184h74q27 0 38 15.5
t11 56.5q0 44 -10.5 58t-40.5 14q-31 0 -40 -15q-9 -17 -9 -72h-232q0 138 64 203q63 66 219 66q279 0 279 -242q0 -125 -72 -176z" />
    <glyph glyph-name="twothirds" unicode="&#x2154;" horiz-adv-x="1474" 
d="M330 -37l647 1503h192l-647 -1503h-192zM260 786h318v-188h-555v254q0 223 208 248l62 6q35 4 45 18.5t10 59.5q0 47 -7.5 61.5t-30.5 14.5t-31.5 -17t-8.5 -67h-233q0 147 70 207q70 59 204 59q270 0 271 -256q0 -148 -49 -200q-49 -53 -142 -64l-72 -11
q-33 -8 -46 -27.5t-13 -62.5v-35zM1374 426q78 -58 78 -190q0 -246 -285 -246q-160 0 -223 71t-63 211h225q0 -60 14 -77t45 -17q37 0 48.5 15t11.5 63q0 78 -58 78h-73v184h73q27 0 38.5 15.5t11.5 56.5q0 44 -11 58t-41 14q-31 0 -40 -15q-9 -17 -9 -72h-231q0 138 64 203
q63 66 218 66q279 0 279 -242q0 -125 -72 -176z" />
    <glyph glyph-name="oneeighth" unicode="&#x215b;" horiz-adv-x="1370" 
d="M229 -37l648 1503h192l-647 -1503h-193zM428 1434v-836h-240v565l-165 -114v229l159 156h246zM1262 436q86 -53 86 -192q0 -140 -65 -199q-67 -59 -220 -59q-147 0 -215 54t-68 204q0 139 86 192q-76 51 -75 172q0 135 70 187q69 51 202 51q151 0 213 -55q63 -55 63 -183
q1 -121 -77 -172zM1063 666q-30 0 -40.5 -15t-10.5 -57q0 -44 10.5 -57t40.5 -13q33 0 44 13.5t11 56.5q0 44 -11.5 58t-43.5 14zM1063 170q39 0 51 18.5t12 73.5q0 56 -12.5 73t-50.5 17t-48 -16q-11 -17 -11 -74q0 -58 13 -74q13 -18 46 -18z" />
    <glyph glyph-name="threeeighths" unicode="&#x215c;" horiz-adv-x="1447" 
d="M305 -37l647 1503h193l-647 -1503h-193zM594 834q0 -246 -285 -246q-157 0 -222 71q-64 70 -64 211h225q0 -61 13 -77q14 -17 46 -17q37 0 49.5 15.5t12.5 62.5q0 78 -60 78h-73v184h73q29 0 39 15t10 57q0 44 -10.5 58t-40.5 14q-31 0 -40 -15.5t-9 -70.5h-231
q0 140 65.5 204t218.5 64q279 0 279 -242q0 -124 -72 -176q76 -58 76 -190zM1339 436q86 -53 86 -192q0 -140 -66 -199q-68 -59 -220 -59q-147 0 -215 54t-68 204q0 139 86 192q-76 51 -76 172q0 135 70 187q70 51 203 51q151 0 213 -55q63 -55 63 -183q0 -121 -76 -172z
M1141 666q-30 0 -40.5 -15t-10.5 -57q0 -44 10.5 -57t40.5 -13q31 0 42 14t11 56q0 44 -11 58t-42 14zM1141 170q38 0 49.5 18t11.5 74t-12.5 73t-48.5 17q-37 0 -49.5 -18t-12.5 -72q0 -56 13 -74t49 -18z" />
    <glyph glyph-name="fiveeighths" unicode="&#x215d;" horiz-adv-x="1447" 
d="M305 -37l647 1503h193l-647 -1503h-193zM594 913q0 -183 -67 -254q-67 -73 -218 -73q-157 0 -221 67q-65 67 -65 209h223q0 -53 12.5 -70.5t46.5 -17.5q41 0 54 24q12 22 12 107q0 64 -13 86.5t-45 22.5q-33 0 -46 -18.5t-13 -65.5h-221v504h522v-187h-301v-96
q52 41 131 41q111 0 160 -68.5t49 -210.5zM1339 436q86 -53 86 -192q0 -140 -66 -199q-68 -59 -220 -59q-147 0 -215 54t-68 204q0 139 86 192q-76 51 -76 172q0 135 70 187q70 51 203 51q151 0 213 -55q63 -55 63 -183q0 -121 -76 -172zM1141 666q-30 0 -40.5 -15
t-10.5 -57q0 -44 10.5 -57t40.5 -13q31 0 42 14t11 56q0 44 -11 58t-42 14zM1141 170q38 0 49.5 18t11.5 74t-12.5 73t-48.5 17q-37 0 -49.5 -18t-12.5 -72q0 -56 13 -74t49 -18z" />
    <glyph glyph-name="seveneighths" unicode="&#x215e;" horiz-adv-x="1327" 
d="M184 -37l647 1503h193l-647 -1503h-193zM530 1245l-237 -645h-238l240 645h-272v189h507v-189zM1219 436q86 -53 86 -192q0 -141 -67 -199q-68 -59 -220 -59q-147 0 -215 54t-68 204q0 139 86 192q-76 51 -76 172q0 135 70 187q71 51 203 51q151 0 213 -55
q63 -55 63 -183q1 -121 -75 -172zM1020 666q-30 0 -40.5 -15t-10.5 -57q0 -44 10.5 -57t40.5 -13q31 0 42 14t11 56q0 44 -11 58t-42 14zM1020 170q38 0 49.5 18t11.5 74t-12.5 73t-48.5 17q-37 0 -49.5 -18t-12.5 -72q0 -55 13.5 -73.5t48.5 -18.5z" />
    <glyph glyph-name="minus" unicode="&#x2212;" 
d="M940 379h-881v283h881v-283z" />
    <glyph glyph-name="approxequal" unicode="&#x2248;" 
d="M190 571h-147q0 164 68 256.5t188 92.5q56 0 125 -23l190 -68q39 -16 84 -16q109 0 109 115h147q0 -161 -68 -255q-69 -93 -188 -93q-59 0 -125 24l-190 68q-48 16 -84 16q-51 0 -80 -30.5t-29 -86.5zM190 125h-147q0 164 68 256t188 92q59 0 125 -22l190 -68
q39 -16 84 -16q109 0 109 114h147q0 -161 -68 -255q-69 -93 -188 -93q-60 0 -125 25l-190 67q-46 15 -84 17q-51 0 -80 -31t-29 -86z" />
    <glyph glyph-name="notequal" unicode="&#x2260;" 
d="M940 885v-283h-281l-69 -201h350v-282h-451l-81 -232h-248l82 232h-185v282h285l72 201h-357v283h457l80 227h246l-80 -227h180z" />
    <glyph glyph-name="lessequal" unicode="&#x2264;" 
d="M123 897l751 320v-275l-468 -178l468 -182v-275l-751 326v264zM874 0h-753v246h753v-246z" />
    <glyph glyph-name="greaterequal" unicode="&#x2265;" 
d="M127 969v274l750 -319v-265l-750 -325v274l467 183zM874 0h-753v246h753v-246z" />
    <glyph glyph-name="uniFB01" unicode="&#xfb01;" horiz-adv-x="1204" 
d="M481 1024h643v-1024h-325v768h-318v-768h-323v768h-127v256h127v49q0 197 100 288t297 91q71 0 133 -8v-252q-59 6 -88 6q-67 0 -93 -26.5t-26 -88.5v-59zM799 1128v306h325v-306h-325z" />
    <glyph glyph-name="uniFB02" unicode="&#xfb02;" horiz-adv-x="1204" 
d="M158 1024v49q0 197 100 288t297 91q71 0 133 -8v-252q-59 6 -88 6q-67 0 -93 -26.5t-26 -88.5v-59h164v-256h-164v-768h-323v768h-127v256h127zM801 0v1434h323v-1434h-323z" />
    <glyph glyph-name="Iacute_J.locl" horiz-adv-x="1538" 
d="M381 1550h-225l137 330h336zM1389 1550h-226l137 330h336zM436 0h-344v1434h344v-1434zM1008 -18q-260 0 -353 107q-94 106 -94 312h344q0 -73 25 -104t78 -31q104 0 104 113v1055h342v-1055q0 -214 -111 -305q-113 -92 -335 -92z" />
    <glyph glyph-name="R.aalt" horiz-adv-x="1118" 
d="M1081 0h-379l-180 555h-86v-555h-344v1434h428q271 0 387 -106q117 -106 117 -333q0 -289 -193 -391zM551 1159h-115v-330h115q82 0 112 37q29 38 29 129q0 92 -31.5 128t-109.5 36z" />
    <glyph glyph-name="Racute.aalt" horiz-adv-x="1118" 
d="M557 1880h334l-248 -330h-225zM1081 0h-379l-180 555h-86v-555h-344v1434h428q271 0 387 -106q117 -106 117 -333q0 -289 -193 -391zM551 1159h-115v-330h115q82 0 112 37q29 38 29 129q0 92 -31.5 128t-109.5 36z" />
    <glyph glyph-name="Rcaron.aalt" horiz-adv-x="1118" 
d="M643 1550h-227l-219 330h241l92 -160l91 160h241zM1081 0h-379l-180 555h-86v-555h-344v1434h428q271 0 387 -106q117 -106 117 -333q0 -289 -193 -391zM551 1159h-115v-330h115q82 0 112 37q29 38 29 129q0 92 -31.5 128t-109.5 36z" />
    <glyph glyph-name="uni0156.aalt" horiz-adv-x="1118" 
d="M702 0l-180 555h-86v-555h-344v1434h428q271 0 387 -106q117 -106 117 -333q0 -289 -193 -391l250 -604h-379zM551 1159h-115v-330h115q82 0 112 37q29 38 29 129q0 92 -31.5 128t-109.5 36zM528 -326h-88v242h275v-242l-131 -241h-142z" />
    <glyph glyph-name="i.locl" horiz-adv-x="485" 
d="M379 1135h-279v278h279v-278zM406 0h-326v1024h326v-1024z" />
    <glyph glyph-name="iacute_j.locl" horiz-adv-x="970" 
d="M356 1141h-225l139 329h334zM852 1141h-225l139 329h334zM406 0h-326v1024h326v-1024zM424 -410v265q60 0 98 24q43 33 43 98v1047h326v-1016q0 -249 -150 -344q-60 -36 -150 -55q-91 -19 -167 -19z" />
    <glyph glyph-name="a.ss06" 
d="M614 930v94h308v-1024h-308v111q-85 -127 -254 -127q-163 0 -238 129t-75 391q0 269 81 403t243 133q154 0 243 -110zM492 238q50 0 79 33t29 94v297q0 59 -29 92.5t-75 33.5q-70 0 -96.5 -63.5t-26.5 -212.5q0 -153 25 -213q24 -61 94 -61z" />
    <glyph glyph-name="aacute.aalt" 
d="M543 1470h334l-248 -329h-226zM614 930v94h308v-1024h-308v111q-85 -127 -254 -127q-163 0 -238 129t-75 391q0 269 81 403t243 133q154 0 243 -110zM492 238q50 0 79 33t29 94v297q0 59 -29 92.5t-75 33.5q-70 0 -96.5 -63.5t-26.5 -212.5q0 -153 25 -213q24 -61 94 -61
z" />
    <glyph glyph-name="abreve.aalt" 
d="M516 1133q-166 0 -235 80q-70 79 -70 227h201q0 -66 24.5 -93.5t77.5 -27.5q100 0 100 121h201q0 -168 -79 -237q-79 -70 -220 -70zM614 930v94h308v-1024h-308v111q-85 -127 -254 -127q-163 0 -238 129t-75 391q0 269 81 403t243 133q154 0 243 -110zM492 238
q50 0 79 33t29 94v297q0 59 -29 92.5t-75 33.5q-70 0 -96.5 -63.5t-26.5 -212.5q0 -153 25 -213q24 -61 94 -61z" />
    <glyph glyph-name="uni01CE.aalt" 
d="M627 1141h-228l-219 329h242l92 -159l90 159h242zM614 930v94h308v-1024h-308v111q-85 -127 -254 -127q-163 0 -238 129t-75 391q0 269 81 403t243 133q154 0 243 -110zM492 238q50 0 79 33t29 94v297q0 59 -29 92.5t-75 33.5q-70 0 -96.5 -63.5t-26.5 -212.5
q0 -153 25 -213q24 -61 94 -61z" />
    <glyph glyph-name="acircumflex.aalt" 
d="M606 1135l-90 159l-92 -159h-242l219 329h228l219 -329h-242zM614 930v94h308v-1024h-308v111q-85 -127 -254 -127q-163 0 -238 129t-75 391q0 269 81 403t243 133q154 0 243 -110zM492 238q50 0 79 33t29 94v297q0 59 -29 92.5t-75 33.5q-70 0 -96.5 -63.5t-26.5 -212.5
q0 -153 25 -213q24 -61 94 -61z" />
    <glyph glyph-name="uni1EAD.aalt" 
d="M606 1135l-90 159l-92 -159h-242l219 329h228l219 -329h-242zM614 930v94h308v-1024h-308v111q-85 -127 -254 -127q-163 0 -238 129t-75 391q0 269 81 403t243 133q154 0 243 -110zM492 238q50 0 79 33t29 94v297q0 59 -29 92.5t-75 33.5q-70 0 -96.5 -63.5t-26.5 -212.5
q0 -153 25 -213q24 -61 94 -61zM635 -401h-279v278h279v-278z" />
    <glyph glyph-name="adieresis.aalt" 
d="M184 1409h271v-268h-271v268zM575 1409h271v-268h-271v268zM614 930v94h308v-1024h-308v111q-85 -127 -254 -127q-163 0 -238 129t-75 391q0 269 81 403t243 133q154 0 243 -110zM492 238q50 0 79 33t29 94v297q0 59 -29 92.5t-75 33.5q-70 0 -96.5 -63.5t-26.5 -212.5
q0 -153 25 -213q24 -61 94 -61z" />
    <glyph glyph-name="uni01DF.aalt" 
d="M254 1720h520v-196h-520v196zM184 1409h271v-268h-271v268zM846 1141h-271v268h271v-268zM614 930v94h308v-1024h-308v111q-85 -127 -254 -127q-163 0 -238 129t-75 391q0 269 81 403t243 133q154 0 243 -110zM492 238q50 0 79 33t29 94v297q0 59 -29 92.5t-75 33.5
q-70 0 -96.5 -63.5t-26.5 -212.5q0 -153 25 -213q24 -61 94 -61z" />
    <glyph glyph-name="uni1EA1.aalt" 
d="M614 930v94h308v-1024h-308v111q-85 -127 -254 -127q-163 0 -238 129t-75 391q0 269 81 403t243 133q154 0 243 -110zM492 238q50 0 79 33t29 94v297q0 59 -29 92.5t-75 33.5q-70 0 -96.5 -63.5t-26.5 -212.5q0 -153 25 -213q24 -61 94 -61zM635 -401h-279v278h279v-278z
" />
    <glyph glyph-name="agrave.aalt" 
d="M506 1464l137 -329h-225l-248 329h336zM614 930v94h308v-1024h-308v111q-85 -127 -254 -127q-163 0 -238 129t-75 391q0 269 81 403t243 133q154 0 243 -110zM492 238q50 0 79 33t29 94v297q0 59 -29 92.5t-75 33.5q-70 0 -96.5 -63.5t-26.5 -212.5q0 -153 25 -213
q24 -61 94 -61z" />
    <glyph glyph-name="amacron.aalt" 
d="M252 1366h520v-197h-520v197zM614 930v94h308v-1024h-308v111q-85 -127 -254 -127q-163 0 -238 129t-75 391q0 269 81 403t243 133q154 0 243 -110zM492 238q50 0 79 33t29 94v297q0 59 -29 92.5t-75 33.5q-70 0 -96.5 -63.5t-26.5 -212.5q0 -153 25 -213q24 -61 94 -61z
" />
    <glyph glyph-name="aogonek.aalt" 
d="M922 0h-68q-106 -103 -106 -184q0 -72 79 -72q35 0 93 16v-178q-74 -41 -164 -41q-99 0 -154 53t-55 144q0 144 147 262h-80v111q-85 -127 -254 -127q-163 0 -238 129t-75 391q0 269 81 403t243 133q154 0 243 -110v94h308v-1024zM492 238q50 0 79 33t29 94v297
q0 59 -29 92.5t-75 33.5q-70 0 -96.5 -63.5t-26.5 -212.5q0 -153 25 -213q24 -61 94 -61z" />
    <glyph glyph-name="aring.aalt" 
d="M514 1108q-201 0 -201 203q0 111 50.5 160t146.5 49q203 0 203 -203q0 -209 -199 -209zM580 1313q0 84 -65 84q-66 0 -66 -82t63 -82q68 0 68 80zM614 930v94h308v-1024h-308v111q-85 -127 -254 -127q-163 0 -238 129t-75 391q0 269 81 403t243 133q154 0 243 -110z
M492 238q50 0 79 33t29 94v297q0 59 -29 92.5t-75 33.5q-70 0 -96.5 -63.5t-26.5 -212.5q0 -153 25 -213q24 -61 94 -61z" />
    <glyph glyph-name="atilde.aalt" 
d="M399 1219q-70 0 -69 -91h-150q0 133 50.5 211t138.5 78q46 0 100 -22l82 -35q32 -15 70 -17q69 0 67 84h160q0 -133 -51.5 -208.5t-141.5 -75.5q-49 0 -106 24l-88 37q-31 15 -62 15zM614 930v94h308v-1024h-308v111q-85 -127 -254 -127q-163 0 -238 129t-75 391
q0 269 81 403t243 133q154 0 243 -110zM492 238q50 0 79 33t29 94v297q0 59 -29 92.5t-75 33.5q-70 0 -96.5 -63.5t-26.5 -212.5q0 -153 25 -213q24 -61 94 -61z" />
    <glyph glyph-name="e.aalt" horiz-adv-x="948" 
d="M494 217q89 0 90 82h313q0 -158 -111 -236q-112 -79 -303 -79q-231 0 -333 124q-103 122 -103 400q0 276 105 404q104 128 342 128q216 0 316 -96q101 -96 101 -262q0 -156 -129 -224q-130 -70 -409 -77q8 -93 34.5 -128.5t86.5 -35.5zM498 801q-63 0 -92 -45.5
t-35 -155.5q217 1 217 115q0 86 -90 86z" />
    <glyph glyph-name="eacute.aalt" horiz-adv-x="948" 
d="M506 1470h334l-248 -329h-225zM494 217q89 0 90 82h313q0 -158 -111 -236q-112 -79 -303 -79q-231 0 -333 124q-103 122 -103 400q0 276 105 404q104 128 342 128q216 0 316 -96q101 -96 101 -262q0 -156 -129 -224q-130 -70 -409 -77q8 -93 34.5 -128.5t86.5 -35.5z
M498 801q-63 0 -92 -45.5t-35 -155.5q217 1 217 115q0 86 -90 86z" />
    <glyph glyph-name="ecaron.aalt" horiz-adv-x="948" 
d="M590 1141h-228l-219 329h242l92 -159l90 159h242zM494 217q89 0 90 82h313q0 -158 -111 -236q-112 -79 -303 -79q-231 0 -333 124q-103 122 -103 400q0 276 105 404q104 128 342 128q216 0 316 -96q101 -96 101 -262q0 -156 -129 -224q-130 -70 -409 -77
q8 -93 34.5 -128.5t86.5 -35.5zM498 801q-63 0 -92 -45.5t-35 -155.5q217 1 217 115q0 86 -90 86z" />
    <glyph glyph-name="uni0229.aalt" horiz-adv-x="948" 
d="M494 217q89 0 90 82h313q0 -140 -90.5 -219t-253.5 -94l-39 -80h8q102 0 150.5 -38.5t48.5 -131.5q0 -103 -55 -152t-174 -49q-135 0 -187 52q-53 53 -53 147h166q0 -62 65 -64q34 0 49 14t15 50q0 32 -15 44.5t-49 12.5h-131l62 195q-193 18 -280 143t-87 379
q0 276 105 404q104 128 342 128q216 0 316 -96q101 -96 101 -262q0 -156 -129 -224q-130 -70 -409 -77q8 -93 34.5 -128.5t86.5 -35.5zM498 801q-63 0 -92 -45.5t-35 -155.5q217 1 217 115q0 86 -90 86z" />
    <glyph glyph-name="ecircumflex.aalt" horiz-adv-x="948" 
d="M569 1135l-90 159l-92 -159h-242l220 329h227l219 -329h-242zM494 217q89 0 90 82h313q0 -158 -111 -236q-112 -79 -303 -79q-231 0 -333 124q-103 122 -103 400q0 276 105 404q104 128 342 128q216 0 316 -96q101 -96 101 -262q0 -156 -129 -224q-130 -70 -409 -77
q8 -93 34.5 -128.5t86.5 -35.5zM498 801q-63 0 -92 -45.5t-35 -155.5q217 1 217 115q0 86 -90 86z" />
    <glyph glyph-name="uni1EC7.aalt" horiz-adv-x="948" 
d="M569 1135l-90 159l-92 -159h-242l220 329h227l219 -329h-242zM494 217q89 0 90 82h313q0 -158 -111 -236q-112 -79 -303 -79q-231 0 -333 124q-103 122 -103 400q0 276 105 404q104 128 342 128q216 0 316 -96q101 -96 101 -262q0 -156 -129 -224q-130 -70 -409 -77
q8 -93 34.5 -128.5t86.5 -35.5zM498 801q-63 0 -92 -45.5t-35 -155.5q217 1 217 115q0 86 -90 86zM647 -401h-278v278h278v-278z" />
    <glyph glyph-name="edieresis.aalt" horiz-adv-x="948" 
d="M147 1409h271v-268h-271v268zM539 1409h270v-268h-270v268zM494 217q89 0 90 82h313q0 -158 -111 -236q-112 -79 -303 -79q-231 0 -333 124q-103 122 -103 400q0 276 105 404q104 128 342 128q216 0 316 -96q101 -96 101 -262q0 -156 -129 -224q-130 -70 -409 -77
q8 -93 34.5 -128.5t86.5 -35.5zM498 801q-63 0 -92 -45.5t-35 -155.5q217 1 217 115q0 86 -90 86z" />
    <glyph glyph-name="edotaccent.aalt" horiz-adv-x="948" 
d="M338 1413h278v-278h-278v278zM494 217q89 0 90 82h313q0 -158 -111 -236q-112 -79 -303 -79q-231 0 -333 124q-103 122 -103 400q0 276 105 404q104 128 342 128q216 0 316 -96q101 -96 101 -262q0 -156 -129 -224q-130 -70 -409 -77q8 -93 34.5 -128.5t86.5 -35.5z
M498 801q-63 0 -92 -45.5t-35 -155.5q217 1 217 115q0 86 -90 86z" />
    <glyph glyph-name="uni1EB9.aalt" horiz-adv-x="948" 
d="M494 217q89 0 90 82h313q0 -158 -111 -236q-112 -79 -303 -79q-231 0 -333 124q-103 122 -103 400q0 276 105 404q104 128 342 128q216 0 316 -96q101 -96 101 -262q0 -156 -129 -224q-130 -70 -409 -77q8 -93 34.5 -128.5t86.5 -35.5zM498 801q-63 0 -92 -45.5
t-35 -155.5q217 1 217 115q0 86 -90 86zM647 -401h-278v278h278v-278z" />
    <glyph glyph-name="egrave.aalt" horiz-adv-x="948" 
d="M469 1464l137 -329h-225l-248 329h336zM494 217q89 0 90 82h313q0 -158 -111 -236q-112 -79 -303 -79q-231 0 -333 124q-103 122 -103 400q0 276 105 404q104 128 342 128q216 0 316 -96q101 -96 101 -262q0 -156 -129 -224q-130 -70 -409 -77q8 -93 34.5 -128.5
t86.5 -35.5zM498 801q-63 0 -92 -45.5t-35 -155.5q217 1 217 115q0 86 -90 86z" />
    <glyph glyph-name="emacron.aalt" horiz-adv-x="948" 
d="M215 1366h520v-197h-520v197zM494 217q89 0 90 82h313q0 -158 -111 -236q-112 -79 -303 -79q-231 0 -333 124q-103 122 -103 400q0 276 105 404q104 128 342 128q216 0 316 -96q101 -96 101 -262q0 -156 -129 -224q-130 -70 -409 -77q8 -93 34.5 -128.5t86.5 -35.5z
M498 801q-63 0 -92 -45.5t-35 -155.5q217 1 217 115q0 86 -90 86z" />
    <glyph glyph-name="eogonek.aalt" horiz-adv-x="948" 
d="M494 217q89 0 90 82h313q0 -160 -121 -242l-49 -45q-131 -129 -131 -209q0 -73 80 -71q35 0 92 16v-178q-74 -41 -164 -41q-98 0 -153.5 54t-55.5 143q0 143 144 260q-24 -2 -56 -2q-231 0 -333 124q-103 122 -103 400q0 276 105 404q104 128 342 128q216 0 316 -96
q101 -96 101 -262q0 -156 -129 -224q-130 -70 -409 -77q8 -93 34.5 -128.5t86.5 -35.5zM498 801q-63 0 -92 -45.5t-35 -155.5q217 1 217 115q0 86 -90 86z" />
    <glyph glyph-name="uni1EBD.aalt" horiz-adv-x="948" 
d="M362 1219q-70 0 -69 -91h-150q0 133 50.5 211t138.5 78q46 0 100 -22l82 -35q32 -15 70 -17q68 0 67 84h160q0 -133 -51 -208.5t-142 -75.5q-49 0 -106 24l-88 37q-31 15 -62 15zM494 217q89 0 90 82h313q0 -158 -111 -236q-112 -79 -303 -79q-231 0 -333 124
q-103 122 -103 400q0 276 105 404q104 128 342 128q216 0 316 -96q101 -96 101 -262q0 -156 -129 -224q-130 -70 -409 -77q8 -93 34.5 -128.5t86.5 -35.5zM498 801q-63 0 -92 -45.5t-35 -155.5q217 1 217 115q0 86 -90 86z" />
    <glyph glyph-name="oe.aalt" horiz-adv-x="1507" 
d="M1053 217q90 0 90 82h311q0 -158 -111 -236q-112 -79 -301 -79q-175 0 -278 71q-100 -70 -277 -69q-233 0 -336 124q-104 124 -104 404q0 276 104 401t336 125q181 0 281 -71q103 72 283 71q215 0 317 -96t102 -262q0 -156 -129 -224q-130 -70 -407 -77q7 -93 34 -129
q26 -35 85 -35zM487 221q73 0 95 61q22 59 22 232q0 171 -23 232q-24 59 -94 59q-72 0 -93 -60q-21 -61 -21 -231q0 -176 22 -233q23 -60 92 -60zM1055 801q-66 0 -94.5 -45t-32.5 -156q217 1 217 115q0 86 -90 86z" />
    <glyph glyph-name="g.aalt" horiz-adv-x="1019" 
d="M668 1024h325v-199h-90q23 -69 23 -145q0 -358 -426 -358q-53 0 -101 6q-16 -17 -16 -45t29 -39q30 -11 112 -11q255 -1 357 -76q100 -75 100 -233q0 -182 -123 -258q-122 -76 -356 -76q-471 0 -471 277q0 169 145 227q-47 52 -47 135q0 94 74 160q-129 85 -129 291
q0 178 99 270q100 92 331 92q90 0 164 -18zM502 563q66 0 92.5 25.5t26.5 89.5q0 67 -29.5 95t-91.5 28q-65 0 -93 -27.5t-28 -89.5q0 -67 30 -94t93 -27zM651 -86q0 56 -33.5 75t-113.5 21q-28 0 -72 4q-74 -17 -74 -96q0 -98 144 -98q81 0 115 23.5t34 70.5z" />
    <glyph glyph-name="gbreve.aalt" horiz-adv-x="1019" 
d="M512 1133q-166 0 -235 80q-70 79 -70 227h201q0 -66 24.5 -93.5t77.5 -27.5q100 0 100 121h201q0 -168 -79 -237q-79 -70 -220 -70zM668 1024h325v-199h-90q23 -69 23 -145q0 -358 -426 -358q-53 0 -101 6q-16 -17 -16 -45t29 -39q30 -11 112 -11q255 -1 357 -76
q100 -75 100 -233q0 -182 -123 -258q-122 -76 -356 -76q-471 0 -471 277q0 169 145 227q-47 52 -47 135q0 94 74 160q-129 85 -129 291q0 178 99 270q100 92 331 92q90 0 164 -18zM502 563q66 0 92.5 25.5t26.5 89.5q0 67 -29.5 95t-91.5 28q-65 0 -93 -27.5t-28 -89.5
q0 -67 30 -94t93 -27zM651 -86q0 56 -33.5 75t-113.5 21q-28 0 -72 4q-74 -17 -74 -96q0 -98 144 -98q81 0 115 23.5t34 70.5z" />
    <glyph glyph-name="gcaron.aalt" horiz-adv-x="1019" 
d="M623 1141h-228l-219 329h242l92 -159l90 159h242zM668 1024h325v-199h-90q23 -69 23 -145q0 -358 -426 -358q-53 0 -101 6q-16 -17 -16 -45t29 -39q30 -11 112 -11q255 -1 357 -76q100 -75 100 -233q0 -182 -123 -258q-122 -76 -356 -76q-471 0 -471 277q0 169 145 227
q-47 52 -47 135q0 94 74 160q-129 85 -129 291q0 178 99 270q100 92 331 92q90 0 164 -18zM502 563q66 0 92.5 25.5t26.5 89.5q0 67 -29.5 95t-91.5 28q-65 0 -93 -27.5t-28 -89.5q0 -67 30 -94t93 -27zM651 -86q0 56 -33.5 75t-113.5 21q-28 0 -72 4q-74 -17 -74 -96
q0 -98 144 -98q81 0 115 23.5t34 70.5z" />
    <glyph glyph-name="uni0123.aalt" horiz-adv-x="1019" 
d="M551 1350h88v-242h-274v242l131 241h143zM668 1024h325v-199h-90q23 -69 23 -145q0 -358 -426 -358q-53 0 -101 6q-16 -17 -16 -45t29 -39q30 -11 112 -11q255 -1 357 -76q100 -75 100 -233q0 -182 -123 -258q-122 -76 -356 -76q-471 0 -471 277q0 169 145 227
q-47 52 -47 135q0 94 74 160q-129 85 -129 291q0 178 99 270q100 92 331 92q90 0 164 -18zM502 563q66 0 92.5 25.5t26.5 89.5q0 67 -29.5 95t-91.5 28q-65 0 -93 -27.5t-28 -89.5q0 -67 30 -94t93 -27zM651 -86q0 56 -33.5 75t-113.5 21q-28 0 -72 4q-74 -17 -74 -96
q0 -98 144 -98q81 0 115 23.5t34 70.5z" />
    <glyph glyph-name="gdotaccent.aalt" horiz-adv-x="1019" 
d="M371 1413h278v-278h-278v278zM668 1024h325v-199h-90q23 -69 23 -145q0 -358 -426 -358q-53 0 -101 6q-16 -17 -16 -45t29 -39q30 -11 112 -11q255 -1 357 -76q100 -75 100 -233q0 -182 -123 -258q-122 -76 -356 -76q-471 0 -471 277q0 169 145 227q-47 52 -47 135
q0 94 74 160q-129 85 -129 291q0 178 99 270q100 92 331 92q90 0 164 -18zM502 563q66 0 92.5 25.5t26.5 89.5q0 67 -29.5 95t-91.5 28q-65 0 -93 -27.5t-28 -89.5q0 -67 30 -94t93 -27zM651 -86q0 56 -33.5 75t-113.5 21q-28 0 -72 4q-74 -17 -74 -96q0 -98 144 -98
q81 0 115 23.5t34 70.5z" />
    <glyph glyph-name="y.aalt" 
d="M604 428v596h324v-1092q0 -158 -115 -249t-307 -91q-183 0 -295 83q-111 82 -117 253h312q1 -88 98 -88q55 0 77.5 22.5t22.5 69.5v228q-92 -119 -235 -119q-168 0 -234 95q-67 94 -67 278v610h321v-588q0 -77 25 -109t80 -32q50 0 80 34.5t30 98.5z" />
    <glyph glyph-name="yacute.aalt" 
d="M543 1470h334l-248 -329h-226zM604 428v596h324v-1092q0 -158 -115 -249t-307 -91q-183 0 -295 83q-111 82 -117 253h312q1 -88 98 -88q55 0 77.5 22.5t22.5 69.5v228q-92 -119 -235 -119q-168 0 -234 95q-67 94 -67 278v610h321v-588q0 -77 25 -109t80 -32q50 0 80 34.5
t30 98.5z" />
    <glyph glyph-name="ycircumflex.aalt" 
d="M606 1135l-90 159l-92 -159h-242l219 329h228l219 -329h-242zM604 428v596h324v-1092q0 -158 -115 -249t-307 -91q-183 0 -295 83q-111 82 -117 253h312q1 -88 98 -88q55 0 77.5 22.5t22.5 69.5v228q-92 -119 -235 -119q-168 0 -234 95q-67 94 -67 278v610h321v-588
q0 -77 25 -109t80 -32q50 0 80 34.5t30 98.5z" />
    <glyph glyph-name="ydieresis.aalt" 
d="M184 1409h271v-268h-271v268zM575 1409h271v-268h-271v268zM604 428v596h324v-1092q0 -158 -115 -249t-307 -91q-183 0 -295 83q-111 82 -117 253h312q1 -88 98 -88q55 0 77.5 22.5t22.5 69.5v228q-92 -119 -235 -119q-168 0 -234 95q-67 94 -67 278v610h321v-588
q0 -77 25 -109t80 -32q50 0 80 34.5t30 98.5z" />
    <glyph glyph-name="ygrave.aalt" 
d="M506 1464l137 -329h-225l-248 329h336zM604 428v596h324v-1092q0 -158 -115 -249t-307 -91q-183 0 -295 83q-111 82 -117 253h312q1 -88 98 -88q55 0 77.5 22.5t22.5 69.5v228q-92 -119 -235 -119q-168 0 -234 95q-67 94 -67 278v610h321v-588q0 -77 25 -109t80 -32
q50 0 80 34.5t30 98.5z" />
    <glyph glyph-name="f_f_j.dlig" horiz-adv-x="1892" 
d="M1171 1024h641v-1016q0 -249 -149 -344q-59 -36 -149 -55q-91 -19 -166 -19v265q58 0 96 24q45 33 45 98v791h-318v-768h-325v768h-365v-768h-323v768h-127v256h127v49q0 197 100 288t297 91q71 0 133 -8v-252q-59 6 -88 6q-67 0 -93 -26.5t-26 -88.5v-59h365v49
q0 379 397 379q68 0 135 -8v-252q-59 6 -88 6q-68 0 -93.5 -25.5t-25.5 -89.5v-59zM1489 1128v306h323v-306h-323z" />
    <glyph glyph-name="f_j.dlig" horiz-adv-x="1204" 
d="M481 1024h643v-1016q0 -249 -149 -344q-60 -36 -150 -55q-92 -19 -168 -19v265q61 0 99 24q43 33 43 98v791h-318v-768h-323v768h-127v256h127v49q0 197 100 288t297 91q71 0 133 -8v-252q-59 6 -88 6q-67 0 -93 -26.5t-26 -88.5v-59zM799 1128v306h325v-306h-325z" />
    <glyph glyph-name="ae.ss06" horiz-adv-x="1513" 
d="M1475 424h-553q5 -125 29 -167q24 -44 91 -44q101 0 103 86h313q0 -146 -83 -231q-83 -84 -208 -84q-153 0 -245 110v-94h-308v111q-85 -127 -254 -127q-163 0 -238 129t-75 391q0 270 78 403t246 133q155 0 243 -120v104h308v-84q82 100 221 100q173 0 253.5 -130
t80.5 -392q0 -60 -2 -94zM1120 768q-25 43 -83 43t-82 -43q-25 -43 -31 -156h227q-6 113 -31 156zM492 238q50 0 79 33t29 94v297q0 59 -29 92.5t-75 33.5q-70 0 -96.5 -63.5t-26.5 -212.5q0 -153 25 -213q24 -61 94 -61z" />
    <glyph glyph-name="ae.ss06.ss06" horiz-adv-x="1488" 
d="M1049 217q90 0 90 82h301q0 -155 -82.5 -235t-229.5 -80q-131 0 -206 69v-53h-308v111q-85 -127 -254 -127q-163 0 -238 129t-75 391q0 270 78 403t246 133q155 0 243 -120v104h308v-57q79 74 215 73q158 0 236.5 -94t78.5 -264q0 -157 -124 -224q-125 -70 -400 -77
q8 -93 34.5 -128.5t86.5 -35.5zM1053 801q-63 0 -92 -45t-35 -154q128 6 172 34q45 29 45 79q0 86 -90 86zM492 238q50 0 79 33t29 94v297q0 59 -29 92.5t-75 33.5q-70 0 -96.5 -63.5t-26.5 -212.5q0 -153 25 -213q24 -61 94 -61z" />
    <glyph glyph-name="ae.ss06001" horiz-adv-x="1497" 
d="M1038 217q87 0 88 82h320q0 -158 -111 -236q-112 -79 -301 -79q-215 0 -311 127q-107 -125 -315 -125q-164 0 -262 81q-99 79 -99 234q0 88 33.5 153t89.5 97q98 55 211 55h227v107q0 86 -102 86q-103 0 -103 -86h-303q0 172 104 250q104 77 267 77q190 0 281 -100
q97 100 290 100q215 0 317 -93q101 -93 101 -253q0 -150 -129 -213t-411 -69q6 -113 32 -154t86 -41zM1042 801q-61 0 -88.5 -44t-33.5 -151q113 2 161.5 30t48.5 81q0 84 -88 84zM485 223q123 0 123 156v39h-104q-117 0 -117 -96q0 -99 98 -99z" />
    <glyph glyph-name="zero.pnum" horiz-adv-x="987" 
d="M848 149q-98 -167 -354 -167t-354 167q-99 167 -99 564q0 413 98 577q97 162 355 162t355 -163t97 -576q0 -397 -98 -564zM494 268q70 0 90 89q20 91 20 358q0 277 -20 365q-21 85 -90 85q-68 0 -88 -87q-21 -87 -21 -363q0 -269 21 -357q19 -90 88 -90z" />
    <glyph glyph-name="one.pnum" horiz-adv-x="737" 
d="M287 1434h354v-1434h-342v1034l-270 -186v332z" />
    <glyph glyph-name="two.pnum" horiz-adv-x="960" 
d="M379 377v-98h539v-279h-883v416q0 196 85 291q85 96 245 127l114 18q58 10 82.5 48t24.5 124q0 88 -21.5 123t-70.5 35q-52 0 -73.5 -37t-21.5 -133h-342q2 236 116 338t323 102q430 0 430 -428q0 -384 -305 -449l-129 -26q-62 -15 -87.5 -55.5t-25.5 -116.5z" />
    <glyph glyph-name="three.pnum" horiz-adv-x="968" 
d="M784 739q143 -101 144 -344q0 -210 -110 -310.5t-339 -100.5q-249 0 -347 116q-97 115 -97 336h325q0 -102 29 -137t92 -35q66 0 92.5 35t26.5 125q0 98 -27.5 137t-91.5 39h-106v274h106q54 0 78.5 38.5t24.5 123.5q0 82 -24 114t-79 32q-57 0 -80 -32q-24 -32 -24 -126
h-334q0 211 97 320q96 108 339 108q223 0 332 -97t109 -300q-2 -225 -136 -316z" />
    <glyph glyph-name="four.pnum" horiz-adv-x="1050" 
d="M877 575h141v-272h-141v-303h-332v303h-510v272l436 859h406v-859zM545 1022l-201 -447h201v447z" />
    <glyph glyph-name="five.pnum" horiz-adv-x="960" 
d="M588 999q178 0 258 -118t80 -365q0 -296 -107 -415q-108 -119 -340 -119q-244 0 -344 109q-100 107 -100 333h319q0 -86 29.5 -124t91.5 -38q78 0 105 53q26 54 26 189q0 126 -27.5 177.5t-91.5 51.5q-115 0 -114 -151h-322v852h807v-273h-485v-225q83 63 215 63z" />
    <glyph glyph-name="six.pnum" horiz-adv-x="978" 
d="M602 965q180 0 262 -114t82 -349q0 -275 -107 -397q-108 -121 -329 -121q-268 0 -368 159q-101 158 -101 527q0 585 201 717q96 63 260 63q418 0 418 -377h-328q0 115 -94 115q-61 0 -88 -63q-27 -65 -33 -236q82 76 225 76zM500 264q74 0 99 52q24 51 24 178
q0 116 -26 163q-25 45 -91 45q-71 0 -101 -35t-30 -112v-45q0 -137 30 -191q28 -55 95 -55z" />
    <glyph glyph-name="seven.pnum" horiz-adv-x="860" 
d="M25 1155v279h811v-279l-406 -1155h-340l414 1155h-479z" />
    <glyph glyph-name="eight.pnum" horiz-adv-x="972" 
d="M770 745q162 -90 162 -348q0 -215 -103 -315t-344 -100q-219 0 -331 94q-113 95 -113 321q0 258 160 348q-143 89 -144 314q0 393 428 393q224 0 327 -98t103 -297q0 -221 -145 -312zM487 1188q-58 0 -84 -35.5t-26 -116.5q0 -87 26.5 -121t83.5 -34q58 0 83.5 35
t25.5 120q0 84 -26.5 118t-82.5 34zM487 254q69 0 97 39.5t28 140.5q0 118 -29 156q-30 37 -96 37q-70 0 -98 -40q-29 -41 -29 -153q0 -105 31 -142q30 -38 96 -38z" />
    <glyph glyph-name="nine.pnum" horiz-adv-x="978" 
d="M471 1450q267 0 368 -158q99 -159 99 -528q0 -584 -199 -716q-95 -64 -262 -64q-418 0 -418 378h328q0 -58 23.5 -86.5t70.5 -27.5q63 0 89 62q26 63 32 233q-85 -74 -223 -74q-180 0 -262 114.5t-82 350.5q0 276 108 396q106 120 328 120zM475 731q70 0 99.5 36
t29.5 114v43q0 140 -28 192q-29 53 -97 53q-75 0 -97 -51q-24 -51 -24 -178q0 -116 26 -163q25 -46 91 -46z" />
    <glyph glyph-name="zero.oldstyle" horiz-adv-x="993" 
d="M847 108q-107 -126 -351 -126q-247 0 -350 124q-105 123 -105 410q0 278 105 403q104 123 350 123q249 0 352 -121q104 -122 104 -405q0 -284 -105 -408zM496 242q72 0 93 58t21 216q0 153 -23 210q-24 56 -91 56q-70 0 -91 -56q-22 -54 -22 -210q0 -159 23 -217
q22 -57 90 -57z" />
    <glyph glyph-name="one.oldstyle" horiz-adv-x="710" 
d="M270 1024h344v-1024h-331v707l-254 -154v283z" />
    <glyph glyph-name="two.oldstyle" horiz-adv-x="964" 
d="M369 264v-20h561v-244h-895v291q0 139 78 211t245 96l127 16q115 16 115 107q0 86 -96 86q-57 0 -82 -22.5t-25 -71.5h-334q1 166 119 247q118 80 320 80q430 0 430 -331q0 -159 -80 -230t-234 -92l-141 -22q-62 -9 -85 -33.5t-23 -67.5z" />
    <glyph glyph-name="three.oldstyle" horiz-adv-x="983" 
d="M799 354q143 -95 143 -329q0 -210 -114 -311t-345 -101q-253 0 -351 114q-97 115 -97 339h330q0 -103 29 -140q29 -35 89 -35q66 0 92.5 36t26.5 126q0 91 -28 128.5t-91 37.5h-106v273h106q56 0 80.5 32t24.5 109q0 78 -24.5 109.5t-80.5 31.5t-78 -31q-24 -31 -24 -122
h-338q0 208 98 315q97 106 342 106q223 0 333 -95.5t110 -295.5q0 -213 -127 -297z" />
    <glyph glyph-name="four.oldstyle" horiz-adv-x="1071" 
d="M897 223h141v-268h-141v-324h-336v324h-526v268l446 801h416v-801zM561 635l-203 -412h203v412z" />
    <glyph glyph-name="five.oldstyle" horiz-adv-x="964" 
d="M590 598q179 0 260.5 -114.5t81.5 -350.5q0 -290 -109 -405t-342 -115q-245 0 -346 107q-100 107 -100 335h321q0 -89 28.5 -126.5t92.5 -37.5q78 0 105 50q26 52 26 180q0 114 -27.5 162.5t-91.5 48.5q-117 0 -116 -148h-326v840h815v-268h-489v-221q85 63 217 63z" />
    <glyph glyph-name="six.oldstyle" horiz-adv-x="964" 
d="M590 932q184 0 262 -116t78 -341q0 -260 -106 -375q-107 -116 -324 -116q-264 0 -361 159q-98 158 -98 531q0 547 203 676q95 61 258 61q211 0 307 -101q96 -102 96 -272h-323q0 111 -90 111q-66 0 -93.5 -68t-31.5 -225q82 76 223 76zM489 264q73 0 99 51q24 50 24 170
q0 102 -27.5 144.5t-94.5 42.5t-96 -35.5t-29 -110.5v-24q0 -133 28 -185q29 -53 96 -53z" />
    <glyph glyph-name="seven.oldstyle" horiz-adv-x="870" 
d="M25 752v272h821v-272l-402 -1121h-346l410 1121h-483z" />
    <glyph glyph-name="eight.oldstyle" horiz-adv-x="978" 
d="M780 725q158 -86 158 -334q0 -211 -103 -310t-346 -99q-224 0 -336 92q-112 91 -112 317q0 249 154 334q-136 85 -138 299q0 207 111 297t321 90q224 0 328.5 -96t104.5 -291q-1 -211 -142 -299zM489 1147q-58 0 -83 -33t-25 -112q0 -77 26.5 -109.5t81.5 -32.5
q59 0 84 32t25 109q0 81 -26.5 113.5t-82.5 32.5zM489 254q69 0 98 38q27 38 27 138q0 108 -29 143q-30 33 -93 33q-72 0 -99 -37q-28 -37 -28 -139q0 -101 29 -139q28 -37 95 -37z" />
    <glyph glyph-name="nine.oldstyle" horiz-adv-x="964" 
d="M465 1040q264 0 362 -158q97 -158 97 -530q0 -548 -203 -678q-95 -61 -258 -61q-211 0 -307 101q-97 101 -97 272h324q0 -111 90 -111q66 0 93.5 69t31.5 224q-82 -76 -223 -76q-184 0 -262 116t-78 341q0 261 107 377q107 114 323 114zM380 397q28 -43 96 -43t96 36
q28 35 28 108v24q0 134 -28 187q-29 53 -97 53q-74 0 -98 -50q-25 -49 -25 -171q0 -103 28 -144z" />
    <glyph glyph-name="zero.tnum" 
d="M500 -18q-265 0 -362 160q-99 159 -99 552q0 398 99 556q97 157 362 157q262 0 362 -157q99 -157 99 -556q0 -393 -99 -552q-100 -160 -362 -160zM412 349q20 -83 88 -83q67 0 88 83q20 85 20 345t-20 345q-21 83 -88 83q-68 0 -88 -83q-21 -83 -21 -345t21 -345z" />
    <glyph glyph-name="one.tnum" 
d="M428 1395h406v-1395h-390v1010l-364 -197v330z" />
    <glyph glyph-name="two.tnum" 
d="M395 362v-86h557v-276h-913v401q0 195 87 290q88 96 257 124l119 16q57 11 81 42q23 32 23 112q0 84 -21.5 118t-70.5 34q-54 0 -76 -36t-22 -130h-355q1 235 119 336q116 100 336 100q444 0 445 -424q0 -205 -85 -302t-237 -124l-127 -27q-65 -15 -91 -54.5t-26 -113.5z
" />
    <glyph glyph-name="three.tnum" 
d="M813 717q143 -95 143 -326q0 -209 -112.5 -308t-347.5 -99q-260 0 -359 115q-100 113 -100 333h338q0 -100 29 -135t92 -35q68 0 94 35t26 123q0 90 -28.5 126t-91.5 36h-107v272h107q57 0 80.5 32t23.5 111q0 80 -24 111t-80 31q-58 0 -81.5 -28.5t-23.5 -104.5h-346
q0 195 100 298q99 103 351 103q229 0 339.5 -94.5t110.5 -296.5q0 -215 -133 -299z" />
    <glyph glyph-name="four.tnum" 
d="M846 569h125v-272h-125v-297h-338v297h-483v272l409 826h412v-826zM508 965l-172 -396h172v396z" />
    <glyph glyph-name="five.tnum" 
d="M606 967q190 0 271 -115q81 -116 81 -342q0 -292 -110 -410q-111 -118 -350 -118q-254 0 -356 108q-103 106 -103 332h332q0 -87 29.5 -124.5t93.5 -37.5q80 0 107 51q26 52 26 187q0 111 -28 157.5t-93 46.5q-117 0 -117 -149h-332v842h834v-273h-502v-219q82 64 217 64
z" />
    <glyph glyph-name="six.tnum" 
d="M606 934q189 0 269 -116q79 -115 79 -343q0 -259 -108 -375q-110 -116 -330 -116q-268 0 -366 159q-99 157 -99 531q0 546 205 673q97 60 262 60q218 0 315 -100t97 -273h-330q0 113 -92 113q-67 0 -95 -66t-32 -225q83 78 225 78zM506 264q74 0 99 51q24 50 24 170
q0 102 -28 144.5t-95 42.5t-97 -35.5t-30 -110.5v-24q0 -132 29 -185t98 -53z" />
    <glyph glyph-name="seven.tnum" 
d="M61 1116v279h873v-279l-434 -1114h-359l437 1114h-517z" />
    <glyph glyph-name="eight.tnum" 
d="M795 725q162 -90 161 -334q0 -213 -105 -311q-107 -98 -353 -98q-226 0 -341 92q-114 92 -114 317q0 246 158 332q-143 89 -144 301q0 383 441 383q236 0 339 -97t103 -288q0 -209 -145 -297zM500 1145q-58 0 -84.5 -33.5t-26.5 -110.5q0 -79 26.5 -111t84.5 -32
q59 0 83.5 32t24.5 111t-26.5 111.5t-81.5 32.5zM500 252q70 0 98.5 39.5t28.5 138.5q0 106 -30 140t-95 34q-72 0 -100 -36q-29 -37 -29 -138q0 -104 31 -141q30 -37 96 -37z" />
    <glyph glyph-name="nine.tnum" 
d="M483 1407q268 0 367 -157q98 -158 98 -531q0 -548 -204 -674q-98 -61 -263 -61q-216 0 -314 101q-97 100 -97 273h329q0 -56 23.5 -84.5t69.5 -27.5q67 0 94.5 66t31.5 225q-82 -78 -225 -78q-189 0 -269 116q-79 115 -79 343q0 260 109 375q108 114 329 114zM399 763
q27 -42 95 -42q67 0 97 36t30 109v25q0 132 -29 185q-28 52 -98 52q-74 0 -98 -50q-25 -49 -25 -171q0 -103 28 -144z" />
    <glyph glyph-name="zero.oldstyle.tnum" 
d="M500 -18q-247 0 -351 122t-104 408q0 282 105 407q104 123 350 123q248 0 351 -121t103 -409q0 -282 -104 -406q-103 -124 -350 -124zM500 242q70 0 92 57q22 56 22 213q0 156 -24 213q-26 57 -90 57q-72 0 -93 -57q-22 -56 -22 -213q0 -158 24 -214q23 -56 91 -56z" />
    <glyph glyph-name="one.oldstyle.tnum" 
d="M418 1026h407v-1026h-383v745l-381 -118v247z" />
    <glyph glyph-name="two.oldstyle.tnum" 
d="M379 274v-30h577v-244h-915v301q0 139 79 211t251 96l133 17q64 8 91.5 32t27.5 68q0 82 -103 82q-56 0 -84.5 -23.5t-27.5 -70.5h-336q1 165 121 247q119 80 325 80q438 0 438 -335q0 -151 -80 -219q-82 -68 -239 -89l-145 -22q-64 -9 -88.5 -34t-24.5 -67z" />
    <glyph glyph-name="three.oldstyle.tnum" 
d="M809 354q145 -96 145 -329q0 -210 -115 -311t-347 -101q-256 0 -353 114q-98 116 -98 339h332q0 -103 29 -140q29 -35 92 -35q66 0 92 36t26 126q0 91 -28 128.5t-90 37.5h-109v273h109q55 0 79.5 32t24.5 109q0 78 -24.5 109.5t-79.5 31.5q-57 0 -81 -31t-24 -122h-340
q0 207 98 314t345 107q224 0 335 -95.5t111 -295.5q0 -211 -129 -297z" />
    <glyph glyph-name="four.oldstyle.tnum" 
d="M831 223h127v-268h-127v-324h-329v324h-484v268l404 803h409v-803zM502 621l-176 -398h176v398z" />
    <glyph glyph-name="five.oldstyle.tnum" 
d="M604 598q183 0 264.5 -114.5t81.5 -350.5q0 -290 -109 -405t-345 -115q-248 0 -349 107q-102 108 -102 335h324q0 -89 29 -126.5t94 -37.5q80 0 108 49q27 49 27 181q0 116 -28 163.5t-95 47.5q-117 0 -117 -148h-328v842h822v-270h-494v-221q85 63 217 63z" />
    <glyph glyph-name="six.oldstyle.tnum" 
d="M608 934q190 0 270 -116t80 -343q0 -259 -108 -375q-110 -116 -330 -116q-268 0 -367 159q-100 157 -100 531q0 545 207 673q98 60 262 60q216 0 313 -100t97 -273h-330q0 113 -92 113q-65 0 -93 -66.5t-32 -222.5q82 76 223 76zM510 264q74 0 99 51q24 50 24 170
q0 103 -28 145t-97 42q-67 0 -96 -35t-29 -111v-24q0 -132 29 -185t98 -53z" />
    <glyph glyph-name="seven.oldstyle.tnum" 
d="M59 752v274h881v-274l-432 -1121h-354l438 1121h-533z" />
    <glyph glyph-name="eight.oldstyle.tnum" 
d="M795 725q162 -90 161 -334q0 -213 -105 -311q-107 -98 -353 -98q-226 0 -341 92q-114 92 -114 317q0 246 158 332q-143 89 -144 301q0 383 441 383q236 0 339 -97t103 -288q0 -209 -145 -297zM500 1145q-58 0 -84.5 -33.5t-26.5 -110.5q0 -79 26.5 -111t84.5 -32
q59 0 83.5 32t24.5 111t-26.5 111.5t-81.5 32.5zM500 252q70 0 98.5 39.5t28.5 138.5q0 106 -30 140t-95 34q-72 0 -100 -36q-29 -37 -29 -138q0 -104 31 -141q30 -37 96 -37z" />
    <glyph glyph-name="nine.oldstyle.tnum" 
d="M483 1042q268 0 367 -157q98 -158 98 -531q0 -546 -204 -674q-98 -61 -263 -61q-217 0 -314 100t-97 273h329q0 -113 93 -113q67 0 94.5 67t31.5 226q-82 -78 -225 -78q-189 0 -269 116q-79 115 -79 341q0 262 109 377q108 114 329 114zM494 354q127 0 127 146v24
q0 132 -29 187q-29 53 -98 53q-74 0 -98 -50q-25 -49 -25 -171q0 -103 27.5 -146t95.5 -43z" />
    <glyph glyph-name="zero.dnom" horiz-adv-x="622" 
d="M540 82q-62 -96 -229 -96q-168 0 -228 95t-60 337q0 240 60 334t228 94q167 0 229 -93q60 -95 60 -335t-60 -336zM267 231q9 -43 44 -43t45 42q9 42 9 188q0 143 -9 185q-10 42 -45 42t-44 -42t-9 -185q0 -145 9 -187z" />
    <glyph glyph-name="one.dnom" horiz-adv-x="509" 
d="M182 836h246v-836h-240v565l-165 -114v229z" />
    <glyph glyph-name="two.dnom" horiz-adv-x="604" 
d="M260 223v-35h318v-188h-555v254q0 223 208 248l62 6q35 4 45 18.5t10 59.5q0 47 -7.5 61.5t-30.5 14.5t-31.5 -17t-8.5 -67h-233q0 147 70 207q70 59 204 59q270 0 271 -256q0 -148 -49 -200q-49 -53 -142 -64l-72 -11q-33 -8 -46 -27.5t-13 -62.5z" />
    <glyph glyph-name="three.dnom" horiz-adv-x="616" 
d="M518 426q76 -58 76 -190q0 -246 -285 -246q-157 0 -222 71q-64 70 -64 211h225q0 -61 13 -77q14 -17 46 -17q37 0 49.5 15.5t12.5 62.5q0 78 -60 78h-73v184h73q29 0 39 15t10 57q0 44 -10.5 58t-40.5 14q-31 0 -40 -15q-9 -17 -9 -72h-231q0 140 65.5 204.5t218.5 64.5
q279 0 279 -242q0 -124 -72 -176z" />
    <glyph glyph-name="four.dnom" horiz-adv-x="657" 
d="M559 350h76v-184h-76v-166h-225v166h-311v184l258 486h278v-486zM334 565l-103 -215h103v215z" />
    <glyph glyph-name="five.dnom" horiz-adv-x="616" 
d="M385 594q111 0 160 -68t49 -211q0 -183 -67 -254q-67 -73 -218 -73q-157 0 -221 67q-65 67 -65 209h223q0 -53 12.5 -70.5t46.5 -17.5q41 0 54 24q12 23 12 107q0 64 -13 86.5t-45 22.5q-33 0 -46 -18.5t-13 -65.5h-221v504h522v-187h-301v-96q52 41 131 41z" />
    <glyph glyph-name="six.dnom" horiz-adv-x="618" 
d="M383 563q114 0 163.5 -67.5t49.5 -208.5q0 -158 -66 -227.5t-211 -69.5q-173 0 -234 93q-62 94 -62 320q0 255 70 349q69 94 222 94q269 0 271 -234h-228q0 54 -45 56q-33 0 -47 -29q-15 -31 -16 -115q46 39 133 39zM313 178q37 0 49.5 21.5t12.5 85.5q0 63 -13 82
q-14 18 -48 18q-35 0 -49 -14q-15 -15 -15 -52v-38q0 -65 14 -84q13 -19 49 -19z" />
    <glyph glyph-name="seven.dnom" horiz-adv-x="552" 
d="M23 647v189h507v-189l-237 -645h-238l240 645h-272z" />
    <glyph glyph-name="eight.dnom" horiz-adv-x="614" 
d="M506 436q86 -53 86 -192q0 -140 -66 -199q-68 -59 -221 -59q-147 0 -214 54q-68 54 -68 204q0 139 86 192q-76 51 -76 172q0 135 70 187q69 51 202 51q150 0 214 -55q63 -55 63 -183q0 -121 -76 -172zM307 666q-30 0 -40.5 -15t-10.5 -57q0 -43 11 -56.5t40 -13.5
q31 0 42 14t11 56q0 44 -11 58t-42 14zM307 170q38 0 50 18t12 74q0 55 -13 72.5t-49 17.5q-37 0 -49 -17.5t-12 -72.5t13.5 -73.5t47.5 -18.5z" />
    <glyph glyph-name="nine.dnom" horiz-adv-x="618" 
d="M299 846q172 0 235 -92q62 -92 62 -320q0 -254 -69 -349q-71 -95 -224 -95q-268 0 -268 235h227q0 -55 43 -55q35 0 50 28q15 29 16 113q-51 -39 -135 -39q-114 0 -162.5 67.5t-48.5 209.5q0 159 65 228t209 69zM259 471q13 -18 48 -18t49 14q13 13 15 49v41
q0 61 -14 81.5t-50 20.5q-37 0 -49 -21.5t-12 -84.5q0 -65 13 -82z" />
    <glyph glyph-name="zero.numr" horiz-adv-x="622" 
d="M540 681q-62 -95 -229 -95q-168 0 -228 94t-60 336q0 240 60 334t228 94q167 0 229 -93q60 -94 60 -335q0 -240 -60 -335zM267 829q9 -43 44 -43t45 42q9 42 9 188q0 143 -9 185q-10 42 -45 42t-44 -42t-9 -185q0 -145 9 -187z" />
    <glyph glyph-name="one.numr" horiz-adv-x="509" 
d="M182 1434h246v-836h-240v565l-165 -114v229z" />
    <glyph glyph-name="two.numr" horiz-adv-x="604" 
d="M260 821v-35h318v-188h-555v254q0 223 208 248l62 6q35 4 45 18.5t10 59.5q0 47 -7.5 61.5t-30.5 14.5t-31.5 -17t-8.5 -67h-233q0 147 70 207q70 59 204 59q270 0 271 -256q0 -148 -49 -200q-49 -53 -142 -64l-72 -11q-33 -8 -46 -27.5t-13 -62.5z" />
    <glyph glyph-name="three.numr" horiz-adv-x="616" 
d="M518 1024q76 -58 76 -190q0 -246 -285 -246q-157 0 -222 71q-64 70 -64 211h225q0 -61 13 -77q14 -17 46 -17q37 0 49.5 15.5t12.5 62.5q0 78 -60 78h-73v184h73q29 0 39 15t10 57q0 44 -10.5 58t-40.5 14q-31 0 -40 -15.5t-9 -70.5h-231q0 140 65.5 204t218.5 64
q279 0 279 -242q0 -124 -72 -176z" />
    <glyph glyph-name="four.numr" horiz-adv-x="657" 
d="M559 948h76v-184h-76v-166h-225v166h-311v184l258 486h278v-486zM334 1163l-103 -215h103v215z" />
    <glyph glyph-name="five.numr" horiz-adv-x="616" 
d="M385 1192q111 0 160 -68t49 -211q0 -183 -67 -254q-67 -73 -218 -73q-157 0 -221 67q-65 67 -65 209h223q0 -53 12.5 -70.5t46.5 -17.5q41 0 54 24q12 22 12 107q0 64 -13 86.5t-45 22.5q-33 0 -46 -18.5t-13 -65.5h-221v504h522v-187h-301v-96q52 41 131 41z" />
    <glyph glyph-name="six.numr" horiz-adv-x="618" 
d="M383 1161q114 0 163.5 -67.5t49.5 -208.5q0 -158 -66 -227.5t-211 -69.5q-173 0 -234 93q-62 94 -62 320q0 255 70 349q69 94 222 94q269 0 271 -234h-228q0 54 -45 56q-33 0 -47 -29q-15 -31 -16 -115q47 39 133 39zM313 776q37 0 49.5 21.5t12.5 85.5q0 63 -13 82
q-14 18 -48 18q-35 0 -49 -14q-15 -15 -15 -51v-39q0 -65 14 -84q13 -19 49 -19z" />
    <glyph glyph-name="seven.numr" horiz-adv-x="552" 
d="M23 1245v189h507v-189l-237 -645h-238l240 645h-272z" />
    <glyph glyph-name="eight.numr" horiz-adv-x="614" 
d="M506 1034q86 -53 86 -192t-65 -198q-65 -58 -222 -58q-146 0 -214 53t-68 203q0 139 86 192q-76 51 -76 172q0 135 70 187q69 51 202 51q150 0 214 -55q63 -55 63 -183q0 -121 -76 -172zM307 1264q-30 0 -40.5 -15t-10.5 -57q0 -43 11 -56.5t40 -13.5q31 0 42 14t11 56
q0 44 -11 58t-42 14zM307 768q38 0 50 18t12 74q0 55 -13 72.5t-49 17.5q-37 0 -49 -17.5t-12 -72.5t13.5 -73.5t47.5 -18.5z" />
    <glyph glyph-name="nine.numr" horiz-adv-x="618" 
d="M299 1444q172 0 235 -92q62 -92 62 -320q0 -254 -69 -348q-70 -94 -224 -94q-268 0 -268 233h227q0 -55 43 -55q35 0 50 28q15 29 16 113q-51 -39 -135 -39q-114 0 -162.5 67.5t-48.5 209.5q0 159 65 228t209 69zM259 1069q13 -18 48 -18t49 14q13 13 15 49v41
q0 61 -14 81.5t-50 20.5q-37 0 -49 -21.5t-12 -84.5q0 -65 13 -82z" />
    <glyph glyph-name="uni0308_gravecomb.ccmp" horiz-adv-x="0" 
d="M-440 1817l137 -330h-225l-248 330h336zM-494 1141h-270v268h270v-268zM-102 1141h-271v268h271v-268z" />
    <glyph glyph-name="uni0308_acutecomb.ccmp" horiz-adv-x="0" 
d="M-348 1493h-225l137 330h336zM-524 1141h-271v268h271v-268zM-133 1141h-270v268h270v-268z" />
    <glyph glyph-name="uni0308_uni030C.ccmp" horiz-adv-x="0" 
d="M-328 1493h-225l-219 330h242l90 -158l90 158h241zM-500 1139h-270v268h270v-268zM-111 1139h-270v268h270v-268z" />
    <glyph glyph-name="uni0308_uni0304.ccmp" horiz-adv-x="0" 
d="M-174 1524h-520v196h520v-196zM-494 1141h-270v268h270v-268zM-102 1141h-271v268h271v-268z" />
    <glyph glyph-name="tildecomb_acutecomb.ccmp" horiz-adv-x="0" 
d="M-354 1489h-226l138 330h336zM-647 1128h-150q0 133 50.5 211t138.5 78q46 0 100 -22l82 -35q32 -15 70 -17q68 0 67 84h160q0 -133 -51 -208.5t-142 -75.5q-48 0 -106 24l-88 37q-32 14 -62 15q-70 0 -69 -91z" />
    <glyph glyph-name="uni0304_gravecomb.ccmp" horiz-adv-x="0" 
d="M-412 1819l138 -330h-226l-248 330h336zM-104 1171h-521v197h521v-197z" />
    <glyph glyph-name="uni0304_acutecomb.ccmp" horiz-adv-x="0" 
d="M-348 1489h-225l139 330h334zM-201 1171h-520v197h520v-197z" />
    <glyph glyph-name="macron_acute.ccmp" horiz-adv-x="821" 
d="M475 1489h-225l139 330h334zM623 1171h-521v197h521v-197z" />
    <glyph glyph-name="macron_grave.ccmp" horiz-adv-x="847" 
d="M438 1819l137 -330h-225l-248 330h336zM745 1171h-520v197h520v-197z" />
    <glyph glyph-name="tilde_acute.ccmp" horiz-adv-x="897" 
d="M545 1489h-226l138 330h336zM252 1128h-150q0 133 50.5 211t138.5 78q46 0 100 -22l82 -35q32 -15 70 -17q69 0 67 84h160q0 -133 -51 -208.5t-141 -75.5q-48 0 -107 24l-88 37q-32 14 -61 15q-70 0 -70 -91z" />
    </font>
</defs>
</svg>
